<?xml version="1.0" encoding="UTF-8"?>
<svg width="352px" height="257px" viewBox="0 0 352 257" version="1.1" xmlns="http://www.w3.org/2000/svg" xmlns:xlink="http://www.w3.org/1999/xlink">
    <title>Group 13</title>
    <g id="Page-1" stroke="none" stroke-width="1" fill="none" fill-rule="evenodd">
        <g id="Home-1920" transform="translate(-1284.000000, -1281.000000)">
            <g id="Group-13" transform="translate(1284.000000, 1281.721834)">
                <path d="M228.926654,161.615409 L235.794106,161.615409 L235.794106,155.224565 L235.522742,155.224565 C232.661895,155.224565 230.379248,154.126083 229.265415,152.208128 C228.375059,150.677975 228.376832,148.853022 229.270736,147.328134 C230.384569,145.427726 232.653027,144.339773 235.490817,144.339773 C235.503232,144.339773 235.513874,144.339773 235.52629,144.339773 L235.794106,144.339773 L235.794106,137.950683 L227.779123,137.950683 C227.144167,137.950683 226.629818,137.441802 226.629818,136.813597 L226.629818,134.90968 C226.629818,131.754617 224.969711,130.319222 223.426663,130.319222 C221.881841,130.319222 220.221734,131.754617 220.221734,134.90968 L220.221734,136.813597 C220.221734,137.441802 219.707384,137.950683 219.072429,137.950683 L211.009558,137.950683 L211.009558,144.339773 L211.327036,144.339773 C211.339451,144.339773 211.350093,144.339773 211.362508,144.339773 C214.196751,144.339773 216.461662,145.425971 217.577268,147.328134 C218.471172,148.853022 218.474719,150.677975 217.582589,152.208128 C216.466983,154.126083 214.187883,155.224565 211.327036,155.224565 L211.009558,155.224565 L211.009558,161.615409 L217.924897,161.615409 C217.97988,157.195163 220.72012,154.884141 223.426663,154.884141 C226.131431,154.884141 228.871672,157.195163 228.926654,161.615409 Z M236.678575,164.336817 L227.693515,164.336817 C227.070978,164.336817 226.566688,163.824871 226.566688,163.192882 L226.566688,162.188409 C226.566688,159.012579 224.939048,157.566773 223.426177,157.566773 C221.911568,157.566773 220.283927,159.012579 220.283927,162.188409 L220.283927,163.192882 C220.283927,163.824871 219.779637,164.336817 219.1571,164.336817 L210.125089,164.336817 C209.50429,164.336817 209,163.824871 209,163.192882 L209,154.479209 C209,153.84722 209.50429,153.335274 210.125089,153.335274 L211.563185,153.335274 C213.538612,153.335274 215.063655,152.646795 215.745316,151.44637 C216.209611,150.623726 216.209611,149.643967 215.741838,148.824853 C215.061916,147.638551 213.552523,146.957133 211.594486,146.957133 C211.585791,146.957133 211.575358,146.957133 211.566663,146.957133 L210.125089,146.957133 C209.50429,146.957133 209,146.445187 209,145.814964 L209,137.099525 C209,136.469302 209.50429,135.957356 210.125089,135.957356 L218.032011,135.957356 L218.032011,135.184141 C218.032011,130.650771 220.746483,128.278166 223.426177,128.278166 C226.10761,128.278166 228.818604,130.650771 228.818604,135.184141 L228.818604,135.957356 L236.678575,135.957356 C237.299374,135.957356 237.803664,136.469302 237.803664,137.099525 L237.803664,145.814964 C237.803664,146.445187 237.299374,146.957133 236.678575,146.957133 L235.285691,146.957133 C235.276996,146.957133 235.266563,146.957133 235.257868,146.957133 C233.294614,146.957133 231.783483,147.638551 231.107038,148.826619 C230.637527,149.643967 230.635788,150.623726 231.10356,151.44637 C231.783483,152.646795 233.308526,153.335274 235.285691,153.335274 L236.678575,153.335274 C237.299374,153.335274 237.803664,153.84722 237.803664,154.479209 L237.803664,163.192882 C237.803664,163.824871 237.299374,164.336817 236.678575,164.336817 L236.678575,164.336817 Z" id="Fill-756" fill="#FFFFFF"></path>
                <path d="M219.370136,189.290019 L219.370136,190.278166 L210,190.278166 L210,181.528796 L211.488325,181.528796 C219.343075,181.528796 219.343075,172.784759 211.488325,172.784759 L210,172.784759 L210,164.030058 L219.370136,164.030058 L219.370136,162.080421 C219.370136,154.344081 228.245967,154.344081 228.245967,162.080421 L228.245967,164.030058 L237.569197,164.030058 L237.569197,172.784759 L239.111644,172.784759 C246.962785,172.784759 246.962785,181.528796 239.111644,181.528796 L237.569197,181.528796 L237.569197,190.278166 L228.245967,190.278166 L228.245967,189.290019 C228.245967,181.553678 219.370136,181.553678 219.370136,189.290019" id="Fill-757" fill="#252525"></path>
                <path d="M229.233461,189.23711 L236.203676,189.23711 L236.203676,181.728094 C236.203676,181.099416 236.725453,180.590152 237.367777,180.590152 L238.906119,180.590152 C242.141133,180.590152 243.612903,178.941189 243.612903,177.408127 C243.612903,175.875066 242.141133,174.224347 238.906119,174.224347 L237.367777,174.224347 C236.725453,174.224347 236.203676,173.715082 236.203676,173.08816 L236.203676,165.573876 L228.06756,165.573876 C227.425235,165.573876 226.903458,165.064612 226.903458,164.43769 L226.903458,162.509509 C226.903458,161.013325 226.520223,159.780554 225.796932,158.94817 C224.09846,156.997161 220.381251,157.72418 220.381251,162.509509 L220.381251,164.43769 C220.381251,165.064612 219.859475,165.573876 219.215351,165.573876 L211.036053,165.573876 L211.036053,171.950218 L211.354517,171.950218 C215.978537,171.950218 218.396701,174.696733 218.396701,177.408127 C218.396701,180.119521 215.978537,182.864281 211.354517,182.864281 L211.036053,182.864281 L211.036053,189.23711 L218.051249,189.23711 C218.117821,184.829339 220.895831,182.527113 223.641455,182.527113 C226.388879,182.527113 229.166889,184.829339 229.233461,189.23711 Z M237.730218,191.278166 L228.407776,191.278166 C227.763916,191.278166 227.240893,190.76622 227.240893,190.134231 L227.240893,189.152707 C227.240893,187.64688 226.856741,186.407618 226.131722,185.570851 C224.429191,183.606037 220.7031,184.33865 220.7031,189.152707 L220.7031,190.134231 C220.7031,190.76622 220.180077,191.278166 219.534413,191.278166 L210.166883,191.278166 C209.523023,191.278166 209,190.76622 209,190.134231 L209,181.443507 C209,180.811518 209.523023,180.299572 210.166883,180.299572 L211.654795,180.299572 C214.899344,180.299572 216.376434,178.641927 216.376434,177.100793 C216.376434,175.559659 214.899344,173.900248 211.654795,173.900248 L210.166883,173.900248 C209.523023,173.900248 209,173.388302 209,172.758078 L209,164.062058 C209,163.431835 209.523023,162.918123 210.166883,162.918123 L218.36753,162.918123 L218.36753,162.123724 C218.36753,157.590354 221.188249,155.219515 223.971095,155.219515 C226.755743,155.219515 229.576463,157.590354 229.576463,162.123724 L229.576463,162.918123 L237.730218,162.918123 C238.375881,162.918123 238.898905,163.431835 238.898905,164.062058 L238.898905,171.614144 L239.272235,171.614144 C243.903698,171.614144 246.327641,174.375122 246.327641,177.100793 C246.327641,179.826464 243.903698,182.585676 239.272235,182.585676 L238.898905,182.585676 L238.898905,190.134231 C238.898905,190.76622 238.375881,191.278166 237.730218,191.278166 L237.730218,191.278166 Z" id="Fill-758" fill="#FFFFFF"></path>
                <path d="M292.370136,189.290019 L292.370136,190.278166 L283,190.278166 L283,181.528796 L284.488325,181.528796 C292.343075,181.528796 292.343075,172.784759 284.488325,172.784759 L283,172.784759 L283,164.030058 L292.370136,164.030058 L292.370136,162.080421 C292.370136,154.344081 301.245967,154.344081 301.245967,162.080421 L301.245967,164.030058 L310.569197,164.030058 L310.569197,172.784759 L312.111644,172.784759 C319.962785,172.784759 319.962785,181.528796 312.111644,181.528796 L310.569197,181.528796 L310.569197,190.278166 L301.245967,190.278166 L301.245967,189.290019 C301.245967,181.553678 292.370136,181.553678 292.370136,189.290019" id="Fill-759" fill="#252525"></path>
                <path d="M302.619609,189.23711 L309.588025,189.23711 L309.588025,181.728094 C309.588025,181.099416 310.109801,180.590152 310.753925,180.590152 L312.290468,180.590152 C315.525482,180.590152 316.999051,178.941189 316.999051,177.408127 C316.999051,175.875066 315.525482,174.224347 312.290468,174.224347 L310.753925,174.224347 C310.109801,174.224347 309.588025,173.715082 309.588025,173.08816 L309.588025,165.573876 L301.455507,165.573876 C300.811383,165.573876 300.289606,165.064612 300.289606,164.43769 L300.289606,162.509509 C300.289606,161.013325 299.906371,159.780554 299.18308,158.94817 C297.486407,156.997161 293.767399,157.72418 293.767399,162.509509 L293.767399,164.43769 C293.767399,165.064612 293.245623,165.573876 292.603298,165.573876 L284.422201,165.573876 L284.422201,171.950218 L284.742464,171.950218 C289.364685,171.950218 291.784648,174.696733 291.784648,177.408127 C291.784648,180.119521 289.364685,182.864281 284.742464,182.864281 L284.422201,182.864281 L284.422201,189.23711 L291.437397,189.23711 C291.505768,184.829339 294.283778,182.527113 297.029403,182.527113 C299.775027,182.527113 302.553037,184.829339 302.619609,189.23711 Z M310.43907,191.278166 L301.117981,191.278166 C300.472287,191.278166 299.949238,190.76622 299.949238,190.134231 L299.949238,189.152707 C299.949238,187.64688 299.565068,186.407618 298.840014,185.570851 C297.139204,183.606037 293.411129,184.33865 293.411129,189.152707 L293.411129,190.134231 C293.411129,190.76622 292.88808,191.278166 292.244189,191.278166 L282.876207,191.278166 C282.230512,191.278166 281.707464,190.76622 281.707464,190.134231 L281.707464,181.443507 C281.707464,180.811518 282.230512,180.299572 282.876207,180.299572 L284.36419,180.299572 C287.608896,180.299572 289.086057,178.641927 289.086057,177.100793 C289.086057,175.559659 287.608896,173.900248 284.36419,173.900248 L282.876207,173.900248 C282.230512,173.900248 281.707464,173.388302 281.707464,172.758078 L281.707464,164.062058 C281.707464,163.431835 282.230512,162.918123 282.876207,162.918123 L291.075446,162.918123 L291.075446,162.123724 C291.075446,157.590354 293.896302,155.219515 296.681085,155.219515 C299.465869,155.219515 302.284921,157.590354 302.284921,162.123724 L302.284921,162.918123 L310.43907,162.918123 C311.082961,162.918123 311.606009,163.431835 311.606009,164.062058 L311.606009,171.614144 L311.979358,171.614144 C316.612848,171.614144 319.035104,174.375122 319.035104,177.100793 C319.035104,179.826464 316.612848,182.585676 311.979358,182.585676 L311.606009,182.585676 L311.606009,190.134231 C311.606009,190.76622 311.082961,191.278166 310.43907,191.278166 L310.43907,191.278166 Z" id="Fill-760" fill="#FFFFFF"></path>
                <path d="M246.784635,163.277286 L246.784635,164.278166 L237.394061,164.278166 L237.394061,155.595668 L235.902776,155.595668 C228.032408,155.622053 228.032408,146.960664 235.902776,146.960664 L237.394061,146.960664 L237.394061,138.278166 L265,138.278166 L265,146.960664 L263.552098,146.960664 C255.707037,146.960664 255.707037,155.595668 263.552098,155.595668 L265,155.595668 L265,164.278166 L255.660039,164.278166 L255.660039,163.277286 C255.660039,155.644921 246.784635,155.644921 246.784635,163.277286" id="Fill-761" fill="#252525"></path>
                <path d="M256.726278,162.915883 L263.706515,162.915883 L263.706515,156.567625 L263.430623,156.567625 C258.810792,156.567625 256.394486,153.848437 256.394486,151.162368 C256.394486,148.476298 258.810792,145.755367 263.430623,145.755367 L263.706515,145.755367 L263.706515,139.408852 L238.504811,139.408852 L238.504811,146.884876 C238.504811,147.507152 237.981879,148.012642 237.336329,148.012642 L235.848678,148.012642 C233.785802,148.012642 232.198975,148.695925 231.490312,149.882955 C231.007051,150.691739 231.010658,151.657399 231.493919,152.462697 C232.198975,153.637526 233.77318,154.310351 235.814417,154.310351 C235.823433,154.310351 235.834252,154.310351 235.845072,154.310351 L237.336329,154.310351 C237.981879,154.310351 238.504811,154.815841 238.504811,155.439859 L238.504811,162.915883 L245.535538,162.915883 C245.591438,158.537293 248.377402,156.250387 251.130908,156.250387 C253.884414,156.250387 256.670378,158.537293 256.726278,162.915883 Z M265.252216,165.602401 L255.917992,165.602401 C255.271137,165.602401 254.747148,165.09354 254.747148,164.46536 L254.747148,163.46694 C254.747148,161.975451 254.362288,160.748921 253.637738,159.920707 C253.059544,159.255678 252.293436,158.892457 251.48035,158.892457 C249.908385,158.892457 248.213553,160.324286 248.213553,163.46694 L248.213553,164.46536 C248.213553,165.09354 247.689564,165.602401 247.044516,165.602401 L237.657893,165.602401 C237.012845,165.602401 236.488856,165.09354 236.488856,164.46536 L236.488856,156.939484 L236.167236,156.939484 C236.154588,156.939484 236.14194,156.941239 236.131099,156.941239 C233.229286,156.941239 230.916509,155.851575 229.778189,153.947733 C228.867533,152.42466 228.865726,150.605044 229.770961,149.076707 C230.909281,147.155319 233.241934,146.055126 236.167236,146.055126 L236.488856,146.055126 L236.488856,138.52925 C236.488856,137.902825 237.012845,137.393964 237.657893,137.393964 L265.252216,137.393964 C265.897264,137.393964 266.421252,137.902825 266.421252,138.52925 L266.421252,147.192167 C266.421252,147.818592 265.897264,148.327453 265.252216,148.327453 L263.804923,148.327453 C260.568842,148.327453 259.094447,149.969845 259.094447,151.498182 C259.094447,153.024765 260.568842,154.667157 263.804923,154.667157 L265.252216,154.667157 C265.897264,154.667157 266.421252,155.176018 266.421252,155.804198 L266.421252,164.46536 C266.421252,165.09354 265.897264,165.602401 265.252216,165.602401 L265.252216,165.602401 Z" id="Fill-762" fill="#FFFFFF"></path>
                <path d="M252.896432,178.428704 L252.444507,178.428704 C251.821584,178.428704 251.315568,178.009722 251.315568,177.492497 C251.315568,176.976717 251.821584,176.557736 252.444507,176.557736 L252.896432,176.557736 C253.5211,176.557736 254.027115,176.976717 254.027115,177.492497 C254.027115,178.009722 253.5211,178.428704 252.896432,178.428704 Z M260.355658,178.428704 L259.90228,178.428704 C259.278014,178.428704 258.772324,178.009722 258.772324,177.492497 C258.772324,176.976717 259.278014,176.557736 259.90228,176.557736 L260.355658,176.557736 C260.97818,176.557736 261.483871,176.976717 261.483871,177.492497 C261.483871,178.009722 260.97818,178.428704 260.355658,178.428704 Z M267.132783,178.428704 L266.679405,178.428704 C266.056883,178.428704 265.551192,178.009722 265.551192,177.492497 C265.551192,176.976717 266.056883,176.557736 266.679405,176.557736 L267.132783,176.557736 C267.755305,176.557736 268.26274,176.976717 268.26274,177.492497 C268.26274,178.009722 267.755305,178.428704 267.132783,178.428704 Z M274.590556,178.428704 L274.138632,178.428704 C273.513964,178.428704 273.007948,178.009722 273.007948,177.492497 C273.007948,176.976717 273.513964,176.557736 274.138632,176.557736 L274.590556,176.557736 C275.213479,176.557736 275.719495,176.976717 275.719495,177.492497 C275.719495,178.009722 275.213479,178.428704 274.590556,178.428704 L274.590556,178.428704 Z" id="Fill-763" fill="#FFFFFF"></path>
                <path d="M220.929206,78.6631442 C211.385176,78.6631442 203.620829,86.3867474 203.620829,95.8755044 C203.620829,105.364261 211.385176,113.085753 220.929206,113.085753 L318.907364,113.085753 C328.453518,113.085753 336.219988,105.364261 336.219988,95.8755044 C336.219988,86.3867474 328.453518,78.6631442 318.907364,78.6631442 C314.368959,78.6631442 310.079029,80.4008493 306.827603,83.5489883 C306.487807,83.8783711 305.999349,84.0135025 305.536377,83.8973739 C305.075528,83.7833568 304.703876,83.4391941 304.557339,82.9894599 C299.284124,66.7230194 284.178052,55.7942686 266.971613,55.7942686 C251.052154,55.7942686 236.767964,65.2154599 230.575175,79.7948695 C230.428638,80.1453666 230.141935,80.4156293 229.783025,80.5486493 C229.430486,80.6774464 229.033349,80.6584435 228.691429,80.4874179 C226.272504,79.2775697 223.662443,78.6631442 220.929206,78.6631442 Z M318.874556,115.813919 L220.962016,115.813919 C209.909052,115.813919 200.914724,106.869548 200.914724,95.8732694 C200.914724,84.8769911 209.909052,75.9305085 220.962016,75.9305085 C223.638243,75.9305085 226.214721,76.4392632 228.642638,77.4441065 C235.538007,62.5867813 250.430221,53.0661026 266.973588,53.0661026 C284.673612,53.0661026 300.291654,63.8871667 306.469684,80.2053144 C309.99271,77.4335514 314.326457,75.9305085 318.874556,75.9305085 C329.931765,75.9305085 338.926094,84.8769911 338.926094,95.8732694 C338.926094,106.869548 329.931765,115.813919 318.874556,115.813919 L318.874556,115.813919 Z" id="Fill-63" fill="#FFFFFF"></path>
                <path d="M294.650826,88.2781659 C294.080729,88.2781659 293.552244,87.9056603 293.369147,87.3202943 C290.460402,78.0885407 283.234313,71.2408231 274.035771,69.0015322 C273.311705,68.8269867 272.864366,68.0819754 273.03706,67.34335 C273.207673,66.6004674 273.93798,66.1321746 274.659965,66.3194917 C284.782315,68.782286 292.73663,76.3175426 295.934586,86.4752387 C296.163457,87.1989639 295.772295,87.9759042 295.064875,88.2100506 C294.927552,88.2547513 294.788149,88.2781659 294.650826,88.2781659" id="Fill-64" fill="#FFFFFF"></path>
                <path d="M2.70548278,165.436514 C5.2687258,167.521192 19.0666993,169.63994 40.90442,169.63994 C40.9108228,169.63994 40.9172256,169.63994 40.9214941,169.63994 C62.7698862,169.63994 76.5721282,167.521192 79.1353712,165.436514 L79.1353712,44.8361014 C75.7184252,41.5312804 59.9249212,39.167652 40.9214941,39.167652 C40.9172256,39.167652 40.9150913,39.167652 40.9129571,39.167652 C21.9116643,39.167652 6.12029447,41.5312804 2.70548278,44.8361014 L2.70548278,165.436514 Z M40.9150992,172.358112 C40.910837,172.358112 40.9087059,172.358112 40.9044437,172.358112 C34.8180057,172.358112 4.25155596,172.089968 0.274912641,166.771776 C0.0958997586,166.533426 0,166.246129 0,165.948191 L0,44.346962 C0,44.0426397 0.102293076,43.7447018 0.289830381,43.5020952 C5.50251504,36.7899798 35.0439029,36.4494793 40.9129681,36.4494793 L40.9172303,36.4494793 C46.8012133,36.4494793 76.3383389,36.7899798 81.5510236,43.5020952 C81.7385609,43.7447018 81.840854,44.0426397 81.840854,44.346962 L81.840854,165.948191 C81.840854,166.246129 81.7449542,166.535554 81.5659413,166.771776 C77.5871669,172.089968 47.0335038,172.358112 40.9150992,172.358112 L40.9150992,172.358112 Z" id="Fill-80" fill="#FFFFFF"></path>
                <path d="M2.70548278,146.387513 L79.1353712,146.387513 L79.1353712,55.111578 L2.70548278,55.111578 L2.70548278,146.387513 Z M80.4598974,149.112168 L1.38095652,149.112168 C0.618020666,149.112168 0,148.493816 0,147.73047 L0,53.7664887 C0,53.0052756 0.618020666,52.3869232 1.38095652,52.3869232 L80.4598974,52.3869232 C81.2228333,52.3869232 81.840854,53.0052756 81.840854,53.7664887 L81.840854,147.73047 C81.840854,148.493816 81.2228333,149.112168 80.4598974,149.112168 L80.4598974,149.112168 Z" id="Fill-82" fill="#FFFFFF"></path>
                <path d="M40.9231937,155.912545 C38.5517169,155.912545 36.6232632,157.842553 36.6232632,160.213477 C36.6232632,162.582397 38.5517169,164.510401 40.9231937,164.510401 C43.2926658,164.510401 45.2211195,162.582397 45.2211195,160.213477 C45.2211195,157.842553 43.2926658,155.912545 40.9231937,155.912545 Z M40.9232006,167.155895 C37.0942311,167.155895 33.977769,164.040999 33.977769,160.213492 C33.977769,156.381947 37.0942311,153.26705 40.9232006,153.26705 C44.75217,153.26705 47.8666137,156.381947 47.8666137,160.213492 C47.8666137,164.040999 44.75217,167.155895 40.9232006,167.155895 L40.9232006,167.155895 Z" id="Fill-84" fill="#FFFFFF"></path>
                <path d="M10.0087336,70.8257642 L17.439738,70.8257642 L17.439738,63.3947598 L10.0087336,63.3947598 L10.0087336,70.8257642 Z M18.7218564,73.5279476 L8.72661519,73.5279476 C7.94207312,73.5279476 7.30655022,72.8923162 7.30655022,72.1076401 L7.30655022,62.1128839 C7.30655022,61.3282078 7.94207312,60.6925764 8.72661519,60.6925764 L18.7218564,60.6925764 C19.5063985,60.6925764 20.1419214,61.3282078 20.1419214,62.1128839 L20.1419214,72.1076401 C20.1419214,72.8923162 19.5063985,73.5279476 18.7218564,73.5279476 L18.7218564,73.5279476 Z" id="Fill-86" fill="#FFFFFF"></path>
                <path d="M29.0484716,70.8257642 L36.479476,70.8257642 L36.479476,63.3947598 L29.0484716,63.3947598 L29.0484716,70.8257642 Z M37.7613519,73.5279476 L27.7665957,73.5279476 C26.9819196,73.5279476 26.3462882,72.8923162 26.3462882,72.1076401 L26.3462882,62.1128839 C26.3462882,61.3282078 26.9819196,60.6925764 27.7665957,60.6925764 L37.7613519,60.6925764 C38.546028,60.6925764 39.1816594,61.3282078 39.1816594,62.1128839 L39.1816594,72.1076401 C39.1816594,72.8923162 38.546028,73.5279476 37.7613519,73.5279476 L37.7613519,73.5279476 Z" id="Fill-88" fill="#FFFFFF"></path>
                <path d="M47.0882096,70.8257642 L54.519214,70.8257642 L54.519214,63.3947598 L47.0882096,63.3947598 L47.0882096,70.8257642 Z M55.8010899,73.5279476 L45.8063337,73.5279476 C45.0216576,73.5279476 44.3860262,72.8923162 44.3860262,72.1076401 L44.3860262,62.1128839 C44.3860262,61.3282078 45.0216576,60.6925764 45.8063337,60.6925764 L55.8010899,60.6925764 C56.585766,60.6925764 57.2213974,61.3282078 57.2213974,62.1128839 L57.2213974,72.1076401 C57.2213974,72.8923162 56.585766,73.5279476 55.8010899,73.5279476 L55.8010899,73.5279476 Z" id="Fill-90" fill="#FFFFFF"></path>
                <path d="M64.0768559,70.8257642 L71.5078603,70.8257642 L71.5078603,63.3947598 L64.0768559,63.3947598 L64.0768559,70.8257642 Z M72.7894936,73.5279476 L62.7952225,73.5279476 C62.0104125,73.5279476 61.3746725,72.8923162 61.3746725,72.1076401 L61.3746725,62.1128839 C61.3746725,61.3282078 62.0104125,60.6925764 62.7952225,60.6925764 L72.7894936,60.6925764 C73.5743037,60.6925764 74.2100437,61.3282078 74.2100437,62.1128839 L74.2100437,72.1076401 C74.2100437,72.8923162 73.5743037,73.5279476 72.7894936,73.5279476 L72.7894936,73.5279476 Z" id="Fill-92" fill="#FFFFFF"></path>
                <path d="M10.0087336,87.8144105 L17.439738,87.8144105 L17.439738,80.3834061 L10.0087336,80.3834061 L10.0087336,87.8144105 Z M18.7218564,90.5165939 L8.72661519,90.5165939 C7.94207312,90.5165939 7.30655022,89.8808539 7.30655022,89.098236 L7.30655022,79.0995805 C7.30655022,78.3169627 7.94207312,77.6812227 8.72661519,77.6812227 L18.7218564,77.6812227 C19.5063985,77.6812227 20.1419214,78.3169627 20.1419214,79.0995805 L20.1419214,89.098236 C20.1419214,89.8808539 19.5063985,90.5165939 18.7218564,90.5165939 L18.7218564,90.5165939 Z" id="Fill-94" fill="#FFFFFF"></path>
                <path d="M29.0484716,87.8144105 L36.479476,87.8144105 L36.479476,80.3834061 L29.0484716,80.3834061 L29.0484716,87.8144105 Z M37.7613519,90.5165939 L27.7665957,90.5165939 C26.9819196,90.5165939 26.3462882,89.8808539 26.3462882,89.098236 L26.3462882,79.0995805 C26.3462882,78.3169627 26.9819196,77.6812227 27.7665957,77.6812227 L37.7613519,77.6812227 C38.546028,77.6812227 39.1816594,78.3169627 39.1816594,79.0995805 L39.1816594,89.098236 C39.1816594,89.8808539 38.546028,90.5165939 37.7613519,90.5165939 L37.7613519,90.5165939 Z" id="Fill-96" fill="#FFFFFF"></path>
                <path d="M47.0882096,87.8144105 L54.519214,87.8144105 L54.519214,80.3834061 L47.0882096,80.3834061 L47.0882096,87.8144105 Z M55.8010899,90.5165939 L45.8063337,90.5165939 C45.0216576,90.5165939 44.3860262,89.8808539 44.3860262,89.098236 L44.3860262,79.0995805 C44.3860262,78.3169627 45.0216576,77.6812227 45.8063337,77.6812227 L55.8010899,77.6812227 C56.585766,77.6812227 57.2213974,78.3169627 57.2213974,79.0995805 L57.2213974,89.098236 C57.2213974,89.8808539 56.585766,90.5165939 55.8010899,90.5165939 L55.8010899,90.5165939 Z" id="Fill-98" fill="#FFFFFF"></path>
                <path d="M10.0405,137.022707 L71.4815481,137.022707 L71.4815481,100.874509 L10.0405,100.874509 L10.0405,137.022707 Z M72.812881,140.432915 L8.70916715,140.432915 C7.9360527,140.432915 7.3097868,139.803133 7.3097868,139.027851 L7.3097868,99.5535788 C7.3097868,98.7761243 7.9360527,98.1463428 8.70916715,98.1463428 L72.812881,98.1463428 C73.5859954,98.1463428 74.2122613,98.7761243 74.2122613,99.5535788 L74.2122613,139.027851 C74.2122613,139.803133 73.5859954,140.432915 72.812881,140.432915 L72.812881,140.432915 Z" id="Fill-100" fill="#FFFFFF"></path>
                <polyline id="Fill-101" fill="#FFFFFF" points="40 45.7781659 43 45.7781659 40 45.7781659"></polyline>
                <path d="M42.3848074,47.2781659 L38.617689,47.2781659 C37.7239658,47.2781659 37,46.6063513 37,45.7793242 C37,44.9499806 37.7239658,44.2781659 38.617689,44.2781659 L42.3848074,44.2781659 C43.2760342,44.2781659 44,44.9499806 44,45.7793242 C44,46.6063513 43.2760342,47.2781659 42.3848074,47.2781659" id="Fill-102" fill="#FFFFFF"></path>
                <path d="M17.6277935,128.020064 L33.7675315,128.020064 L33.7675315,108.191289 L17.6277935,108.191289 L17.6277935,128.020064 Z M35.7259048,130.755068 L16.3419093,130.755068 C15.5662027,130.755068 14.9378371,130.140505 14.9378371,129.383958 L14.9378371,106.827396 C14.9378371,106.070848 15.5662027,105.456286 16.3419093,105.456286 L35.7259048,105.456286 C36.5016113,105.456286 37.1299769,106.070848 37.1299769,106.827396 L37.1299769,129.383958 C37.1299769,130.140505 36.5016113,130.755068 35.7259048,130.755068 L35.7259048,130.755068 Z" id="Fill-104" fill="#FFFFFF"></path>
                <polyline id="Fill-105" fill="#FFFFFF" points="44 109.778166 61 109.778166 44 109.778166"></polyline>
                <path d="M60.5778558,111.278166 L43.4221442,111.278166 C42.6364534,111.278166 42,110.606351 42,109.779324 C42,108.949981 42.6364534,108.278166 43.4221442,108.278166 L60.5778558,108.278166 C61.3635466,108.278166 62,108.949981 62,109.779324 C62,110.606351 61.3635466,111.278166 60.5778558,111.278166" id="Fill-106" fill="#FFFFFF"></path>
                <polyline id="Fill-107" fill="#FFFFFF" points="44 117.778166 61 117.778166 44 117.778166"></polyline>
                <path d="M60.5778558,119.278166 L43.4221442,119.278166 C42.6364534,119.278166 42,118.606351 42,117.779324 C42,116.949981 42.6364534,116.278166 43.4221442,116.278166 L60.5778558,116.278166 C61.3635466,116.278166 62,116.949981 62,117.779324 C62,118.606351 61.3635466,119.278166 60.5778558,119.278166" id="Fill-108" fill="#FFFFFF"></path>
                <polyline id="Fill-109" fill="#FFFFFF" points="44 126.778166 49 126.778166 44 126.778166"></polyline>
                <path d="M49.6142743,128.278166 L44.3857257,128.278166 C43.620155,128.278166 43,127.606351 43,126.779324 C43,125.949981 43.620155,125.278166 44.3857257,125.278166 L49.6142743,125.278166 C50.379845,125.278166 51,125.949981 51,126.779324 C51,127.606351 50.379845,128.278166 49.6142743,128.278166" id="Fill-110" fill="#FFFFFF"></path>
                <path d="M227.099894,46.6793557 C225.508216,24.1010973 206.627261,6.27816594 183.571344,6.27816594 C160.291997,6.27816594 141.276983,24.4404605 140.000236,47.3199037 C136.195531,44.9719345 131.712023,43.6187237 126.909327,43.6187237 C113.150254,43.6187237 102,54.7349898 102,68.4473843 C102,82.1640209 113.150254,93.2781659 126.909327,93.2781659 C137.408441,93.2781659 228.932025,93.2781659 239.090673,93.2781659 C252.847618,93.2781659 264,82.1640209 264,68.4473843 C264,54.7349898 252.847618,43.6187237 239.090673,43.6187237 C234.74335,43.6187237 230.657761,44.7301382 227.099894,46.6793557" id="Fill-341" fill="#252525"></path>
                <path d="M127.126475,45.4631178 C114.23175,45.4631178 103.739585,56.0444926 103.739585,69.050988 C103.739585,82.0574834 114.23175,92.6409911 127.126475,92.6409911 L238.623438,92.6409911 C251.520278,92.6409911 262.010328,82.0574834 262.010328,69.050988 C262.010328,56.0444926 251.520278,45.4631178 238.623438,45.4631178 C234.687555,45.4631178 230.796085,46.4698522 227.365669,48.3702764 C226.955373,48.598498 226.460479,48.598498 226.050183,48.3745423 C225.639887,48.1463207 225.371291,47.7261371 225.339567,47.2568966 C223.802013,25.1983241 205.397897,7.9153408 183.442815,7.9153408 C161.164149,7.9153408 142.740999,25.4713368 141.50588,47.8797068 C141.478386,48.3681435 141.199215,48.8032575 140.769885,49.0272132 C140.342669,49.2575677 139.826626,49.2319728 139.41633,48.9781563 C135.734238,46.6810104 131.483229,45.4631178 127.126475,45.4631178 Z M238.59929,95.3522119 L127.150623,95.3522119 C112.749964,95.3522119 101.034103,83.5449487 101.034103,69.0298127 C101.034103,54.5189377 112.749964,42.7116746 127.150623,42.7116746 C131.277177,42.7116746 135.31917,43.6874462 138.959501,45.5473778 C141.312398,22.7530963 160.448447,5.20411999 183.442569,5.20411999 C206.14073,5.20411999 225.270436,22.5379152 227.864331,45.0296649 C231.223498,43.5084838 234.895539,42.7116746 238.59929,42.7116746 C252.999949,42.7116746 264.715811,54.5189377 264.715811,69.0298127 C264.715811,83.5449487 252.999949,95.3522119 238.59929,95.3522119 L238.59929,95.3522119 Z" id="Fill-342" fill="#FFFFFF"></path>
                <path d="M241.460487,84.2781659 C240.653613,84.2781659 240,83.6246448 240,82.8201378 C240,82.0156307 240.653613,81.3598561 241.460487,81.3598561 C247.865897,81.3598561 253.079025,76.1452082 253.079025,69.7361941 C253.079025,68.9316871 253.732638,68.2781659 254.539513,68.2781659 C255.346387,68.2781659 256,68.9316871 256,69.7361941 C256,77.7564758 249.477391,84.2781659 241.460487,84.2781659" id="Fill-343" fill="#FFFFFF"></path>
                <path d="M152.407405,41.2781659 C152.266316,41.2781659 152.123057,41.2567023 151.979798,41.2094824 C151.241797,40.9776755 150.831555,40.1964002 151.065979,39.4644912 C154.682185,28.2132688 163.707505,19.5634355 175.209471,16.3310164 C175.953984,16.1228194 176.733227,16.5477988 176.945945,17.2882932 C177.158663,18.0266413 176.724544,18.7950384 175.977861,19.0053817 C165.387543,21.9823839 157.076348,29.9453818 153.74666,40.3058646 C153.557818,40.8982601 153.004317,41.2781659 152.407405,41.2781659" id="Fill-344" fill="#FFFFFF"></path>
                <path d="M112.346041,70.2781659 C111.602395,70.2781659 111,69.6756974 111,68.9319604 C111,60.3000406 118.023094,53.2781659 126.653959,53.2781659 C127.397605,53.2781659 128,53.8806345 128,54.6243715 C128,55.366031 127.397605,55.9684996 126.653959,55.9684996 C119.506232,55.9684996 113.692082,61.7854371 113.692082,68.9319604 C113.692082,69.6756974 113.089687,70.2781659 112.346041,70.2781659" id="Fill-345" fill="#FFFFFF"></path>
                <path d="M117.526201,3.37772926 C116.664928,3.37772926 115.967249,2.7469878 115.967249,1.97052331 L115.967249,1.40720594 C115.967249,0.630741458 116.664928,-2.27373675e-13 117.526201,-2.27373675e-13 C118.387474,-2.27373675e-13 119.085153,0.630741458 119.085153,1.40720594 L119.085153,1.97052331 C119.085153,2.7469878 118.387474,3.37772926 117.526201,3.37772926 Z M117.526201,12.8353712 C116.664928,12.8353712 115.967249,12.2050356 115.967249,11.4268972 L115.967249,10.8639423 C115.967249,10.0879775 116.664928,9.45764192 117.526201,9.45764192 C118.387474,9.45764192 119.085153,10.0879775 119.085153,10.8639423 L119.085153,11.4268972 C119.085153,12.2050356 118.387474,12.8353712 117.526201,12.8353712 Z M117.526201,21.6174672 C116.664928,21.6174672 115.967249,20.9871317 115.967249,20.2111668 L115.967249,19.6460384 C115.967249,18.8700736 116.664928,18.239738 117.526201,18.239738 C118.387474,18.239738 119.085153,18.8700736 119.085153,19.6460384 L119.085153,20.2111668 C119.085153,20.9871317 118.387474,21.6174672 117.526201,21.6174672 Z M117.526201,30.3995633 C116.664928,30.3995633 115.967249,29.7696331 115.967249,28.9919951 L115.967249,28.4272301 C115.967249,27.6517643 116.664928,27.0218341 117.526201,27.0218341 C118.387474,27.0218341 119.085153,27.6517643 119.085153,28.4272301 L119.085153,28.9919951 C119.085153,29.7696331 118.387474,30.3995633 117.526201,30.3995633 Z M117.526201,39.1816594 C116.664928,39.1816594 115.967249,38.5513238 115.967249,37.775359 L115.967249,37.2124041 C115.967249,36.4364393 116.664928,35.8039301 117.526201,35.8039301 C118.387474,35.8039301 119.085153,36.4364393 119.085153,37.2124041 L119.085153,37.775359 C119.085153,38.5513238 118.387474,39.1816594 117.526201,39.1816594 L117.526201,39.1816594 Z" id="Fill-348" fill="#FFFFFF"></path>
                <path d="M170.762555,104.193013 C169.509594,104.193013 168.489083,105.2131 168.489083,106.467429 C168.489083,107.719869 169.509594,108.739956 170.762555,108.739956 C172.017405,108.739956 173.036026,107.719869 173.036026,106.467429 C173.036026,105.2131 172.017405,104.193013 170.762555,104.193013 Z M170.762555,111.33821 C168.076185,111.33821 165.89083,109.154367 165.89083,106.46746 C165.89083,103.780553 168.076185,101.59476 170.762555,101.59476 C173.448924,101.59476 175.634279,103.780553 175.634279,106.46746 C175.634279,109.154367 173.448924,111.33821 170.762555,111.33821 L170.762555,111.33821 Z" id="Fill-354" fill="#FFFFFF"></path>
                <path d="M170.762555,123.231223 C169.509594,123.231223 168.489083,124.25131 168.489083,125.50375 C168.489083,126.758079 169.509594,127.778166 170.762555,127.778166 C172.017405,127.778166 173.036026,126.758079 173.036026,125.50375 C173.036026,124.25131 172.017405,123.231223 170.762555,123.231223 Z M170.762555,130.376419 C168.076185,130.376419 165.89083,128.190626 165.89083,125.503719 C165.89083,122.816812 168.076185,120.632969 170.762555,120.632969 C173.448924,120.632969 175.634279,122.816812 175.634279,125.503719 C175.634279,128.190626 173.448924,130.376419 170.762555,130.376419 L170.762555,130.376419 Z" id="Fill-356" fill="#FFFFFF"></path>
                <path d="M170.762555,141.269432 C169.509594,141.269432 168.489083,142.289519 168.489083,143.543848 C168.489083,144.796289 169.509594,145.816376 170.762555,145.816376 C172.017405,145.816376 173.036026,144.796289 173.036026,143.543848 C173.036026,142.289519 172.017405,141.269432 170.762555,141.269432 Z M170.762555,148.414629 C168.076185,148.414629 165.89083,146.230786 165.89083,143.543879 C165.89083,140.856972 168.076185,138.671179 170.762555,138.671179 C173.448924,138.671179 175.634279,140.856972 175.634279,143.543879 C175.634279,146.230786 173.448924,148.414629 170.762555,148.414629 L170.762555,148.414629 Z" id="Fill-358" fill="#FFFFFF"></path>
                <path d="M170.762555,159.307642 C169.509594,159.307642 168.489083,160.32584 168.489083,161.580169 C168.489083,162.834498 169.509594,163.854585 170.762555,163.854585 C172.017405,163.854585 173.036026,162.834498 173.036026,161.580169 C173.036026,160.32584 172.017405,159.307642 170.762555,159.307642 Z M170.762555,166.452838 C168.076185,166.452838 165.89083,164.267046 165.89083,161.580139 C165.89083,158.893232 168.076185,156.709389 170.762555,156.709389 C173.448924,156.709389 175.634279,158.893232 175.634279,161.580139 C175.634279,164.267046 173.448924,166.452838 170.762555,166.452838 L170.762555,166.452838 Z" id="Fill-360" fill="#FFFFFF"></path>
                <path d="M137.847552,107.851674 C133.837666,107.851674 130.573508,111.11631 130.573508,115.126783 C130.573508,119.137256 133.837666,122.401892 137.847552,122.401892 C141.859568,122.401892 145.123726,119.137256 145.123726,115.126783 C145.123726,111.11631 141.859568,107.851674 137.847552,107.851674 Z M137.847551,125.173362 C132.308655,125.173362 127.802038,120.667443 127.802038,115.126783 C127.802038,109.586123 132.308655,105.080204 137.847551,105.080204 C143.388579,105.080204 147.895197,109.586123 147.895197,115.126783 C147.895197,120.667443 143.388579,125.173362 137.847551,125.173362 L137.847551,125.173362 Z" id="Fill-362" fill="#FFFFFF"></path>
                <path d="M41.0756914,183.119505 C37.0630873,183.119505 33.8005822,186.384141 33.8005822,190.394614 C33.8005822,194.405087 37.0630873,197.669723 41.0756914,197.669723 C45.0882956,197.669723 48.3508006,194.405087 48.3508006,190.394614 C48.3508006,186.384141 45.0882956,183.119505 41.0756914,183.119505 Z M41.0756914,200.441194 C35.5362081,200.441194 31.0291121,195.93314 31.0291121,190.394614 C31.0291121,184.853955 35.5362081,180.348035 41.0756914,180.348035 C46.6151747,180.348035 51.1222707,184.853955 51.1222707,190.394614 C51.1222707,195.93314 46.6151747,200.441194 41.0756914,200.441194 L41.0756914,200.441194 Z" id="Fill-364" fill="#FFFFFF"></path>
                <path d="M90.0010572,256.278166 C76.9420422,256.278166 64.7584209,252.132897 55.6936545,244.600666 C45.4278646,236.075011 40,223.92304 40,209.462257 L40,199.030245 C40,198.274056 40.6131986,197.659785 41.3701816,197.659785 C42.1271647,197.659785 42.7403633,198.274056 42.7403633,199.030245 L42.7403633,209.462257 C42.7403633,239.741572 67.2387034,253.535129 90.0010572,253.535129 C112.761297,253.535129 137.259637,239.741572 137.259637,209.462257 L137.259637,123.650743 C137.259637,122.892437 137.872835,122.278166 138.629818,122.278166 C139.386801,122.278166 140,122.892437 140,123.650743 L140,209.462257 C140,241.628866 114.082845,256.278166 90.0010572,256.278166" id="Fill-365" fill="#FFFFFF"></path>
                <polygon id="Fill-366" fill="#252525" points="161 200.278166 188 200.278166 188 177.278166 161 177.278166"></polygon>
                <path d="M162.018796,199.11048 L186.419784,199.11048 L186.419784,178.844105 L162.018796,178.844105 L162.018796,199.11048 Z M187.767744,201.812664 L160.670836,201.812664 C159.917677,201.812664 159.307575,201.198987 159.307575,200.441413 L159.307575,177.513172 C159.307575,176.755598 159.917677,176.141921 160.670836,176.141921 L187.767744,176.141921 C188.520903,176.141921 189.131004,176.755598 189.131004,177.513172 L189.131004,200.441413 C189.131004,201.198987 188.520903,201.812664 187.767744,201.812664 L187.767744,201.812664 Z" id="Fill-367" fill="#FFFFFF"></path>
                <polygon id="Fill-368" fill="#252525" points="150 215.278166 177 215.278166 177 192.278166 150 192.278166"></polygon>
                <path d="M151.608696,213.672489 L176.009683,213.672489 L176.009683,193.406114 L151.608696,193.406114 L151.608696,213.672489 Z M177.357739,216.374672 L150.260639,216.374672 C149.507533,216.374672 148.897475,215.760996 148.897475,215.003422 L148.897475,192.073065 C148.897475,191.317607 149.507533,190.70393 150.260639,190.70393 L177.357739,190.70393 C178.110846,190.70393 178.720904,191.317607 178.720904,192.073065 L178.720904,215.003422 C178.720904,215.760996 178.110846,216.374672 177.357739,216.374672 L177.357739,216.374672 Z" id="Fill-369" fill="#FFFFFF"></path>
                <polyline id="Fill-370" fill="#FFFFFF" points="156 199.778166 172 199.778166 156 199.778166"></polyline>
                <path d="M171.603114,201.278166 L156.396886,201.278166 C155.62515,201.278166 155,200.606351 155,199.777008 C155,198.949981 155.62515,198.278166 156.396886,198.278166 L171.603114,198.278166 C172.37485,198.278166 173,198.949981 173,199.777008 C173,200.606351 172.37485,201.278166 171.603114,201.278166" id="Fill-371" fill="#FFFFFF"></path>
                <polyline id="Fill-372" fill="#FFFFFF" points="157 205.778166 165 205.778166 157 205.778166"></polyline>
                <path d="M164.613904,207.278166 L157.386096,207.278166 C156.620321,207.278166 156,206.606351 156,205.777008 C156,204.949981 156.620321,204.278166 157.386096,204.278166 L164.613904,204.278166 C165.379679,204.278166 166,204.949981 166,205.777008 C166,206.606351 165.379679,207.278166 164.613904,207.278166" id="Fill-373" fill="#FFFFFF"></path>
                <path d="M96.4954652,170.320155 L108.047699,170.320155 L108.047699,158.767921 L96.4954652,158.767921 L96.4954652,170.320155 Z M109.344307,173.038327 L95.1988576,173.038327 C94.4134868,173.038327 93.7772926,172.402133 93.7772926,171.616762 L93.7772926,157.469119 C93.7772926,156.685942 94.4134868,156.049748 95.1988576,156.049748 L109.344307,156.049748 C110.129677,156.049748 110.765872,156.685942 110.765872,157.469119 L110.765872,171.616762 C110.765872,172.402133 110.129677,173.038327 109.344307,173.038327 L109.344307,173.038327 Z" id="Fill-375" fill="#FFFFFF"></path>
                <path d="M114.024017,145.816376 L118.570961,145.816376 L118.570961,141.269432 L114.024017,141.269432 L114.024017,145.816376 Z M119.828714,148.414629 L112.766264,148.414629 C112.025679,148.414629 111.425764,147.814714 111.425764,147.076197 L111.425764,140.011679 C111.425764,139.271094 112.025679,138.671179 112.766264,138.671179 L119.828714,138.671179 C120.569299,138.671179 121.169214,139.271094 121.169214,140.011679 L121.169214,147.076197 C121.169214,147.814714 120.569299,148.414629 119.828714,148.414629 L119.828714,148.414629 Z" id="Fill-377" fill="#FFFFFF"></path>
                <path d="M307.631134,124.278166 L297.366753,124.278166 C296.61261,124.278166 296,123.606351 296,122.779324 C296,121.949981 296.61261,121.278166 297.366753,121.278166 L307.631134,121.278166 C308.38739,121.278166 309,121.949981 309,122.779324 C309,123.606351 308.38739,124.278166 307.631134,124.278166" id="Fill-402" fill="#FFFFFF"></path>
                <path d="M308.564625,131.278166 L291.43316,131.278166 C290.642375,131.278166 290,130.606351 290,129.777008 C290,128.949981 290.642375,128.278166 291.43316,128.278166 L308.564625,128.278166 C309.357625,128.278166 310,128.949981 310,129.777008 C310,130.606351 309.357625,131.278166 308.564625,131.278166" id="Fill-403" fill="#FFFFFF"></path>
                <polyline id="Fill-426" fill="#FFFFFF" points="339.5 143.278166 339.5 150.278166 339.5 143.278166"></polyline>
                <path d="M339.498842,151.278166 C338.671815,151.278166 338,150.69461 338,149.978701 L338,143.577631 C338,142.859717 338.671815,142.278166 339.498842,142.278166 C340.328185,142.278166 341,142.859717 341,143.577631 L341,149.978701 C341,150.69461 340.328185,151.278166 339.498842,151.278166" id="Fill-427" fill="#FFFFFF"></path>
                <polyline id="Fill-428" fill="#FFFFFF" points="339.5 160.278166 339.5 167.278166 339.5 160.278166"></polyline>
                <path d="M339.498842,168.278166 C338.671815,168.278166 338,167.696356 338,166.980128 L338,160.578211 C338,159.859976 338.671815,159.278166 339.498842,159.278166 C340.328185,159.278166 341,159.859976 341,160.578211 L341,166.980128 C341,167.696356 340.328185,168.278166 339.498842,168.278166" id="Fill-429" fill="#FFFFFF"></path>
                <polyline id="Fill-430" fill="#FFFFFF" points="351 154.778166 344 154.778166 351 154.778166"></polyline>
                <path d="M350.701114,156.278166 L344.298886,156.278166 C343.581292,156.278166 343,155.606351 343,154.777008 C343,153.949981 343.581292,153.278166 344.298886,153.278166 L350.701114,153.278166 C351.418708,153.278166 352,153.949981 352,154.777008 C352,155.606351 351.418708,156.278166 350.701114,156.278166" id="Fill-431" fill="#FFFFFF"></path>
                <polyline id="Fill-432" fill="#FFFFFF" points="334 154.778166 327 154.778166 334 154.778166"></polyline>
                <path d="M333.701403,156.278166 L327.298597,156.278166 C326.581162,156.278166 326,155.606351 326,154.777008 C326,153.949981 326.581162,153.278166 327.298597,153.278166 L333.701403,153.278166 C334.418838,153.278166 335,153.949981 335,154.777008 C335,155.606351 334.418838,156.278166 333.701403,156.278166" id="Fill-433" fill="#FFFFFF"></path>
                <polyline id="Fill-436" fill="#FFFFFF" points="86.5 24.2781659 86.5 27.2781659 86.5 24.2781659"></polyline>
                <path d="M86.5,28.2781659 C85.6712963,28.2781659 85,27.70459 85,26.9965204 L85,24.5598115 C85,23.8517419 85.6712963,23.2781659 86.5,23.2781659 C87.3287037,23.2781659 88,23.8517419 88,24.5598115 L88,26.9965204 C88,27.70459 87.3287037,28.2781659 86.5,28.2781659" id="Fill-437" fill="#FFFFFF"></path>
            </g>
        </g>
    </g>
</svg>