<?xml version="1.0" encoding="UTF-8"?>
<svg width="352px" height="283px" viewBox="0 0 352 283" version="1.1" xmlns="http://www.w3.org/2000/svg" xmlns:xlink="http://www.w3.org/1999/xlink">
    <title>Group 6</title>
    <g id="Page-1" stroke="none" stroke-width="1" fill="none" fill-rule="evenodd">
        <g id="Home-1920" transform="translate(-320.000000, -1256.000000)">
            <g id="Group-6" transform="translate(320.000000, 1256.000000)">
                <path d="M97.5590031,175.567203 L97.5590031,202.546642 C97.5590031,203.118014 97.1827034,203.621931 96.634098,203.780646 C82.4634428,207.913168 72.5667602,221.138033 72.5667602,235.938138 C72.5667602,254.406525 87.5632943,269.430813 106,269.430813 C124.436706,269.430813 139.43324,254.406525 139.43324,235.938138 C139.43324,221.153905 129.550421,207.934991 115.399571,203.790565 C114.850966,203.629867 114.474666,203.127933 114.474666,202.556562 L114.474666,175.567203 L97.5590031,175.567203 Z M106,272 C86.1491995,272 70,255.82305 70,235.938138 C70,220.326607 80.2294108,206.341897 94.9922429,201.596341 L94.9922429,174.283602 C94.9922429,173.575339 95.5665951,173 96.275623,173 L115.758046,173 C116.467074,173 117.041426,173.575339 117.041426,174.283602 L117.041426,201.60626 C131.784453,206.36372 142,220.342478 142,235.938138 C142,255.82305 125.8508,272 106,272 L106,272 Z" id="Fill-910" fill="#FFFFFF"></path>
                <path d="M85.6699507,217.604215 C81.7211823,222.319955 79.5536946,228.276467 79.5536946,234.444133 C79.5536946,248.754242 90.9783251,260.395785 105.021675,260.395785 C119.041379,260.395785 130.448276,248.754242 130.448276,234.444133 C130.448276,228.26038 128.266995,222.303867 124.294581,217.604215 L85.6699507,217.604215 Z M105.021675,263 C89.5694581,263 77,250.190079 77,234.444133 C77,227.443923 79.5359606,220.691064 84.1408867,215.434371 C84.3812808,215.156856 84.7280788,215 85.0906404,215 L124.871921,215 C125.234483,215 125.57734,215.154845 125.819704,215.430349 C130.450246,220.668943 133,227.423813 133,234.444133 C133,250.190079 120.448276,263 105.021675,263 L105.021675,263 Z" id="Fill-911" fill="#FFFFFF"></path>
                <path d="M124,173 C124,177.418863 120.284955,181 115.703334,181 L95.2966658,181 C90.7150447,181 87,177.418863 87,173 C87,168.581137 90.7150447,165 95.2966658,165 L115.703334,165 C120.284955,165 124,168.581137 124,173" id="Fill-912" fill="#252525"></path>
                <path d="M95.6935312,166.572399 C91.7970721,166.572399 88.6260068,169.681129 88.6260068,173.500993 C88.6260068,177.320857 91.7970721,180.427601 95.6935312,180.427601 L116.306469,180.427601 C120.202928,180.427601 123.373993,177.320857 123.373993,173.500993 C123.373993,169.681129 120.202928,166.572399 116.306469,166.572399 L95.6935312,166.572399 Z M116.306469,183 L95.6935312,183 C90.3483106,183 86,178.739153 86,173.500993 C86,168.260847 90.3483106,164 95.6935312,164 L116.306469,164 C121.651689,164 126,168.260847 126,173.500993 C126,178.739153 121.651689,183 116.306469,183 L116.306469,183 Z" id="Fill-913" fill="#FFFFFF"></path>
                <path d="M96.3221534,174.983 C96.1420677,174.983 96,174.767 96,174.5 C96,174.233 96.1420677,174.017 96.3221534,174.017 L116.677847,174.017 C116.855931,174.017 117,174.233 117,174.5 C117,174.767 116.855931,174.983 116.677847,174.983 L96.3221534,174.983" id="Fill-914" fill="#FFFFFF"></path>
                <path d="M116.421932,176 L96.578068,176 C95.7080824,176 95,175.102041 95,173.998763 C95,172.895485 95.7080824,172 96.578068,172 L116.421932,172 C117.291918,172 118,172.895485 118,173.998763 C118,175.102041 117.291918,176 116.421932,176" id="Fill-915" fill="#484B63"></path>
                <path d="M115,174 L96,174 L96,156.306394 C97.2599938,147.897869 113.738044,147.897869 115,156.306394 L115,174" id="Fill-916" fill="#252525"></path>
                <path d="M97.597431,173.363321 L114.402569,173.363321 L114.402569,156.720685 C113.869454,153.289948 109.670675,151.638715 105.998998,151.638715 C102.329325,151.638715 98.1305457,153.289948 97.5834017,156.922253 L97.597431,173.363321 Z M115.701285,176 L96.2987155,176 C95.5812153,176 95,175.409547 95,174.680642 L95,156.720685 C95.799672,151.325164 101.096748,149 105.998998,149 C110.903252,149 116.200328,151.325164 116.983966,156.519116 L117,174.680642 C117,175.409547 116.418785,176 115.701285,176 L115.701285,176 Z" id="Fill-917" fill="#FFFFFF"></path>
                <path d="M106,163 C106,163 106,163 105.99797,163 C101.431887,163 96.2749947,160.767346 95.0446495,155.784448 C94.8578644,155.025609 95.2740703,154.247032 95.9765446,154.045259 C96.6851097,153.85226 97.3997656,154.293088 97.5865507,155.051927 C98.4575376,158.580749 102.438902,160.157643 105.99797,160.157643 C106,160.157643 106,160.157643 106,160.157643 C109.561098,160.157643 113.542462,158.580749 114.413449,155.054121 C114.600234,154.295281 115.327072,153.850067 116.023455,154.047452 C116.72593,154.249225 117.142136,155.027802 116.95535,155.786642 C115.722975,160.769539 110.566083,163 106,163" id="Fill-918" fill="#FFFFFF"></path>
                <polyline id="Fill-1018" fill="#FFFFFF" points="28 227 51 204 28 227"></polyline>
                <path d="M28.2836631,228 C27.9546966,228 27.62573,227.877113 27.3760325,227.625393 C26.8746558,227.123935 26.8746558,226.311296 27.3760325,225.809838 L50.8079628,202.376093 C51.3093395,201.874636 52.1218472,201.874636 52.6232239,202.376093 C53.1265824,202.879533 53.1246007,203.692173 52.6232239,204.193631 L29.1912937,227.625393 C28.9396145,227.877113 28.6126297,228 28.2836631,228" id="Fill-1019" fill="#FFFFFF"></path>
                <path d="M54,194.693358 C51.0716511,194.693358 48.6915888,197.076823 48.6915888,200.00312 C48.6915888,202.927337 51.0716511,205.308722 54,205.308722 C56.9283489,205.308722 59.3084112,202.927337 59.3084112,200.00312 C59.3084112,197.076823 56.9283489,194.693358 54,194.693358 Z M54,208 C49.588785,208 46,204.414403 46,200.00312 C46,195.589757 49.588785,192 54,192 C58.411215,192 62,195.589757 62,200.00312 C62,204.414403 58.411215,208 54,208 L54,208 Z" id="Fill-1021" fill="#FFFFFF"></path>
                <path d="M68.0010386,181.693358 C65.0723095,181.693358 62.6919382,184.072663 62.6919382,187.00104 C62.6919382,189.927337 65.0723095,192.306642 68.0010386,192.306642 C70.9276905,192.306642 73.3080618,189.927337 73.3080618,187.00104 C73.3080618,184.072663 70.9276905,181.693358 68.0010386,181.693358 Z M68.0010386,195 C63.5892509,195 60,191.412323 60,187.00104 C60,182.587677 63.5892509,179 68.0010386,179 C72.4107491,179 76,182.587677 76,187.00104 C76,191.412323 72.4107491,195 68.0010386,195 L68.0010386,195 Z" id="Fill-1023" fill="#FFFFFF"></path>
                <path d="M26,215.587413 C18.6037171,215.587413 12.5865037,221.605395 12.5865037,229.001998 C12.5865037,236.396603 18.6037171,242.412587 26,242.412587 C33.3962829,242.412587 39.4134963,236.396603 39.4134963,229.001998 C39.4134963,221.605395 33.3962829,215.587413 26,215.587413 Z M26,245 C17.1787452,245 10,237.823177 10,229.001998 C10,220.178821 17.1787452,213 26,213 C34.8212548,213 42,220.178821 42,229.001998 C42,237.823177 34.8212548,245 26,245 L26,245 Z" id="Fill-1025" fill="#FFFFFF"></path>
                <path d="M44.0039845,92.5703137 C35.4990592,92.5703137 28.581959,99.4575637 28.581959,107.926698 L28.581959,160.067348 C28.581959,168.538467 35.4990592,175.429686 44.0039845,175.429686 C52.502933,175.429686 59.418041,168.538467 59.418041,160.067348 L59.418041,107.926698 C59.418041,99.4575637 52.502933,92.5703137 44.0039845,92.5703137 Z M44.0039845,178 C34.076591,178 26,169.955613 26,160.067348 L26,107.926698 C26,98.0404177 34.076591,90 44.0039845,90 C53.9273935,90 62,98.0404177 62,107.926698 L62,160.067348 C62,169.955613 53.9273935,178 44.0039845,178 L44.0039845,178 Z" id="Fill-1070" fill="#FFFFFF"></path>
                <path d="M17.9322477,117.579967 C9.46330461,117.579967 2.57224052,124.499059 2.57224052,133.003985 C2.57224052,141.502933 9.46330461,148.420033 17.9322477,148.420033 L70.0717218,148.420033 C78.5386801,148.420033 85.4277595,141.502933 85.4277595,133.003985 C85.4277595,124.499059 78.5386801,117.579967 70.0717218,117.579967 L17.9322477,117.579967 Z M70.0717218,151 L17.9322477,151 C8.04420587,151 0,142.927393 0,133.003985 C0,123.076591 8.04420587,115 17.9322477,115 L70.0717218,115 C79.9577789,115 88,123.076591 88,133.003985 C88,142.927393 79.9577789,151 70.0717218,151 L70.0717218,151 Z" id="Fill-1071" fill="#FFFFFF"></path>
                <path d="M43.5031062,125.681688 C39.1916971,125.681688 35.683759,129.191697 35.683759,133.501035 C35.683759,137.810374 39.1916971,141.318312 43.5031062,141.318312 C47.8124445,141.318312 51.316241,137.810374 51.316241,133.501035 C51.316241,129.191697 47.8124445,125.681688 43.5031062,125.681688 Z M43.5031062,144 C37.7131447,144 33,139.290997 33,133.501035 C33,127.711074 37.7131447,123 43.5031062,123 C49.2909969,123 54,127.711074 54,133.501035 C54,139.290997 49.2909969,144 43.5031062,144 L43.5031062,144 Z" id="Fill-1072" fill="#FFFFFF"></path>
                <path d="M162.022232,101.57522 L162.022232,148.655023 C162.022232,149.114387 161.777509,149.537956 161.379585,149.768632 C148.02128,157.518157 138.578547,178.551444 138.578547,181.651651 C138.578547,184.413799 151.013668,188.426768 170.5,188.426768 C189.986332,188.426768 202.421453,184.413799 202.421453,181.651651 C202.421453,178.553432 192.994637,157.540031 179.658218,149.810393 C179.260294,149.577728 179.015571,149.154159 179.015571,148.694795 L179.015571,101.57522 L162.022232,101.57522 Z M170.5,191 C153.35545,191 136,187.79042 136,181.651651 C136,177.507436 145.93019,156.241484 159.443685,147.923223 L159.443685,100.286616 C159.443685,99.5766903 160.020675,99 160.732958,99 L180.304844,99 C181.017128,99 181.594118,99.5766903 181.594118,100.286616 L181.594118,147.964984 C195.083737,156.267335 205,177.509424 205,181.651651 C205,187.79042 187.642561,191 170.5,191 L170.5,191 Z" id="Fill-1073" fill="#FFFFFF"></path>
                <path d="M149.092061,179.027161 C153.690995,180.238236 161.572885,181.399101 171.499634,181.399101 C181.424385,181.399101 189.306276,180.238236 193.907207,179.027161 C192.135928,175.253347 189.224401,170.13992 185.641906,165.600899 L157.357362,165.600899 C153.772869,170.143936 150.861343,175.255356 149.092061,179.027161 Z M171.499634,184 C157.249528,184 149.074089,181.784717 146.907417,181.107881 C146.557954,180.997418 146.268399,180.742349 146.116632,180.406943 C145.964866,180.071538 145.960872,179.683914 146.106648,179.3465 C147.887911,175.235272 151.350591,168.906752 155.73186,163.480011 C155.977482,163.176741 156.346915,163 156.736316,163 L186.260955,163 C186.652353,163 187.019789,163.176741 187.265411,163.480011 C191.64668,168.904744 195.111357,175.233263 196.89262,179.3465 C197.038396,179.683914 197.036399,180.069529 196.882635,180.406943 C196.730868,180.742349 196.441313,180.997418 196.09185,181.107881 C193.925179,181.784717 185.74974,184 171.499634,184 L171.499634,184 Z" id="Fill-1074" fill="#FFFFFF"></path>
                <path d="M229.276815,226 C228.849407,226 228.429877,225.779413 228.189583,225.38035 C227.819293,224.768721 228.008377,223.968591 228.609113,223.593592 L250.056356,210.193911 C250.659061,209.814901 251.442972,210.009419 251.811292,210.621048 C252.179611,211.230671 251.992497,212.032807 251.391762,212.405801 L229.942549,225.807487 C229.735738,225.937834 229.505292,226 229.276815,226" id="Fill-733" fill="#FFFFFF"></path>
                <path d="M276.721157,226 C276.494639,226 276.264183,225.937843 276.055393,225.807514 L254.609141,212.407715 C254.008378,212.034774 253.819285,211.232751 254.189591,210.623214 C254.553989,210.009666 255.341874,209.81317 255.944607,210.196136 L277.390859,223.593931 C277.991622,223.968877 278.180715,224.768895 277.810409,225.380437 C277.570104,225.779444 277.150554,226 276.721157,226" id="Fill-734" fill="#FFFFFF"></path>
                <polygon id="Fill-735" fill="#252525" points="250 223 256 223 256 69 250 69"></polygon>
                <path d="M251.705432,222.408217 L255.294568,222.408217 L255.294568,70.5917829 L251.705432,70.5917829 L251.705432,222.408217 Z M256.648329,225 L250.351671,225 C249.60585,225 249,224.419601 249,223.705109 L249,69.2968921 C249,68.5803993 249.60585,68 250.351671,68 L256.648329,68 C257.39415,68 258,68.5803993 258,69.2968921 L258,223.705109 C258,224.419601 257.39415,225 256.648329,225 L256.648329,225 Z" id="Fill-736" fill="#FFFFFF"></path>
                <polygon id="Fill-737" fill="#252525" points="212 166 293 166 293 85 212 85"></polygon>
                <path d="M213.568646,164.383184 L291.431354,164.383184 L291.431354,84.618838 L213.568646,84.618838 L213.568646,164.383184 Z M292.714685,167 L212.283331,167 C211.575218,167 211,166.413542 211,165.691592 L211,83.3104301 C211,82.5864579 211.575218,82 212.283331,82 L292.714685,82 C293.424782,82 294,82.5864579 294,83.3104301 L294,165.691592 C294,166.413542 293.424782,167 292.714685,167 L292.714685,167 Z" id="Fill-738" fill="#FFFFFF"></path>
                <polygon id="Fill-739" fill="#252525" points="207 85 299 85 299 76 207 76"></polygon>
                <path d="M207.597876,83.4184487 L297.402124,83.4184487 L297.402124,77.5815513 L207.597876,77.5815513 L207.597876,83.4184487 Z M298.700059,86 L206.299941,86 C205.581764,86 205,85.421892 205,84.7102211 L205,76.2897789 C205,75.578108 205.581764,75 206.299941,75 L298.700059,75 C299.418236,75 300,75.578108 300,76.2897789 L300,84.7102211 C300,85.421892 299.418236,86 298.700059,86 L298.700059,86 Z" id="Fill-740" fill="#FFFFFF"></path>
                <polyline id="Fill-741" fill="#FFFFFF" points="226 150.5 239 150.5 226 150.5"></polyline>
                <path d="M238.649798,152 L225.350202,152 C224.605191,152 224,151.328185 224,150.501158 C224,149.671815 224.605191,149 225.350202,149 L238.649798,149 C239.394809,149 240,149.671815 240,150.501158 C240,151.328185 239.394809,152 238.649798,152" id="Fill-742" fill="#FFFFFF"></path>
                <polyline id="Fill-743" fill="#FFFFFF" points="227 155.5 235 155.5 227 155.5"></polyline>
                <path d="M234.669405,157 L227.328542,157 C226.595483,157 226,156.327666 226,155.5 C226,154.670015 226.595483,154 227.328542,154 L234.669405,154 C235.404517,154 236,154.670015 236,155.5 C236,156.327666 235.404517,157 234.669405,157" id="Fill-744" fill="#FFFFFF"></path>
                <path d="M283.702658,144 L227.299347,144 C226.581498,144 226,143.411089 226,142.686118 L226,92.3159125 C226,91.5889115 226.581498,91 227.299347,91 C228.015192,91 228.59669,91.5889115 228.59669,92.3159125 L228.59669,141.370206 L283.702658,141.370206 C284.418502,141.370206 285,141.959117 285,142.686118 C285,143.411089 284.418502,144 283.702658,144" id="Fill-745" fill="#FFFFFF"></path>
                <path d="M241.501158,144 C240.671815,144 240,143.418861 240,142.703459 L240,95.2965412 C240,94.581139 240.671815,94 241.501158,94 C242.328185,94 243,94.581139 243,95.2965412 L243,142.703459 C243,143.418861 242.328185,144 241.501158,144" id="Fill-746" fill="#FFFFFF"></path>
                <path d="M257.498842,144 C256.671815,144 256,143.418861 256,142.703459 L256,95.2965412 C256,94.581139 256.671815,94 257.498842,94 C258.328185,94 259,94.581139 259,95.2965412 L259,142.703459 C259,143.418861 258.328185,144 257.498842,144" id="Fill-747" fill="#FFFFFF"></path>
                <path d="M272.498842,144 C271.671815,144 271,143.418861 271,142.703459 L271,95.2965412 C271,94.581139 271.671815,94 272.498842,94 C273.325869,94 274,94.581139 274,95.2965412 L274,142.703459 C274,143.418861 273.325869,144 272.498842,144" id="Fill-748" fill="#FFFFFF"></path>
                <path d="M221.30024,130 C220.944763,130 220.587277,129.85589 220.330209,129.569672 C219.852223,129.035265 219.898415,128.21464 220.434643,127.736275 L241.749223,108.759819 C242.168967,108.389537 242.775488,108.319483 243.263516,108.6037 L257.759759,116.892014 L282.805846,93.3540821 C283.328017,92.861707 284.151439,92.8857253 284.645492,93.4081233 C285.137537,93.9285197 285.115445,94.7491449 284.591266,95.24152 L258.842258,119.441957 C258.42653,119.834255 257.799926,119.910313 257.301857,119.622094 L242.783521,111.317767 L222.167846,129.67175 C221.918811,129.893919 221.611534,130 221.30024,130" id="Fill-749" fill="#FFFFFF"></path>
                <polygon id="Fill-750" fill="#252525" points="267 135 281 135 281 121 267 121"></polygon>
                <path d="M267.529915,133.469777 L278.470085,133.469777 L278.470085,122.530223 L267.529915,122.530223 L267.529915,133.469777 Z M279.734066,136 L266.265934,136 C265.566545,136 265,135.433386 265,134.735865 L265,121.264135 C265,120.566614 265.566545,120 266.265934,120 L279.734066,120 C280.431502,120 281,120.566614 281,121.264135 L281,134.735865 C281,135.433386 280.431502,136 279.734066,136 L279.734066,136 Z" id="Fill-751" fill="#FFFFFF"></path>
                <path d="M196.622423,139.379602 L202.377577,139.379602 L202.377577,133.622423 L196.622423,133.622423 L196.622423,139.379602 Z M203.687776,142 L195.312224,142 C194.587261,142 194,141.414764 194,140.689801 L194,132.310199 C194,131.587261 194.587261,131 195.312224,131 L203.687776,131 C204.412739,131 205,131.587261 205,132.310199 L205,140.689801 C205,141.414764 204.412739,142 203.687776,142 L203.687776,142 Z" id="Fill-753" fill="#FFFFFF"></path>
                <path d="M350,243.718777 L348.812865,257.410561 C348.460901,261.707732 344.907451,265 340.695807,265 L276.258457,265 C272.046814,265 268.535122,261.707732 268.139411,257.410561 L267,243.718777 L268.457571,210.911574 C268.654432,206.500948 272.241687,203 276.574629,203 L340.383613,203 C344.758313,203 348.343579,206.500948 348.538452,210.911574 L350,243.718777" id="Fill-777" fill="#252525"></path>
                <path d="M276.913469,204.596357 C273.232347,204.596357 270.216704,207.495689 270.048835,211.193592 L268.58398,243.682164 L269.725088,257.073267 C270.060826,260.676866 273.014517,263.401637 276.595718,263.401637 L341.355097,263.401637 C344.910318,263.401637 347.927959,260.620685 348.223728,257.075274 L349.406803,243.595887 L347.941948,211.193592 C347.778076,207.495689 344.746446,204.596357 341.043341,204.596357 L276.913469,204.596357 Z M341.355097,266 L276.595718,266 C271.669568,266 267.608742,262.261968 267.145105,257.30401 L266,243.732326 L267.462857,211.075211 C267.694675,205.984826 271.845431,202 276.913469,202 L341.043341,202 C346.13536,202 350.302103,205.984826 350.529925,211.075211 L351.999561,243.563783 C352.000775,243.621971 351.999561,243.680158 351.99478,243.736339 L350.803711,257.295984 C350.400027,262.175691 346.247273,266 341.355097,266 L341.355097,266 Z" id="Fill-778" fill="#FFFFFF"></path>
                <path d="M302.577969,252.367063 L315.422031,252.367063 L315.422031,244.632937 L302.577969,244.632937 L302.577969,252.367063 Z M316.712011,255 L301.28998,255 C300.577306,255 300,254.410385 300,253.682515 L300,243.317485 C300,242.589615 300.577306,242 301.28998,242 L316.712011,242 C317.422694,242 318,242.589615 318,243.317485 L318,253.682515 C318,254.410385 317.422694,255 316.712011,255 L316.712011,255 Z" id="Fill-786" fill="#FFFFFF"></path>
                <path d="M277.453098,205.542896 C273.756934,205.542896 270.732073,208.384263 270.564247,212.013044 L269.599248,232.909954 C269.485366,235.390014 270.418398,237.840619 272.164586,239.635373 C273.908776,241.428164 276.358234,242.457104 278.883614,242.457104 L340.116074,242.457104 C342.643452,242.457104 345.090912,241.428164 346.835102,239.635373 C348.58129,237.838655 349.51632,235.386086 349.40044,232.90799 L348.433444,212.013044 C348.265618,208.384263 345.240757,205.542896 341.54659,205.542896 L277.453098,205.542896 Z M340.116074,245 L278.883614,245 C275.654964,245 272.524213,243.686334 270.292529,241.390855 C268.062842,239.099303 266.866084,235.96732 267.011933,232.7941 L267.976931,211.89719 C268.208691,206.907616 272.370373,203 277.453098,203 L341.54659,203 C346.627318,203 350.788999,206.907616 351.020759,211.89719 L351.987755,232.7941 C352.135602,235.959465 350.938844,239.093413 348.709157,241.390855 C346.477473,243.686334 343.344724,245 340.116074,245 L340.116074,245 Z" id="Fill-780" fill="#FFFFFF"></path>
                <path d="M324.667998,204 C323.934163,204 323.338051,203.437491 323.338051,202.743082 L323.338051,192.526746 C315.619428,189.844158 301.384683,189.844158 293.661949,192.528686 L293.661949,202.743082 C293.661949,203.437491 293.065837,204 292.332002,204 C291.596112,204 291,203.437491 291,202.743082 L291,191.671344 C291,191.167025 291.320667,190.709259 291.814001,190.51529 C300.235626,187.16157 316.76643,187.16157 325.185999,190.51529 C325.679333,190.709259 326,191.167025 326,191.671344 L326,202.743082 C326,203.437491 325.403888,204 324.667998,204" id="Fill-782" fill="#FFFFFF"></path>
                <path d="M324.667998,198 L292.332002,198 C291.596112,198 291,197.328185 291,196.498842 C291,195.671815 291.596112,195 292.332002,195 L324.667998,195 C325.403888,195 326,195.671815 326,196.498842 C326,197.328185 325.403888,198 324.667998,198" id="Fill-784" fill="#FFFFFF"></path>
                <polyline id="Fill-884" fill="#FFFFFF" points="275.5 178 275.5 181 275.5 178"></polyline>
                <path d="M275.501158,182 C274.671815,182 274,181.426197 274,180.719826 L274,178.282153 C274,177.573803 274.671815,177 275.501158,177 C276.328185,177 277,177.573803 277,178.282153 L277,180.719826 C277,181.426197 276.328185,182 275.501158,182" id="Fill-885" fill="#FFFFFF"></path>
                <polyline id="Fill-886" fill="#FFFFFF" points="275.5 190 275.5 193 275.5 190"></polyline>
                <path d="M275.501158,194 C274.671815,194 274,193.426197 274,192.719826 L274,190.280174 C274,189.573803 274.671815,189 275.501158,189 C276.328185,189 277,189.573803 277,190.280174 L277,192.719826 C277,193.426197 276.328185,194 275.501158,194" id="Fill-887" fill="#FFFFFF"></path>
                <polyline id="Fill-888" fill="#FFFFFF" points="284 184.5 281 184.5 284 184.5"></polyline>
                <path d="M283.718861,186 L281.281139,186 C280.573349,186 280,185.327666 280,184.5 C280,183.672334 280.573349,183 281.281139,183 L283.718861,183 C284.426651,183 285,183.672334 285,184.5 C285,185.327666 284.426651,186 283.718861,186" id="Fill-889" fill="#FFFFFF"></path>
                <polyline id="Fill-890" fill="#FFFFFF" points="271 184.5 268 184.5 271 184.5"></polyline>
                <path d="M270.720838,186 L268.279162,186 C267.573349,186 267,185.327666 267,184.5 C267,183.672334 267.573349,183 268.279162,183 L270.720838,183 C271.426651,183 272,183.672334 272,184.5 C272,185.327666 271.426651,186 270.720838,186" id="Fill-891" fill="#FFFFFF"></path>
                <path d="M190,104 C190,108.418863 186.28676,112 181.70489,112 L161.29511,112 C156.71324,112 153,108.418863 153,104 C153,99.5811366 156.71324,96 161.29511,96 L181.70489,96 C186.28676,96 190,99.5811366 190,104" id="Fill-1075" fill="#252525"></path>
                <path d="M160.691996,96.5721305 C156.795339,96.5721305 153.62614,99.6805352 153.62614,103.5 C153.62614,107.317479 156.795339,110.42787 160.691996,110.42787 L181.308004,110.42787 C185.204661,110.42787 188.37386,107.317479 188.37386,103.5 C188.37386,99.6805352 185.204661,96.5721305 181.308004,96.5721305 L160.691996,96.5721305 Z M181.308004,113 L160.691996,113 C155.348531,113 151,108.737612 151,103.5 C151,98.2623876 155.348531,94 160.691996,94 L181.308004,94 C186.651469,94 191,98.2623876 191,103.5 C191,108.737612 186.651469,113 181.308004,113 L181.308004,113 Z" id="Fill-1076" fill="#FFFFFF"></path>
                <path d="M160.320152,102.983 C160.142068,102.983 160,102.767 160,102.5 C160,102.233 160.142068,102.017 160.320152,102.017 L180.677847,102.017 C180.855931,102.017 181,102.233 181,102.5 C181,102.767 180.855931,102.983 180.677847,102.983 L160.320152,102.983" id="Fill-1077" fill="#FFFFFF"></path>
                <path d="M180.421932,105 L160.576117,105 C159.706132,105 159,104.104515 159,103.001237 C159,101.895485 159.706132,101 160.576117,101 L180.421932,101 C181.291918,101 182,101.895485 182,103.001237 C182,104.104515 181.291918,105 180.421932,105" id="Fill-1078" fill="#FFFFFF"></path>
                <path d="M105.211003,155.706683 L105.211003,130.300703 L98.5023767,130.300703 C93.8147091,130.300703 90,126.476722 90,121.775205 C90,116.579948 94.2133203,112.354179 99.3952658,112.354179 L114.16381,112.354179 C117.918728,112.354179 120.974083,109.289797 120.974083,105.521786 C120.974083,102.247515 118.319332,99.5829217 115.054706,99.5829217 L98.5023767,99.5829217 C93.8147091,99.5829217 90,95.7589407 90,91.0574231 L90,90.1618959 C90,85.4603782 93.8147091,81.6363972 98.5023767,81.6363972 L115.054706,81.6363972 C118.319332,81.6363972 120.974083,78.9718041 120.974083,75.6975329 L120.974083,74.8040046 C120.974083,71.5297334 118.319332,68.8651403 115.054706,68.8651403 L106.502503,68.8651403 C105.788989,68.8651403 105.211003,68.2854463 105.211003,67.5718231 L105.211003,45.2216237 C104.342031,26.66742 110.869289,11.7772818 123.116618,4.42716253 C132.956335,-1.47572084 145.18174,-1.47572084 155.017471,4.42716253 C167.2648,11.7772818 173.792058,26.66742 172.923086,45.283591 L172.925079,103.308954 C172.925079,104.022578 172.347093,104.602272 171.633579,104.602272 C170.920065,104.602272 170.342079,104.022578 170.342079,103.308954 L170.342079,45.2216237 C171.165211,27.5309641 165.096355,13.4943752 153.692089,6.64998891 C144.671518,1.23484802 133.464564,1.23484802 124.442,6.64998891 C113.037734,13.4943752 106.968878,27.5309641 107.790017,45.1616553 L107.792011,66.276507 L115.054706,66.276507 C119.744367,66.276507 123.557083,70.100488 123.557083,74.8040046 L123.557083,75.6975329 C123.557083,80.4010495 119.744367,84.2250305 115.054706,84.2250305 L98.5023767,84.2250305 C95.2397441,84.2250305 92.5830005,86.8896236 92.5830005,90.1618959 L92.5830005,91.0574231 C92.5830005,94.3296954 95.2397441,96.9942885 98.5023767,96.9942885 L115.054706,96.9942885 C119.744367,96.9942885 123.557083,100.820268 123.557083,105.521786 C123.557083,110.717043 119.343763,114.942812 114.16381,114.942812 L99.3952658,114.942812 C95.6383553,114.942812 92.5830005,118.007194 92.5830005,121.775205 C92.5830005,125.049476 95.2397441,127.714069 98.5023767,127.714069 L106.502503,127.714069 C107.214024,127.714069 107.792011,128.293763 107.792011,129.007386 L107.792011,155.706683 C107.792011,156.420306 107.214024,157 106.502503,157 C105.788989,157 105.211003,156.420306 105.211003,155.706683 Z" id="Fill-1081" fill="#FFFFFF"></path>
                <path d="M114.998994,249.605634 C114.781763,249.605634 114.606772,249.782696 114.606772,250.002012 C114.606772,250.434608 115.393228,250.430584 115.393228,250.002012 C115.393228,249.782696 115.216225,249.605634 114.998994,249.605634 Z M114.998994,253 C113.345625,253 112,251.655936 112,250.002012 C112,248.346076 113.345625,247 114.998994,247 C116.654375,247 118,248.346076 118,250.002012 C118,251.655936 116.654375,253 114.998994,253 L114.998994,253 Z" id="Fill-1094" fill="#FFFFFF"></path>
                <path d="M117.001041,231.696232 C115.731001,231.696232 114.698314,232.728919 114.698314,233.998959 C114.698314,235.268999 115.731001,236.303768 117.001041,236.303768 C118.271081,236.303768 119.301686,235.268999 119.301686,233.998959 C119.301686,232.728919 118.271081,231.696232 117.001041,231.696232 Z M117.001041,239 C114.242349,239 112,236.757651 112,233.998959 C112,231.240267 114.242349,229 117.001041,229 C119.757651,229 122,231.240267 122,233.998959 C122,236.757651 119.757651,239 117.001041,239 L117.001041,239 Z" id="Fill-1096" fill="#FFFFFF"></path>
                <path d="M95,229.927381 C94.4101695,229.927381 93.9288136,230.408873 93.9288136,231.00113 C93.9288136,231.593388 94.4101695,232.07488 95,232.07488 C95.5920904,232.07488 96.0711864,231.593388 96.0711864,231.00113 C96.0711864,230.408873 95.5920904,229.927381 95,229.927381 Z M95,235 C92.7943503,235 91,233.207403 91,231.00113 C91,228.794857 92.7943503,227 95,227 C97.2056497,227 99,228.794857 99,231.00113 C99,233.207403 97.2056497,235 95,235 L95,235 Z" id="Fill-1098" fill="#FFFFFF"></path>
                <path d="M100.5,244.664187 C98.385443,244.664187 96.6658228,246.386137 96.6658228,248.498971 C96.6658228,250.613863 98.385443,252.335813 100.5,252.335813 C102.614557,252.335813 104.334177,250.613863 104.334177,248.498971 C104.334177,246.386137 102.614557,244.664187 100.5,244.664187 Z M100.5,255 C96.9167722,255 94,252.084824 94,248.498971 C94,244.915176 96.9167722,242 100.5,242 C104.085285,242 107,244.915176 107,248.498971 C107,252.084824 104.085285,255 100.5,255 L100.5,255 Z" id="Fill-1100" fill="#FFFFFF"></path>
                <polyline id="Fill-1116" fill="#FFFFFF" points="22 133.5 63 133.5 22 133.5"></polyline>
                <path d="M62.6906085,62 L21.3093915,62 C20.5859931,62 20,61.3281853 20,60.5011583 C20,59.6718147 20.5859931,59 21.3093915,59 L62.6906085,59 C63.4140069,59 64,59.6718147 64,60.5011583 C64,61.3281853 63.4140069,62 62.6906085,62" id="Fill-1117" fill="#FFFFFF"></path>
                <polyline id="Fill-1118" fill="#FFFFFF" points="22 146.5 36 146.5 22 146.5"></polyline>
                <path d="M35.7244578,73 L21.2775136,73 C20.5717268,73 20,72.3281853 20,71.5011583 C20,70.6718147 20.5717268,70 21.2775136,70 L35.7244578,70 C36.4282732,70 37,70.6718147 37,71.5011583 C37,72.3281853 36.4282732,73 35.7244578,73" id="Fill-1119" fill="#FFFFFF"></path>
                <path d="M162.5875,41.034278 C162.435417,41.034278 162.283333,41.0105263 162.133333,40.9610436 C161.43125,40.7215475 161.064583,39.9892038 161.314583,39.3221772 C161.314583,38.6135852 161.9125,38 162.65625,38 C163.402083,38 164,38.5363923 164,39.2449843 C164,39.468646 164,39.8051282 163.858333,40.1831759 C163.660417,40.7076923 163.141667,41.034278 162.5875,41.034278 Z M162.35,49.1712101 C161.60625,49.1712101 161,48.597211 161,47.888619 L161,47.3759784 C161,46.6673864 161.60625,46.0933873 162.35,46.0933873 C163.095833,46.0933873 163.7,46.6673864 163.7,47.3759784 L163.7,47.888619 C163.7,48.597211 163.095833,49.1712101 162.35,49.1712101 Z M162.35,57.3793972 C161.60625,57.3793972 161,56.8053981 161,56.0968061 L161,55.5841655 C161,54.8755735 161.60625,54.3015744 162.35,54.3015744 C163.095833,54.3015744 163.7,54.8755735 163.7,55.5841655 L163.7,56.0968061 C163.7,56.8053981 163.095833,57.3793972 162.35,57.3793972 Z M162.35,65.5875843 C161.60625,65.5875843 161,65.0135852 161,64.3049933 L161,63.7923527 C161,63.0837607 161.60625,62.5097616 162.35,62.5097616 C163.095833,62.5097616 163.7,63.0837607 163.7,63.7923527 L163.7,64.3049933 C163.7,65.0135852 163.095833,65.5875843 162.35,65.5875843 Z M162.35,73.7937922 C161.60625,73.7937922 161,73.2197931 161,72.5131804 L161,72.0005398 C161,71.2919478 161.60625,70.7179487 162.35,70.7179487 C163.095833,70.7179487 163.7,71.2919478 163.7,72.0005398 L163.7,72.5131804 C163.7,73.2197931 163.095833,73.7937922 162.35,73.7937922 Z M162.35,82 C161.60625,82 161,81.4260009 161,80.7193882 L161,80.2067476 C161,79.500135 161.60625,78.9261359 162.35,78.9261359 C163.095833,78.9261359 163.7,79.500135 163.7,80.2067476 L163.7,80.7193882 C163.7,81.4260009 163.095833,82 162.35,82 L162.35,82 Z" id="Fill-1153" fill="#FFFFFF"></path>
                <path d="M137,153.499025 C137,156.536265 134.53973,159 131.5,159 C128.46027,159 126,156.536265 126,153.499025 C126,150.461784 128.46027,148 131.5,148 C134.53973,148 137,150.461784 137,153.499025" id="Fill-1164" fill="#252525"></path>
                <path d="M132,148.614275 C129.583213,148.614275 127.616671,150.582552 127.616671,152.998991 C127.616671,155.417448 129.583213,157.385725 132,157.385725 C134.418806,157.385725 136.383329,155.417448 136.383329,152.998991 C136.383329,150.582552 134.418806,148.614275 132,148.614275 Z M132,160 C128.141621,160 125,156.858832 125,152.998991 C125,149.139149 128.141621,146 132,146 C135.860398,146 139,149.139149 139,152.998991 C139,156.858832 135.860398,160 132,160 L132,160 Z" id="Fill-1165" fill="#FFFFFF"></path>
                <path d="M154,139.499025 C154,142.536265 151.53973,145 148.5,145 C145.46027,145 143,142.536265 143,139.499025 C143,136.461784 145.46027,134 148.5,134 C151.53973,134 154,136.461784 154,139.499025" id="Fill-1166" fill="#252525"></path>
                <path d="M148,134.614275 C145.583213,134.614275 143.616671,136.582552 143.616671,138.998991 C143.616671,141.417448 145.583213,143.385725 148,143.385725 C150.418806,143.385725 152.383329,141.417448 152.383329,138.998991 C152.383329,136.582552 150.418806,134.614275 148,134.614275 Z M148,146 C144.141621,146 141,142.858832 141,138.998991 C141,135.139149 144.141621,132 148,132 C151.860398,132 155,135.139149 155,138.998991 C155,142.858832 151.860398,146 148,146 L148,146 Z" id="Fill-1167" fill="#FFFFFF"></path>
                <path d="M140,125.5 C140,128.536702 137.53973,131 134.5,131 C131.46027,131 129,128.536702 129,125.5 C129,122.463298 131.46027,120 134.5,120 C137.53973,120 140,122.463298 140,125.5" id="Fill-1168" fill="#252525"></path>
                <path d="M134.001009,120.612633 C131.582552,120.612633 129.616294,122.581194 129.616294,125 C129.616294,127.416787 131.582552,129.385348 134.001009,129.385348 C136.417448,129.385348 138.383706,127.416787 138.383706,125 C138.383706,122.581194 136.417448,120.612633 134.001009,120.612633 Z M134.001009,132 C130.141168,132 127,128.860398 127,125 C127,121.139602 130.141168,118 134.001009,118 C137.860851,118 141,121.139602 141,125 C141,128.860398 137.860851,132 134.001009,132 L134.001009,132 Z" id="Fill-1169" fill="#FFFFFF"></path>
                <polyline id="Fill-1170" fill="#FFFFFF" points="139 130 144 135 139 130"></polyline>
                <path d="M143.661846,136 C143.318915,136 142.975985,135.871917 142.715688,135.609555 L137.391995,130.285862 C136.869335,129.763202 136.869335,128.916204 137.391995,128.393544 C137.914655,127.868819 138.761653,127.868819 139.284312,128.393544 L144.608005,133.717237 C145.130665,134.239897 145.130665,135.086895 144.608005,135.609555 C144.345642,135.871917 144.004777,136 143.661846,136" id="Fill-1171" fill="#FFFFFF"></path>
                <polyline id="Fill-1172" fill="#FFFFFF" points="136 150 144 142 136 150"></polyline>
                <path d="M136.327221,151 C135.987091,151 135.649011,150.870941 135.388792,150.610775 C134.870403,150.092492 134.870403,149.252586 135.388792,148.734303 L142.734351,141.390249 C143.25274,140.869917 144.092818,140.869917 144.611208,141.390249 C145.129597,141.908532 145.129597,142.748438 144.611208,143.266721 L137.265649,150.610775 C137.007479,150.870941 136.66735,151 136.327221,151" id="Fill-1173" fill="#FFFFFF"></path>
                <polyline id="Fill-1216" fill="#FFFFFF" points="74.5 148 74.5 151 74.5 148"></polyline>
                <path d="M74.5,78 C73.6712963,78 73,77.4408022 73,76.7524103 L73,74.2495179 C73,73.5591978 73.6712963,73 74.5,73 C75.3287037,73 76,73.5591978 76,74.2495179 L76,76.7524103 C76,77.4408022 75.3287037,78 74.5,78" id="Fill-1217" fill="#FFFFFF"></path>
                <polyline id="Fill-1218" fill="#FFFFFF" points="74.5 160 74.5 163 74.5 160"></polyline>
                <path d="M74.5,91 C73.6712963,91 73,90.4410177 73,89.7528913 L73,87.2490362 C73,86.5589823 73.6712963,86 74.5,86 C75.3287037,86 76,86.5589823 76,87.2490362 L76,89.7528913 C76,90.4410177 75.3287037,91 74.5,91" id="Fill-1219" fill="#FFFFFF"></path>
                <polyline id="Fill-1220" fill="#FFFFFF" points="82 155.5 79 155.5 82 155.5"></polyline>
                <path d="M81.751926,84 L79.2461479,84 C78.5585516,84 78,83.3281853 78,82.5011583 C78,81.6718147 78.5585516,81 79.2461479,81 L81.751926,81 C82.4414484,81 83,81.6718147 83,82.5011583 C83,83.3281853 82.4414484,84 81.751926,84" id="Fill-1221" fill="#FFFFFF"></path>
                <polyline id="Fill-1222" fill="#FFFFFF" points="70 155.5 67 155.5 70 155.5"></polyline>
                <path d="M69.751926,84 L67.248074,84 C66.5585516,84 66,83.3281853 66,82.5011583 C66,81.6718147 66.5585516,81 67.248074,81 L69.751926,81 C70.4414484,81 71,81.6718147 71,82.5011583 C71,83.3281853 70.4414484,84 69.751926,84" id="Fill-1223" fill="#FFFFFF"></path>
                <path d="M172.556431,210 C173.185863,210 173.695738,210.510766 173.695738,211.141299 L173.695738,211.141299 L173.695738,244.072554 C173.695738,269.249816 194.066117,280.719164 212.991265,280.719164 C231.918172,280.719164 252.288551,269.249816 252.288551,244.072554 L252.288551,244.072554 L252.288551,235.398331 C252.288551,234.76956 252.798426,234.258793 253.427858,234.258793 C254.057289,234.258793 254.567164,234.76956 254.567164,235.398331 L254.567164,235.398331 L254.567164,244.072554 C254.567164,256.0967 250.053893,266.201069 241.517884,273.290154 C233.980527,279.553207 223.849842,283 212.991265,283 C192.967249,283 171.417125,270.819102 171.417125,244.072554 L171.417125,244.072554 L171.417125,211.141299 C171.417125,210.510766 171.927,210 172.556431,210 Z M172.38244,198.926136 C173.110351,198.926136 173.7,199.486342 173.7,200.175975 L173.7,200.676297 C173.7,201.36593 173.110351,201.926136 172.38244,201.926136 C171.656562,201.926136 171.06488,201.36593 171.06488,200.676297 L171.06488,200.175975 C171.06488,199.486342 171.656562,198.926136 172.38244,198.926136 Z" id="Fill-365-Copy-2" fill="#FFFFFF"></path>
            </g>
        </g>
    </g>
</svg>