<?xml version="1.0" encoding="UTF-8"?>
<svg width="462px" height="364px" viewBox="0 0 462 364" version="1.1" xmlns="http://www.w3.org/2000/svg" xmlns:xlink="http://www.w3.org/1999/xlink">
    <title>Group 4</title>
    <g id="Page-1" stroke="none" stroke-width="1" fill="none" fill-rule="evenodd">
        <g id="Home-1920" transform="translate(-1112.000000, -3648.000000)">
            <g id="Group-4" transform="translate(1112.000000, 3648.164706)">
                <path d="M324,113.223044 L354.109032,143.333108 C356.247402,145.469067 358.555449,145.071022 359.89329,143.728978 C361.235481,142.38911 361.63357,140.079142 359.499551,137.945358 L329.388344,107.835294 L324,113.223044 Z M357.5,147.835294 C355.801062,147.835294 353.989589,147.153536 352.359912,145.523809 L321.411207,114.571991 C321.149333,114.310109 321,113.952997 321,113.580736 C321,113.208474 321.149333,112.851363 321.411207,112.589481 L328.756655,105.245972 C329.304209,104.698401 330.191549,104.698401 330.739103,105.245972 L361.687809,136.195627 C361.687809,136.195627 361.687809,136.195627 361.689973,136.195627 C365.007761,139.517845 364.399608,143.601901 362.081702,145.919878 C360.900024,147.099428 359.26169,147.835294 357.5,147.835294 L357.5,147.835294 Z" id="Fill-920" fill="#FFFFFF"></path>
                <path d="M289.50158,137.944953 C287.367498,140.078862 287.763424,142.388966 289.105655,143.728913 C290.44571,145.071036 292.753825,145.469104 294.890083,143.33302 L325,113.221186 L319.613673,107.835294 L289.50158,137.944953 Z M292.498007,147.835294 C290.736189,147.835294 289.097741,147.09915 287.918146,145.919155 C285.600078,143.600302 284.991883,139.514704 288.312066,136.191231 L319.262925,105.229889 C319.788873,104.703763 320.719563,104.703763 321.245511,105.229889 L328.589306,112.576171 C329.136898,113.123949 329.136898,114.011651 328.589306,114.559429 L297.638447,145.522937 C296.008657,147.153279 294.197058,147.835294 292.498007,147.835294 L292.498007,147.835294 Z" id="Fill-922" fill="#FFFFFF"></path>
                <path d="M387.493207,106.835294 L405,106.835294 L400.482337,100.599468 C400.147192,100.137164 400.147192,99.5313134 400.482337,99.0668985 L404.997736,92.8352941 L387.490942,92.8352941 L380,99.8141843 L387.493207,106.835294 Z M407.566929,109.835294 L387.177737,109.835294 C386.797375,109.835294 386.430281,109.685684 386.162701,109.421157 L377.416578,100.804505 C376.859303,100.253768 376.861514,99.3669507 377.421001,98.82055 L386.164912,90.2472629 C386.434704,89.9827356 386.799586,89.8352941 387.177737,89.8352941 L407.566929,89.8352941 C408.097667,89.8352941 408.584177,90.121504 408.831855,90.5811744 C409.081744,91.0408449 409.050784,91.5959186 408.754455,92.0274017 L403.376308,99.8331259 L408.754455,107.643187 C409.050784,108.07467 409.081744,108.629743 408.831855,109.089414 C408.584177,109.549084 408.097667,109.835294 407.566929,109.835294 L407.566929,109.835294 Z" id="Fill-924" fill="#FFFFFF"></path>
                <path d="M364.8,99.9187472 C364.8,121.767733 347.08538,139.482353 325.236394,139.482353 C303.387409,139.482353 285.670588,121.767733 285.670588,99.9187472 C285.670588,78.0697619 303.387409,60.3529412 325.236394,60.3529412 C347.08538,60.3529412 364.8,78.0697619 364.8,99.9187472" id="Fill-925" fill="#252525"></path>
                <path d="M325.001096,61.8352941 C304.047221,61.8352941 287,78.8803225 287,99.834198 C287,120.788073 304.047221,137.835294 325.001096,137.835294 C345.952779,137.835294 363,120.788073 363,99.834198 C363,78.8803225 345.952779,61.8352941 325.001096,61.8352941 Z M325.0011,140.835294 C302.392174,140.835294 284,122.442627 284,99.8352941 C284,77.2279615 302.392174,58.8352941 325.0011,58.8352941 C347.607826,58.8352941 366,77.2279615 366,99.8352941 C366,122.442627 347.607826,140.835294 325.0011,140.835294 L325.0011,140.835294 Z" id="Fill-926" fill="#FFFFFF"></path>
                <path d="M324.5,78.8352941 C312.644534,78.8352941 303,88.4803166 303,100.336382 C303,112.192448 312.644534,121.835294 324.5,121.835294 C336.355466,121.835294 346,112.192448 346,100.336382 C346,88.4803166 336.355466,78.8352941 324.5,78.8352941 Z M325,124.835294 C311.767359,124.835294 301,114.069601 301,100.836368 C301,87.6031345 311.767359,76.8352941 325,76.8352941 C338.232641,76.8352941 349,87.6031345 349,100.836368 C349,114.069601 338.232641,124.835294 325,124.835294 L325,124.835294 Z" id="Fill-928" fill="#FFFFFF"></path>
                <path d="M257.505882,221.318688 C257.505882,208.829138 255.788482,196.365886 252.375755,184.121787 L239.552646,138.082047 C239.345145,137.336926 238.440088,136.8 237.387132,136.8 C236.336383,136.8 235.429118,137.336926 235.221618,138.082047 L222.400715,184.123978 C218.987989,196.368077 217.270588,208.829138 217.270588,221.316497 L217.270588,256.429249 C227.725098,259.652995 247.051372,259.652995 257.505882,256.429249 L257.505882,221.318688" id="Fill-929" fill="#252525"></path>
                <path d="M219,254.790606 C228.895222,257.516857 246.102593,257.516857 256,254.790606 L256,220.799983 C256,208.477151 254.308546,196.11056 250.971532,184.041536 L238.276889,138.075974 C238.246294,138.034402 237.970941,137.835294 237.498907,137.835294 C237.026874,137.835294 236.751521,138.034402 236.709999,138.10223 L224.026283,184.043724 C220.691454,196.117124 219,208.483715 219,220.797795 L219,254.790606 Z M237.498899,259.835294 C229.933207,259.835294 222.367515,259.006172 217.004354,257.345735 C216.407468,257.161486 216,256.610931 216,255.990186 L216,220.846823 C216,208.245486 217.739999,195.593699 221.169339,183.242415 L233.961635,137.160345 C234.342673,135.791636 235.798545,134.835294 237.498899,134.835294 C239.199252,134.835294 240.655125,135.791636 241.03396,137.160345 L253.830661,183.240221 C257.260001,195.587119 259,208.241099 259,220.849016 L259,255.990186 C259,256.610931 258.592532,257.161486 257.995646,257.345735 C252.632485,259.006172 245.066793,259.835294 237.498899,259.835294 L237.498899,259.835294 Z" id="Fill-930" fill="#FFFFFF"></path>
                <polyline id="Fill-931" fill="#252525" points="297.741176 212.006399 297.741176 229.341176 175.694118 229.341176 175.694118 212.006399 236.716557 197.152941 297.741176 212.006399"></polyline>
                <path d="M177,227.835294 L296,227.835294 L296,213.169312 L236.498912,198.835294 L177,213.169312 L177,227.835294 Z M297.588396,230.835294 L175.411604,230.835294 C174.632713,230.835294 174,230.210284 174,229.438721 L174,212.093626 C174,211.451375 174.442899,210.893177 175.075611,210.738002 L236.160735,195.875704 C236.383275,195.821824 236.614543,195.821824 236.837083,195.875704 L297.924389,210.738002 C298.557101,210.893177 299,211.451375 299,212.093626 L299,229.438721 C299,230.210284 298.367287,230.835294 297.588396,230.835294 L297.588396,230.835294 Z" id="Fill-932" fill="#FFFFFF"></path>
                <path d="M265.552941,165.73669 C265.552941,141.438289 263.148571,117.201248 258.372527,93.3827662 L240.417132,3.83500588 C240.127212,2.38428965 238.858542,1.34117647 237.387145,1.34117647 C235.915749,1.34117647 234.647078,2.38428965 234.357159,3.83500588 L216.403944,93.3849576 C211.6279,117.201248 209.223529,141.438289 209.223529,165.734499 L209.223529,234.025541 C223.859018,240.297369 250.917452,240.297369 265.552941,234.025541 L265.552941,165.73669" id="Fill-933" fill="#252525"></path>
                <path d="M211,232.637083 C224.966348,238.234698 250.033652,238.234698 264,232.637083 L264,165.450393 C264,141.352221 261.616134,117.157841 256.915339,93.534155 L239.129191,4.18440688 C238.973722,3.40380192 238.287065,2.83529412 237.49892,2.83529412 C236.710776,2.83529412 236.024119,3.40380192 235.868649,4.18659344 L218.084661,93.5385282 C213.383866,117.160028 211,141.354408 211,165.448206 L211,232.637083 Z M237.498913,239.835294 C226.926005,239.835294 216.350923,238.226216 208.856616,235.010249 C208.336994,234.786949 208,234.272482 208,233.705473 L208,165.482756 C208,141.171449 210.417659,116.759438 215.187751,92.9253806 L233.096252,3.46502375 C233.515864,1.36118166 235.368243,-0.164705882 237.498913,-0.164705882 C239.627409,-0.164705882 241.481962,1.36118166 241.903748,3.46283453 L259.810075,92.9210021 C264.582341,116.757248 267,141.16926 267,165.484946 L267,233.705473 C267,234.272482 266.663006,234.786949 266.143384,235.010249 C258.649077,238.226216 248.073995,239.835294 237.498913,239.835294 L237.498913,239.835294 Z" id="Fill-934" fill="#FFFFFF"></path>
                <path d="M246.705451,40.2352941 L226.732023,40.2352941 C225.951828,40.2352941 225.317647,39.6346128 225.317647,38.8951533 C225.317647,38.1536225 225.951828,37.5529412 226.732023,37.5529412 L246.705451,37.5529412 C247.485646,37.5529412 248.117647,38.1536225 248.117647,38.8951533 C248.117647,39.6346128 247.485646,40.2352941 246.705451,40.2352941" id="Fill-935" fill="#FFFFFF"></path>
                <path d="M249.379583,49.6235294 L225.396888,49.6235294 C224.612151,49.6235294 223.976471,49.0233115 223.976471,48.2823529 C223.976471,47.5413943 224.612151,46.9411765 225.396888,46.9411765 L249.379583,46.9411765 C250.164319,46.9411765 250.8,47.5413943 250.8,48.2823529 C250.8,49.0233115 250.164319,49.6235294 249.379583,49.6235294" id="Fill-936" fill="#FFFFFF"></path>
                <path d="M237.5,109.835294 C227.850134,109.835294 220,117.685428 220,127.335294 C220,136.98516 227.850134,144.835294 237.5,144.835294 C247.149866,144.835294 255,136.98516 255,127.335294 C255,117.685428 247.149866,109.835294 237.5,109.835294 Z M237,147.835294 C225.972985,147.835294 217,138.862309 217,127.835294 C217,116.808279 225.972985,107.835294 237,107.835294 C248.027015,107.835294 257,116.808279 257,127.835294 C257,138.862309 248.027015,147.835294 237,147.835294 L237,147.835294 Z" id="Fill-937" fill="#FFFFFF"></path>
                <path d="M237,118.835294 C232.037908,118.835294 228,122.871527 228,127.834214 C228,132.796902 232.037908,136.835294 237,136.835294 C241.962092,136.835294 246,132.796902 246,127.834214 C246,122.871527 241.962092,118.835294 237,118.835294 Z M236.998902,139.835294 C230.381166,139.835294 225,134.451932 225,127.834196 C225,121.218656 230.381166,115.835294 236.998902,115.835294 C243.616638,115.835294 249,121.218656 249,127.834196 C249,134.451932 243.616638,139.835294 236.998902,139.835294 L236.998902,139.835294 Z" id="Fill-938" fill="#FFFFFF"></path>
                <path d="M242.752941,246.776471 L230.682353,246.776471 L230.682353,204.565652 C232.490969,185.740861 240.944326,185.740861 242.752941,204.565652 L242.752941,246.776471" id="Fill-939" fill="#252525"></path>
                <path d="M232.008848,244.835294 L242,244.835294 L242,204.40952 C241.051095,195.286569 238.429993,191.835294 237.003318,191.835294 C235.576642,191.835294 232.957753,195.286569 232,204.554329 L232.008848,244.835294 Z M243.541567,247.835294 L230.458433,247.835294 C229.652694,247.835294 229,247.19562 229,246.405954 L229,204.335257 C230.012801,194.574714 233.001688,188.835294 236.998875,188.835294 C240.998312,188.835294 243.987199,194.574714 244.993248,204.189676 L245,246.405954 C245,247.19562 244.347306,247.835294 243.541567,247.835294 L243.541567,247.835294 Z" id="Fill-940" fill="#FFFFFF"></path>
                <path d="M304.447059,246.776471 L292.376471,246.776471 L292.376471,204.565652 C294.185086,185.740861 302.636367,185.740861 304.447059,204.565652 L304.447059,246.776471" id="Fill-941" fill="#252525"></path>
                <path d="M294.008848,244.835294 L304,244.835294 L304,204.40952 C303.048883,195.286569 300.429993,191.835294 299.003318,191.835294 C297.576642,191.835294 294.957753,195.286569 294,204.554329 L294.008848,244.835294 Z M305.541567,247.835294 L292.458433,247.835294 C291.652694,247.835294 291,247.19562 291,246.405954 L291,204.335257 C292.012801,194.574714 294.999437,188.835294 298.998875,188.835294 C302.998312,188.835294 305.987199,194.574714 306.990997,204.189676 L307,246.405954 C307,247.19562 306.345056,247.835294 305.541567,247.835294 L305.541567,247.835294 Z" id="Fill-942" fill="#FFFFFF"></path>
                <path d="M179.717647,246.776471 L167.647059,246.776471 L167.647059,204.565652 C169.455674,185.740861 177.909031,185.740861 179.717647,204.565652 L179.717647,246.776471" id="Fill-943" fill="#252525"></path>
                <path d="M168.008848,244.835294 L178,244.835294 L178,204.40952 C177.051095,195.286569 174.432205,191.835294 173.00553,191.835294 C171.578854,191.835294 168.957753,195.286569 168,204.554329 L168.008848,244.835294 Z M179.541567,247.835294 L166.458433,247.835294 C165.652694,247.835294 165,247.19562 165,246.405954 L165,204.335257 C166.012801,194.574714 169.001688,188.835294 173.001125,188.835294 C176.998312,188.835294 179.987199,194.574714 180.990997,204.189676 L181,246.405954 C181,247.19562 180.347306,247.835294 179.541567,247.835294 L179.541567,247.835294 Z" id="Fill-944" fill="#FFFFFF"></path>
                <path d="M325.498895,91.8352941 C320.811679,91.8352941 317,95.6491841 317,100.3364 C317,105.023615 320.811679,108.835294 325.498895,108.835294 C330.18611,108.835294 334,105.023615 334,100.3364 C334,95.6491841 330.18611,91.8352941 325.498895,91.8352941 Z M325.5,111.835294 C319.157101,111.835294 314,106.676457 314,100.336413 C314,93.9941308 319.157101,88.8352941 325.5,88.8352941 C331.840661,88.8352941 337,93.9941308 337,100.336413 C337,106.676457 331.840661,111.835294 325.5,111.835294 L325.5,111.835294 Z" id="Fill-946" fill="#FFFFFF"></path>
                <polyline id="Fill-947" fill="#FFFFFF" points="324.564706 100.588235 392.964706 100.588235 324.564706 100.588235"></polyline>
                <path d="M392.891656,101.929412 L324.637756,101.929412 C323.85644,101.929412 323.223529,101.329194 323.223529,100.588235 C323.223529,99.8472767 323.85644,99.2470588 324.637756,99.2470588 L392.891656,99.2470588 C393.672972,99.2470588 394.305882,99.8472767 394.305882,100.588235 C394.305882,101.329194 393.672972,101.929412 392.891656,101.929412" id="Fill-948" fill="#FFFFFF"></path>
                <polyline id="Fill-949" fill="#252525" points="186.423529 85.8352941 186.423529 125.139238 162.845794 125.139238 153.564706 142.164706 144.325286 125.139238 120.705882 125.139238 120.705882 85.8352941 186.423529 85.8352941"></polyline>
                <path d="M122,123.335655 L144.242274,123.335655 C144.763062,123.335655 145.2421,123.620193 145.492606,124.08119 L153.504395,138.835294 L161.551343,124.078984 C161.801849,123.620193 162.280886,123.335655 162.801674,123.335655 L185,123.335655 L185,86.8352941 L122,86.8352941 L122,123.335655 Z M154,143.835294 L154,143.835294 C153.482311,143.835294 153.0103,143.549846 152.762331,143.093128 L143.998593,126.86209 L121.409507,126.86209 C120.630798,126.86209 120,126.22532 120,125.439239 L120,86.2581449 C120,85.4720637 120.630798,84.8352941 121.409507,84.8352941 L186.590493,84.8352941 C187.369202,84.8352941 188,85.4720637 188,86.2581449 L188,125.439239 C188,126.22532 187.369202,126.86209 186.590493,126.86209 L164.04056,126.86209 L155.237669,143.095324 C154.9897,143.552041 154.515514,143.835294 154,143.835294 L154,143.835294 Z" id="Fill-950" fill="#FFFFFF"></path>
                <path d="M140.823529,104.610833 C140.823529,105.35272 140.223725,105.952941 139.482353,105.952941 C138.74098,105.952941 138.141176,105.35272 138.141176,104.610833 C138.141176,103.870809 138.74098,103.270588 139.482353,103.270588 C140.223725,103.270588 140.823529,103.870809 140.823529,104.610833" id="Fill-951" fill="#FFFFFF"></path>
                <path d="M139.481372,107.294118 C138.0024,107.294118 136.8,106.091278 136.8,104.609802 C136.8,103.132252 138.0024,101.929412 139.481372,101.929412 C140.962306,101.929412 142.164706,103.132252 142.164706,104.609802 C142.164706,106.091278 140.962306,107.294118 139.481372,107.294118" id="Fill-952" fill="#FFFFFF"></path>
                <path d="M155.576471,104.610833 C155.576471,105.35272 154.976667,105.952941 154.235294,105.952941 C153.493922,105.952941 152.894118,105.35272 152.894118,104.610833 C152.894118,103.870809 153.493922,103.270588 154.235294,103.270588 C154.976667,103.270588 155.576471,103.870809 155.576471,104.610833" id="Fill-953" fill="#FFFFFF"></path>
                <path d="M154.235294,107.294118 C152.756863,107.294118 151.552941,106.091278 151.552941,104.609802 C151.552941,103.132252 152.756863,101.929412 154.235294,101.929412 C155.713725,101.929412 156.917647,103.132252 156.917647,104.609802 C156.917647,106.091278 155.713725,107.294118 154.235294,107.294118" id="Fill-954" fill="#FFFFFF"></path>
                <path d="M168.988235,104.610833 C168.988235,105.35272 168.386569,105.952941 167.647059,105.952941 C166.905686,105.952941 166.305882,105.35272 166.305882,104.610833 C166.305882,103.870809 166.905686,103.270588 167.647059,103.270588 C168.386569,103.270588 168.988235,103.870809 168.988235,104.610833" id="Fill-955" fill="#FFFFFF"></path>
                <path d="M167.64804,107.294118 C166.169068,107.294118 164.964706,106.091278 164.964706,104.609802 C164.964706,103.132252 166.169068,101.929412 167.64804,101.929412 C169.127012,101.929412 170.329412,103.132252 170.329412,104.609802 C170.329412,106.091278 169.127012,107.294118 167.64804,107.294118" id="Fill-956" fill="#FFFFFF"></path>
                <path d="M93,155.829277 L93,222.785423 C93,229.689381 97.406576,232.835294 101.501122,232.835294 C105.593424,232.835294 110,229.689381 110,222.785423 L110,155.829277 L101.498878,115.835294 L93,155.829277 Z M101.501131,235.835294 C95.785637,235.835294 90,231.384137 90,222.877675 L90,155.375783 C90,155.281218 90.0113133,155.184454 90.0316773,155.087689 L100.064338,107.972275 C100.204624,107.310319 100.80423,106.835294 101.498869,106.835294 C102.193507,106.835294 102.793114,107.310319 102.933399,107.972275 L112.970585,155.087689 C112.990949,155.184454 113,155.281218 113,155.375783 L113,222.877675 C113,231.384137 107.216626,235.835294 101.501131,235.835294 L101.501131,235.835294 Z" id="Fill-958" fill="#FFFFFF"></path>
                <polyline id="Fill-959" fill="#FFFFFF" points="92.5411765 213.247059 111.317647 213.247059 92.5411765 213.247059"></polyline>
                <path d="M111.205366,214.588235 L91.3122815,214.588235 C90.5092908,214.588235 89.8588235,213.988017 89.8588235,213.247059 C89.8588235,212.5061 90.5092908,211.905882 91.3122815,211.905882 L111.205366,211.905882 C112.008356,211.905882 112.658824,212.5061 112.658824,213.247059 C112.658824,213.988017 112.008356,214.588235 111.205366,214.588235" id="Fill-960" fill="#FFFFFF"></path>
                <polyline id="Fill-961" fill="#FFFFFF" points="92.5411765 202.517647 111.317647 202.517647 92.5411765 202.517647"></polyline>
                <path d="M111.205366,203.858824 L91.3122815,203.858824 C90.5092908,203.858824 89.8588235,203.258606 89.8588235,202.517647 C89.8588235,201.776688 90.5092908,201.176471 91.3122815,201.176471 L111.205366,201.176471 C112.008356,201.176471 112.658824,201.776688 112.658824,202.517647 C112.658824,203.258606 112.008356,203.858824 111.205366,203.858824" id="Fill-962" fill="#FFFFFF"></path>
                <polyline id="Fill-963" fill="#FFFFFF" points="96.5647059 131.435294 105.952941 131.435294 96.5647059 131.435294"></polyline>
                <path d="M105.879954,132.776471 L96.6376934,132.776471 C95.8564115,132.776471 95.2235294,132.176253 95.2235294,131.435294 C95.2235294,130.694336 95.8564115,130.094118 96.6376934,130.094118 L105.879954,130.094118 C106.661236,130.094118 107.294118,130.694336 107.294118,131.435294 C107.294118,132.176253 106.661236,132.776471 105.879954,132.776471" id="Fill-964" fill="#FFFFFF"></path>
                <polyline id="Fill-965" fill="#FFFFFF" points="92.5411765 156.917647 111.317647 156.917647 92.5411765 156.917647"></polyline>
                <path d="M111.205366,158.258824 L91.3122815,158.258824 C90.5092908,158.258824 89.8588235,157.658606 89.8588235,156.917647 C89.8588235,156.176688 90.5092908,155.576471 91.3122815,155.576471 L111.205366,155.576471 C112.008356,155.576471 112.658824,156.176688 112.658824,156.917647 C112.658824,157.658606 112.008356,158.258824 111.205366,158.258824" id="Fill-966" fill="#FFFFFF"></path>
                <polyline id="Fill-967" fill="#FFFFFF" points="99.2470588 164.964706 99.2470588 201.176471 99.2470588 164.964706"></polyline>
                <path d="M99.2470588,202.517647 C98.5061002,202.517647 97.9058824,201.875172 97.9058824,201.082047 L97.9058824,165.059129 C97.9058824,164.266005 98.5061002,163.623529 99.2470588,163.623529 C99.9880174,163.623529 100.588235,164.266005 100.588235,165.059129 L100.588235,201.082047 C100.588235,201.875172 99.9880174,202.517647 99.2470588,202.517647" id="Fill-968" fill="#FFFFFF"></path>
                <path d="M192.216128,282.417573 C191.544255,282.417573 191,281.83899 191,281.126735 L191,269.128127 C191,268.413877 191.544255,267.835294 192.216128,267.835294 C192.886125,267.835294 193.43038,268.413877 193.43038,269.128127 L193.43038,281.126735 C193.43038,281.83899 192.886125,282.417573 192.216128,282.417573" id="Fill-667" fill="#FFFFFF"></path>
                <path d="M200.720581,340.746687 C200.050584,340.746687 199.506329,340.176209 199.506329,339.469528 L199.506329,273.973212 C199.506329,273.268505 200.050584,272.696054 200.720581,272.696054 C201.390577,272.696054 201.936709,273.268505 201.936709,273.973212 L201.936709,339.469528 C201.936709,340.176209 201.390577,340.746687 200.720581,340.746687" id="Fill-668" fill="#FFFFFF"></path>
                <path d="M211.659166,358.974535 C210.987293,358.974535 210.443038,358.399141 210.443038,357.693247 L210.443038,300.711519 C210.443038,300.003647 210.987293,299.430231 211.659166,299.430231 C212.329163,299.430231 212.873418,300.003647 212.873418,300.711519 L212.873418,357.693247 C212.873418,358.399141 212.329163,358.974535 211.659166,358.974535" id="Fill-669" fill="#FFFFFF"></path>
                <path d="M223.809188,309.15175 C223.139192,309.15175 222.594937,308.586966 222.594937,307.88975 L222.594937,276.388434 C222.594937,275.691217 223.139192,275.126433 223.809188,275.126433 C224.481062,275.126433 225.025316,275.691217 225.025316,276.388434 L225.025316,307.88975 C225.025316,308.586966 224.481062,309.15175 223.809188,309.15175" id="Fill-670" fill="#FFFFFF"></path>
                <path d="M220.163619,358.974535 C219.493622,358.974535 218.949367,358.397611 218.949367,357.689839 L218.949367,339.59902 C218.949367,338.891248 219.493622,338.316307 220.163619,338.316307 C220.835492,338.316307 221.379747,338.891248 221.379747,339.59902 L221.379747,357.689839 C221.379747,358.397611 220.835492,358.974535 220.163619,358.974535" id="Fill-671" fill="#FFFFFF"></path>
                <path d="M235.962025,363.835294 C235.291511,363.835294 234.746835,363.262259 234.746835,362.554858 L234.746835,303.139071 C234.746835,302.433645 235.291511,301.860611 235.962025,301.860611 C236.63254,301.860611 237.177215,302.433645 237.177215,303.139071 L237.177215,362.554858 C237.177215,363.262259 236.63254,363.835294 235.962025,363.835294" id="Fill-672" fill="#FFFFFF"></path>
                <path d="M246.899673,294.569471 C246.227799,294.569471 245.683544,293.970856 245.683544,293.231875 L245.683544,283.755169 C245.683544,283.016188 246.227799,282.417573 246.899673,282.417573 C247.569669,282.417573 248.113924,283.016188 248.113924,283.755169 L248.113924,293.231875 C248.113924,293.970856 247.569669,294.569471 246.899673,294.569471" id="Fill-673" fill="#FFFFFF"></path>
                <path d="M254.189873,355.328965 C253.519359,355.328965 252.974684,354.750171 252.974684,354.037655 L252.974684,304.367111 C252.974684,303.654595 253.519359,303.0758 254.189873,303.0758 C254.860388,303.0758 255.405063,303.654595 255.405063,304.367111 L255.405063,354.037655 C255.405063,354.750171 254.860388,355.328965 254.189873,355.328965" id="Fill-674" fill="#FFFFFF"></path>
                <path d="M263.912331,332.240357 C263.240457,332.240357 262.696203,331.662644 262.696203,330.951459 L262.696203,276.417324 C262.696203,275.704147 263.240457,275.126433 263.912331,275.126433 C264.582327,275.126433 265.126582,275.704147 265.126582,276.417324 L265.126582,330.951459 C265.126582,331.662644 264.582327,332.240357 263.912331,332.240357" id="Fill-675" fill="#FFFFFF"></path>
                <path d="M273.631973,335.885927 C272.961976,335.885927 272.417722,335.301161 272.417722,334.581294 L272.417722,303.16726 C272.417722,302.445377 272.961976,301.860611 273.631973,301.860611 C274.303846,301.860611 274.848101,302.445377 274.848101,303.16726 L274.848101,334.581294 C274.848101,335.301161 274.303846,335.885927 273.631973,335.885927" id="Fill-676" fill="#FFFFFF"></path>
                <path d="M273.631973,295.784661 C272.961976,295.784661 272.417722,295.225806 272.417722,294.535908 L272.417722,282.451136 C272.417722,281.761238 272.961976,281.202383 273.631973,281.202383 C274.303846,281.202383 274.848101,281.761238 274.848101,282.451136 L274.848101,294.535908 C274.848101,295.225806 274.303846,295.784661 273.631973,295.784661" id="Fill-677" fill="#FFFFFF"></path>
                <path d="M273.631973,345.607446 C272.961976,345.607446 272.417722,344.991999 272.417722,344.23224 L272.417722,340.906703 C272.417722,340.146944 272.961976,339.531497 273.631973,339.531497 C274.303846,339.531497 274.848101,340.146944 274.848101,340.906703 L274.848101,344.23224 C274.848101,344.991999 274.303846,345.607446 273.631973,345.607446" id="Fill-678" fill="#FFFFFF"></path>
                <path d="M273.631973,352.898585 C272.961976,352.898585 272.417722,352.390064 272.417722,351.764057 L272.417722,350.389297 C272.417722,349.761537 272.961976,349.253016 273.631973,349.253016 C274.303846,349.253016 274.848101,349.761537 274.848101,350.389297 L274.848101,351.764057 C274.848101,352.390064 274.303846,352.898585 273.631973,352.898585" id="Fill-679" fill="#FFFFFF"></path>
                <path d="M235.962964,295.784661 C235.29109,295.784661 234.746835,295.27614 234.746835,294.64838 L234.746835,293.27362 C234.746835,292.647613 235.29109,292.139092 235.962964,292.139092 C236.63296,292.139092 237.177215,292.647613 237.177215,293.27362 L237.177215,294.64838 C237.177215,295.27614 236.63296,295.784661 235.962964,295.784661" id="Fill-680" fill="#FFFFFF"></path>
                <path d="M235.962964,284.847952 C235.29109,284.847952 234.746835,284.339676 234.746835,283.712217 L234.746835,282.336365 C234.746835,281.710659 235.29109,281.202383 235.962964,281.202383 C236.63296,281.202383 237.177215,281.710659 237.177215,282.336365 L237.177215,283.712217 C237.177215,284.339676 236.63296,284.847952 235.962964,284.847952" id="Fill-681" fill="#FFFFFF"></path>
                <path d="M225.024378,317.658079 C224.354382,317.658079 223.810127,317.149558 223.810127,316.521797 L223.810127,315.147037 C223.810127,314.52103 224.354382,314.012509 225.024378,314.012509 C225.696251,314.012509 226.240506,314.52103 226.240506,315.147037 L226.240506,316.521797 C226.240506,317.149558 225.696251,317.658079 225.024378,317.658079" id="Fill-682" fill="#FFFFFF"></path>
                <path d="M225.024378,327.379598 C224.354382,327.379598 223.810127,326.871077 223.810127,326.24507 L223.810127,324.87031 C223.810127,324.242549 224.354382,323.734028 225.024378,323.734028 C225.696251,323.734028 226.240506,324.242549 226.240506,324.87031 L226.240506,326.24507 C226.240506,326.871077 225.696251,327.379598 225.024378,327.379598" id="Fill-683" fill="#FFFFFF"></path>
                <path d="M211.659166,294.569471 C210.987293,294.569471 210.443038,294.061195 210.443038,293.433736 L210.443038,292.057884 C210.443038,291.432178 210.987293,290.923902 211.659166,290.923902 C212.329163,290.923902 212.873418,291.432178 212.873418,292.057884 L212.873418,293.433736 C212.873418,294.061195 212.329163,294.569471 211.659166,294.569471" id="Fill-684" fill="#FFFFFF"></path>
                <path d="M211.659166,286.063142 C210.987293,286.063142 210.443038,285.554621 210.443038,284.928614 L210.443038,283.553854 C210.443038,282.926094 210.987293,282.417573 211.659166,282.417573 C212.329163,282.417573 212.873418,282.926094 212.873418,283.553854 L212.873418,284.928614 C212.873418,285.554621 212.329163,286.063142 211.659166,286.063142" id="Fill-685" fill="#FFFFFF"></path>
                <path d="M211.659166,277.556813 C210.987293,277.556813 210.443038,277.048537 210.443038,276.421078 L210.443038,275.045226 C210.443038,274.41952 210.987293,273.911243 211.659166,273.911243 C212.329163,273.911243 212.873418,274.41952 212.873418,275.045226 L212.873418,276.421078 C212.873418,277.048537 212.329163,277.556813 211.659166,277.556813" id="Fill-686" fill="#FFFFFF"></path>
                <path d="M246.899673,277.556813 C246.227799,277.556813 245.683544,277.048537 245.683544,276.422831 L245.683544,275.046979 C245.683544,274.41952 246.227799,273.911243 246.899673,273.911243 C247.569669,273.911243 248.113924,274.41952 248.113924,275.046979 L248.113924,276.422831 C248.113924,277.048537 247.569669,277.556813 246.899673,277.556813" id="Fill-687" fill="#FFFFFF"></path>
                <path d="M255.405063,296.999851 C254.734549,296.999851 254.189873,296.491575 254.189873,295.864116 L254.189873,294.490017 C254.189873,293.864311 254.734549,293.354281 255.405063,293.354281 C256.077456,293.354281 256.620253,293.864311 256.620253,294.490017 L256.620253,295.864116 C256.620253,296.491575 256.077456,296.999851 255.405063,296.999851" id="Fill-688" fill="#FFFFFF"></path>
                <path d="M282.140179,290.923902 C281.468306,290.923902 280.924051,290.360003 280.924051,289.663881 L280.924051,270.310505 C280.924051,269.614382 281.468306,269.050484 282.140179,269.050484 C282.810175,269.050484 283.35443,269.614382 283.35443,270.310505 L283.35443,289.663881 C283.35443,290.360003 282.810175,290.923902 282.140179,290.923902" id="Fill-689" fill="#FFFFFF"></path>
                <path d="M386.897715,258.835294 L400,258.835294 L400,244.755361 L399.587382,244.755361 C391.716743,244.755361 387.599387,239.992932 387.599387,235.290702 C387.599387,232.757875 388.715883,230.407875 390.745877,228.675474 C392.925913,226.811528 395.981936,225.826044 399.587382,225.826044 L400,225.826044 L400,211.835294 L386.897715,211.835294 L386.897715,213.005835 C386.897715,218.026898 384.991286,222.015655 381.672688,223.948719 C379.062381,225.469307 375.946782,225.464848 373.343094,223.937571 C370.037735,222.000047 368.148958,218.01352 368.164404,213.001376 L368.164404,211.835294 L355.064326,211.835294 L355.064326,227.270825 C355.064326,228.069023 354.42223,228.715607 353.632297,228.715607 L350.126145,228.715607 C347.206926,228.715607 344.790792,229.464753 343.1337,230.88055 C341.759041,232.05555 341,233.620731 341,235.290702 C341,238.456736 343.85523,241.865797 350.126145,241.865797 L353.632297,241.865797 C354.42223,241.865797 355.064326,242.512381 355.064326,243.310579 L355.064326,258.835294 L368.164404,258.835294 L368.164404,257.575569 C368.148958,252.565655 370.037735,248.581357 373.343094,246.643833 C375.946782,245.116556 379.060174,245.112097 381.672688,246.632685 C384.991286,248.56575 386.897715,252.554507 386.897715,257.575569 L386.897715,258.835294 Z M400.586021,261.835294 L384.800955,261.835294 C384.019775,261.835294 383.386976,261.198255 383.386976,260.41184 L383.386976,257.747258 C383.386976,253.84594 382.01882,250.81451 379.636004,249.432793 C377.940539,248.450874 375.919945,248.45307 374.228844,249.439383 C371.85912,250.823297 370.504057,253.850333 370.51715,257.742864 L370.51715,260.41184 C370.51715,261.198255 369.88435,261.835294 369.103171,261.835294 L353.318104,261.835294 C352.539107,261.835294 351.906308,261.198255 351.906308,260.41184 L351.906308,245.116301 L349.850801,245.116301 C342.069553,245.116301 338,240.424175 338,235.79136 C338,231.158545 342.069553,226.466419 349.850801,226.466419 L351.906308,226.466419 L351.906308,211.258748 C351.906308,210.472334 352.539107,209.835294 353.318104,209.835294 L369.103171,209.835294 C369.88435,209.835294 370.51715,210.472334 370.51715,211.258748 L370.51715,213.835463 C370.504057,217.732388 371.85912,220.759424 374.228844,222.143337 C375.919945,223.131847 377.940539,223.131847 379.636004,222.149927 C382.01882,220.768211 383.386976,217.736781 383.386976,213.835463 L383.386976,211.258748 C383.386976,210.472334 384.019775,209.835294 384.800955,209.835294 L400.586021,209.835294 C401.367201,209.835294 402,210.472334 402,211.258748 L402,227.889873 C402,228.676288 401.367201,229.313327 400.586021,229.313327 L398.763996,229.313327 C395.877122,229.313327 393.485578,230.051414 391.846846,231.446311 C390.485237,232.603966 389.736788,234.146041 389.736788,235.79136 C389.736788,238.910657 392.560382,242.269393 398.763996,242.269393 L400.586021,242.269393 C401.367201,242.269393 402,242.906433 402,243.692847 L402,260.41184 C402,261.198255 401.367201,261.835294 400.586021,261.835294 L400.586021,261.835294 Z" id="Fill-973" fill="#FFFFFF"></path>
                <path d="M433.943075,257.835294 L447,257.835294 L447,244.10501 L446.633691,244.10501 C438.764671,244.10501 434.647006,239.45215 434.647006,234.853646 C434.647006,232.379368 435.763586,230.083378 437.791525,228.38965 C439.971725,226.567642 443.030183,225.604457 446.633691,225.604457 L447,225.604457 L447,211.958967 L432.513147,211.958967 C431.723155,211.958967 431.083218,211.32844 431.083218,210.552238 L431.083218,207.827924 C431.083218,201.648752 427.698171,198.835294 424.553652,198.835294 C421.41134,198.835294 418.026293,201.648752 418.026293,207.827924 L418.026293,210.552238 C418.026293,211.32844 417.386356,211.958967 416.596365,211.958967 L402.109511,211.958967 L402.109511,227.01336 C402.109511,227.791736 401.469574,228.422263 400.679583,228.422263 L397.126828,228.422263 C394.209597,228.422263 391.791076,229.152806 390.133859,230.537793 C388.756891,231.687962 388,233.220797 388,234.853646 C388,237.954103 390.855444,241.287203 397.126828,241.287203 L400.679583,241.287203 C401.469574,241.287203 402.109511,241.917731 402.109511,242.696106 L402.109511,257.835294 L415.166436,257.835294 L415.166436,256.606852 C415.166436,248.853536 419.888731,244.796416 424.553652,244.796416 C429.22078,244.796416 433.943075,248.853536 433.943075,256.606852 L433.943075,257.835294 Z M447.585973,259.835294 L431.846193,259.835294 C431.064987,259.835294 430.432166,259.210967 430.432166,258.440246 L430.432166,255.828836 C430.432166,249.710429 427.084763,246.924637 423.975212,246.924637 C420.867844,246.924637 417.520441,249.710429 417.520441,255.828836 L417.520441,258.440246 C417.520441,259.210967 416.88762,259.835294 416.106413,259.835294 L400.366634,259.835294 C399.585427,259.835294 398.952607,259.210967 398.952607,258.440246 L398.952607,243.449934 L396.853387,243.449934 C389.071874,243.449934 385,238.842829 385,234.289546 C385,229.738416 389.071874,225.131311 396.853387,225.131311 L398.952607,225.131311 L398.952607,210.227113 C398.952607,209.456392 399.585427,208.832065 400.366634,208.832065 L414.692386,208.832065 L414.692386,207.529589 C414.692386,199.852517 419.362167,195.835294 423.975212,195.835294 C428.590439,195.835294 433.26022,199.852517 433.26022,207.529589 L433.26022,208.832065 L447.585973,208.832065 C448.367179,208.832065 449,209.456392 449,210.227113 L449,226.52636 C449,227.297081 448.367179,227.921408 447.585973,227.921408 L445.809711,227.921408 C442.924921,227.921408 440.533295,228.644767 438.894507,230.016134 C437.532851,231.154993 436.784377,232.672754 436.784377,234.289546 C436.784377,237.359514 439.610249,240.659837 445.809711,240.659837 L447.585973,240.659837 C448.367179,240.659837 449,241.284164 449,242.054885 L449,258.440246 C449,259.210967 448.367179,259.835294 447.585973,259.835294 L447.585973,259.835294 Z" id="Fill-975" fill="#FFFFFF"></path>
                <path d="M354,207.772456 L368.229511,207.772456 C369.002995,207.772456 369.629561,208.404419 369.629561,209.184566 L369.629561,211.825735 C369.629561,215.715576 370.986398,218.735922 373.352222,220.108807 C375.024503,221.078543 377.020869,221.078543 378.688829,220.10227 C381.041689,218.727206 382.383403,215.711217 382.370439,211.830094 L382.370439,209.184566 C382.370439,208.404419 382.997005,207.772456 383.770489,207.772456 L398,207.772456 L398,194.01092 L397.595973,194.01092 C389.912988,194.01092 385.892168,189.356187 385.892168,184.760292 C385.892168,182.284741 386.981095,179.990062 388.962337,178.294658 C391.090498,176.472861 394.076406,175.509663 397.595973,175.509663 L398,175.509663 L398,161.835294 L385.170538,161.835294 L385.170538,162.979365 C385.170538,170.728537 380.555561,174.783995 376.00108,174.783995 C371.444439,174.783995 366.829462,170.728537 366.829462,162.979365 L366.829462,161.835294 L354,161.835294 L354,207.772456 Z M376.015247,223.835294 C374.610385,223.835294 373.203346,223.468581 371.920457,222.737313 C368.63809,220.864921 366.754051,216.992866 366.754051,212.115587 L366.754051,210.898963 L352.409218,210.898963 C351.631643,210.898963 351,210.273394 351,209.501141 L351,161.233117 C351,160.460863 351.631643,159.835294 352.409218,159.835294 L368.165447,159.835294 C368.9452,159.835294 369.576843,160.460863 369.576843,161.233117 L369.576843,163.763435 C369.576843,169.872437 372.907127,172.652983 376,172.652983 C379.090695,172.652983 382.420979,169.872437 382.420979,163.763435 L382.420979,161.233117 C382.420979,160.460863 383.052622,159.835294 383.832375,159.835294 L399.588604,159.835294 C400.368357,159.835294 401,160.460863 401,161.233117 L401,177.564776 C401,178.33703 400.368357,178.962599 399.588604,178.962599 L397.769908,178.962599 C394.899198,178.962599 392.520735,179.685239 390.891532,181.055018 C389.538944,182.193985 388.794041,183.708293 388.794041,185.323986 C388.794041,188.387116 391.601586,191.685373 397.769908,191.685373 L399.588604,191.685373 C400.368357,191.685373 401,192.310942 401,193.083196 L401,209.501141 C401,210.273394 400.368357,210.898963 399.588604,210.898963 L385.243771,210.898963 L385.243771,212.115587 C385.259017,216.979923 383.394581,220.847664 380.125283,222.726527 C378.840216,223.464267 377.42882,223.835294 376.015247,223.835294 L376.015247,223.835294 Z" id="Fill-977" fill="#FFFFFF"></path>
                <polyline id="Fill-978" fill="#FFFFFF" points="417.105882 178.376471 461.364706 134.117647 417.105882 178.376471"></polyline>
                <path d="M418,172.835294 C414.690141,172.835294 412,175.527828 412,178.838821 C412,182.145112 414.690141,184.835294 418,184.835294 C421.309859,184.835294 424,182.145112 424,178.838821 C424,175.527828 421.309859,172.835294 418,172.835294 Z M417.5,187.835294 C412.813084,187.835294 409,184.023883 409,179.337504 C409,174.648915 412.813084,170.835294 417.5,170.835294 C422.186916,170.835294 426,174.648915 426,179.337504 C426,184.023883 422.186916,187.835294 417.5,187.835294 L417.5,187.835294 Z" id="Fill-981" fill="#FFFFFF"></path>
                <polyline id="Fill-1026" fill="#FFFFFF" points="32.1882353 152.894118 32.1882353 178.376471 32.1882353 152.894118"></polyline>
                <path d="M32.1882353,179.717647 C31.4472767,179.717647 30.8470588,179.088098 30.8470588,178.310931 L30.8470588,152.959657 C30.8470588,152.18249 31.4472767,151.552941 32.1882353,151.552941 C32.9291939,151.552941 33.5294118,152.18249 33.5294118,152.959657 L33.5294118,178.310931 C33.5294118,179.088098 32.9291939,179.717647 32.1882353,179.717647" id="Fill-1027" fill="#FFFFFF"></path>
                <polyline id="Fill-1028" fill="#FFFFFF" points="52.3058824 168.988235 52.3058824 174.352941 52.3058824 168.988235"></polyline>
                <path d="M52.3058824,175.694118 C51.5649237,175.694118 50.9647059,175.07264 50.9647059,174.305437 L50.9647059,169.035739 C50.9647059,168.268536 51.5649237,167.647059 52.3058824,167.647059 C53.046841,167.647059 53.6470588,168.268536 53.6470588,169.035739 L53.6470588,174.305437 C53.6470588,175.07264 53.046841,175.694118 52.3058824,175.694118" id="Fill-1029" fill="#FFFFFF"></path>
                <polyline id="Fill-1030" fill="#FFFFFF" points="52.3058824 143.505882 52.3058824 148.870588 52.3058824 143.505882"></polyline>
                <path d="M52.3058824,150.211765 C51.5649237,150.211765 50.9647059,149.590287 50.9647059,148.823085 L50.9647059,143.553386 C50.9647059,142.786183 51.5649237,142.164706 52.3058824,142.164706 C53.046841,142.164706 53.6470588,142.786183 53.6470588,143.553386 L53.6470588,148.823085 C53.6470588,149.590287 53.046841,150.211765 52.3058824,150.211765" id="Fill-1031" fill="#FFFFFF"></path>
                <polyline id="Fill-1032" fill="#FFFFFF" points="52.3058824 119.364706 52.3058824 124.729412 52.3058824 119.364706"></polyline>
                <path d="M52.3058824,126.070588 C51.5649237,126.070588 50.9647059,125.449111 50.9647059,124.681908 L50.9647059,119.41221 C50.9647059,118.645007 51.5649237,118.023529 52.3058824,118.023529 C53.046841,118.023529 53.6470588,118.645007 53.6470588,119.41221 L53.6470588,124.681908 C53.6470588,125.449111 53.046841,126.070588 52.3058824,126.070588" id="Fill-1033" fill="#FFFFFF"></path>
                <polyline id="Fill-1034" fill="#FFFFFF" points="52.3058824 95.2235294 52.3058824 100.588235 52.3058824 95.2235294"></polyline>
                <path d="M52.3058824,101.929412 C51.5649237,101.929412 50.9647059,101.307769 50.9647059,100.540362 L50.9647059,95.2714031 C50.9647059,94.5039957 51.5649237,93.8823529 52.3058824,93.8823529 C53.046841,93.8823529 53.6470588,94.5039957 53.6470588,95.2714031 L53.6470588,100.540362 C53.6470588,101.307769 53.046841,101.929412 52.3058824,101.929412" id="Fill-1035" fill="#FFFFFF"></path>
                <path d="M58.537042,278.964706 L20.5804934,278.964706 C9.23089196,278.964706 0,269.815887 0,258.571554 C0,247.322864 9.23089196,238.174045 20.5804934,238.174045 C23.4904222,238.176224 26.3322182,238.77961 28.9498355,239.936282 C28.2575186,236.912815 27.9080634,233.81093 27.9080634,230.678549 C27.9080634,207.754224 46.7236981,189.105882 69.853676,189.105882 C74.5416504,189.108061 79.1439094,189.868284 83.5329787,191.366947 C84.2780436,191.621807 84.6714554,192.425596 84.416507,193.161859 C84.1593607,193.898121 83.3505587,194.292391 82.6054939,194.037531 C78.5131318,192.639069 74.2229649,191.931125 69.853676,191.928946 C48.2951476,191.928946 30.754255,209.311701 30.754255,230.678549 C30.754255,234.660463 31.3608565,238.58792 32.5586746,242.347649 C32.7388968,242.918361 32.5388942,243.541352 32.0553712,243.90077 C31.5696505,244.260188 30.9124989,244.277614 30.4091955,243.946514 C27.4970689,242.018727 24.0970237,240.999288 20.5782956,240.997109 C10.8023414,240.997109 2.84838952,248.880341 2.84838952,258.571554 C2.84838952,268.260588 10.8023414,276.141642 20.5804934,276.141642 L58.537042,276.141642 C59.3238657,276.141642 59.9612368,276.773346 59.9612368,277.553174 C59.9612368,278.333002 59.3238657,278.964706 58.537042,278.964706" id="Fill-1036" fill="#FFFFFF"></path>
                <path d="M137.053937,201.176471 C136.580705,201.176471 136.129181,200.932418 135.866516,200.51467 C134.014834,197.555259 131.35996,195.23566 128.181927,193.808723 C126.228218,192.929254 124.159457,192.42356 122.036426,192.30703 C121.261455,192.265255 120.666659,191.59466 120.707904,190.807536 C120.75132,190.02261 121.398215,189.417976 122.188381,189.461949 C124.654396,189.598267 127.055288,190.185312 129.323761,191.203297 C131.952585,192.386182 134.275328,194.09455 136.170426,196.222864 C136.765222,193.15132 137.703002,190.147935 138.966401,187.25888 C143.453419,177.010873 151.609069,169.146225 161.933336,165.113861 C172.257603,161.083697 183.513138,161.362928 193.633351,165.905383 C194.343199,166.22419 194.664475,167.066282 194.349711,167.785247 C194.037117,168.504213 193.207877,168.834014 192.493687,168.510809 C183.061614,164.273969 172.570196,164.012327 162.947094,167.772055 C153.321821,171.531783 145.719722,178.862154 141.538784,188.415381 C139.93023,192.084964 138.892594,195.952427 138.451924,199.912235 C138.3868,200.512472 137.950472,201.004974 137.370872,201.141292 C137.264503,201.165477 137.160305,201.176471 137.053937,201.176471" id="Fill-1037" fill="#FFFFFF"></path>
                <path d="M92.3861487,298.429954 C94.1640089,299.48229 96.1052754,300.288428 98.1881606,300.835294 C98.3537456,299.606479 98.6762006,298.656544 99.1794919,297.798116 C99.2252457,297.72186 99.3123957,297.604208 99.371222,297.536666 C99.684962,297.052984 100.162108,296.935331 100.726405,297.04209 C103.43677,297.556275 105.622056,297.554096 108.312813,297.039911 C108.868394,296.935331 109.439227,297.170636 109.752967,297.643425 C110.389162,298.691404 110.718153,299.689271 110.861951,300.833115 C112.92087,300.28407 114.859957,299.477933 116.659605,298.41906 C115.968941,297.521415 115.537549,296.700026 115.310959,295.898246 C115.25649,295.798024 115.217272,295.691265 115.191127,295.580149 C115.171519,295.501714 115.154089,295.370989 115.149731,295.292554 C115.014649,294.721721 115.276099,294.309937 115.76196,293.983125 C117.912386,292.529898 119.740358,290.704106 121.191406,288.558037 C121.516039,288.078712 122.093408,287.841228 122.668598,287.971953 C123.836408,288.27262 124.795058,288.758482 125.625162,289.431715 C126.651354,287.653855 127.455312,285.69298 128,283.642776 C126.803866,283.47937 125.847395,283.150378 125.006397,282.655802 C124.995503,282.649266 124.98461,282.64273 124.973716,282.636193 C124.927962,282.60787 124.864778,282.562116 124.81031,282.518541 C124.365845,282.202622 124.141433,281.64922 124.246013,281.104532 C124.505285,279.755886 124.631652,278.516177 124.631652,277.313507 C124.631652,276.110836 124.505285,274.871128 124.246013,273.52466 C124.139255,272.964721 124.376738,272.398246 124.849527,272.082327 C124.925783,272.016965 124.969358,271.99082 125.058687,271.942887 C125.888791,271.454847 126.893195,271.117141 127.997821,270.973343 C127.455312,268.936212 126.660069,267.001482 125.616447,265.193119 C124.72316,265.907749 123.795012,266.371823 122.777536,266.63763 C122.692564,266.657239 122.564018,266.679027 122.479047,266.685563 C121.930002,266.785785 121.485537,266.535229 121.171797,266.071155 C119.722928,263.931623 117.901493,262.112366 115.76196,260.663497 C115.286992,260.343221 115.053866,259.761495 115.173697,259.199377 C115.472186,258.014137 115.958047,257.053308 116.637818,256.214489 C114.827276,255.170868 112.890367,254.375624 110.851057,253.835294 C110.689829,255.024892 110.360838,255.983542 109.861904,256.831076 C109.822687,256.898617 109.739894,257.011912 109.689783,257.072917 C109.373864,257.547885 108.866215,257.693861 108.310634,257.589281 C105.626414,257.070738 103.414982,257.070738 100.732941,257.589281 C100.179538,257.698218 99.632672,257.46945 99.3167532,257.027163 C99.2775357,256.977052 99.2339607,256.920404 99.2099944,256.881187 C98.6631281,255.948682 98.3276006,254.942099 98.1794456,253.839652 C96.1335991,254.38216 94.1749027,255.186119 92.3970425,256.214489 C93.107315,257.096883 93.5713888,258.02721 93.8437326,259.051222 C93.8676989,259.140551 93.8873076,259.262561 93.8916651,259.354068 C94.0180326,259.920544 93.7587614,260.319255 93.2772576,260.643889 C91.1507973,262.081864 89.3337196,263.898941 87.8783145,266.040653 C87.5493232,266.524335 86.9588819,266.757462 86.3836918,266.6202 C85.3400705,266.41104 84.3727054,265.931715 83.4096978,265.184404 C82.3530039,266.984052 81.5468663,268.925318 81,270.982058 C82.2244576,271.143286 83.1743927,271.465741 84.0371778,271.97339 C84.1090766,272.014786 84.2267291,272.099757 84.2899128,272.154226 C84.7627017,272.470145 84.9021417,272.964721 84.7953829,273.522481 C84.5382904,274.871128 84.4119229,276.110836 84.4119229,277.313507 C84.4119229,278.513998 84.5361116,279.755886 84.7932042,281.10889 C84.9021417,281.673186 84.6537641,282.248376 84.1700816,282.557758 C83.1438902,283.180881 82.1482014,283.509872 81.0021788,283.655849 C81.5512238,285.738734 82.3573614,287.68 83.4096978,289.45786 C84.4337104,288.666974 85.3662155,288.213794 86.2856481,288.017707 C86.3553681,288.002455 86.4839143,287.985025 86.5579918,287.980668 C87.1222882,287.8543 87.5318932,288.109214 87.8608845,288.592897 C89.3032171,290.719357 91.1137586,292.529898 93.2423976,293.976588 C93.7282589,294.303401 93.9592064,294.8982 93.8241239,295.466854 C93.6149638,296.503939 93.13346,297.473483 92.3861487,298.429954 Z M110.030302,304.835294 C109.701703,304.835294 109.37972,304.720618 109.121693,304.508908 C108.793094,304.237655 108.601227,303.831877 108.601227,303.406252 L108.601227,301.860328 C108.552709,301.505273 108.462289,301.132575 108.329967,300.770904 C106.038595,301.114932 104.007455,301.114932 101.705056,300.770904 C101.588171,301.123754 101.486725,301.555995 101.429385,302.032342 L101.440412,303.406252 C101.440412,303.831877 101.250751,304.237655 100.922152,304.508908 C100.591347,304.780161 100.154685,304.890427 99.7422822,304.80883 C96.0063967,304.089899 92.6189585,302.676293 89.672593,300.607711 C89.3263509,300.367332 89.1058146,299.983607 89.0705288,299.562393 C89.0330376,299.143383 89.1830023,298.728785 89.4829317,298.431067 L90.5679705,297.341643 C90.7863015,297.054953 90.9825789,296.741798 91.1325436,296.424233 C89.3307617,295.081198 87.7495161,293.497784 86.4064498,291.698249 C86.0954936,291.857032 85.7360194,292.086384 85.3677237,292.379691 L84.4039799,293.352233 C84.1084612,293.652156 83.7004689,293.804322 83.2726284,293.764627 C82.851404,293.727137 82.4698762,293.506605 82.2272862,293.162577 C80.1586553,290.218485 78.7450174,286.82892 78.0260689,283.093121 C77.9444705,282.674112 78.056944,282.241871 78.3282037,281.913279 C78.5994634,281.584688 79.0030449,281.395031 79.4286801,281.395031 L80.9746398,281.395031 C81.3297033,281.346514 81.7024097,281.253891 82.0640893,281.121572 C81.892071,279.97481 81.8082672,278.88318 81.8082672,277.813604 C81.8082672,276.739617 81.8942763,275.647987 82.0662947,274.499019 C81.7068204,274.379933 81.2789799,274.280693 80.8070322,274.225561 L79.4286801,274.234382 C79.0030449,274.234382 78.5994634,274.044725 78.3282037,273.716134 C78.056944,273.387542 77.9444705,272.953096 78.0260689,272.536292 C78.7339906,268.857831 80.1454232,265.472677 82.2206701,262.471247 C82.4632601,262.122807 82.8447879,261.900071 83.2682177,261.86258 C83.6762099,261.82509 84.1062558,261.975051 84.4061852,262.274974 L85.4934294,263.362193 C85.7845373,263.584929 86.104315,263.783407 86.4262981,263.933369 C87.7715698,262.131629 89.3506099,260.548214 91.141365,259.211795 C90.9693467,258.843508 90.7510157,258.510506 90.4863721,258.197352 L89.4829317,257.198345 C89.1830023,256.898423 89.0308323,256.481619 89.0705288,256.058199 C89.1102253,255.634779 89.3351724,255.251054 89.6858252,255.010675 C92.6189585,252.999431 96.0968165,251.563772 99.7422822,250.862483 C100.154685,250.778681 100.591347,250.891152 100.922152,251.164611 C101.250751,251.435864 101.440412,251.839436 101.440412,252.265062 L101.440412,253.80878 C101.491135,254.146193 101.581555,254.505659 101.713877,254.858509 C103.996428,254.516685 106.045211,254.51448 108.323351,254.858509 C108.464494,254.479195 108.559325,254.073418 108.612254,253.634561 L108.601227,252.265062 C108.601227,251.839436 108.793094,251.435864 109.121693,251.164611 C109.450292,250.893358 109.884748,250.780887 110.301562,250.862483 C113.938206,251.563772 117.319028,252.95753 120.351403,255.006265 C120.704261,255.244438 120.931414,255.628163 120.973316,256.053788 C121.015217,256.477208 120.863047,256.898423 120.560913,257.20055 L119.473668,258.285564 C119.257543,258.547996 119.056855,258.869972 118.891453,259.227232 C120.686618,260.568062 122.265659,262.147066 123.608725,263.944395 C123.97261,263.772381 124.318852,263.55185 124.64304,263.278391 L125.635454,262.277179 C125.935383,261.972846 126.363224,261.822885 126.782243,261.86258 C127.205673,261.904481 127.591611,262.131629 127.82979,262.484478 C129.878573,265.514577 131.272363,268.897526 131.973668,272.536292 C132.055267,272.953096 131.944998,273.387542 131.673739,273.716134 C131.402479,274.044725 130.996692,274.234382 130.571057,274.234382 L129.027303,274.234382 C128.689882,274.280693 128.330408,274.371111 127.97755,274.505635 C128.149568,275.652398 128.235577,276.741822 128.235577,277.813604 C128.235577,278.885385 128.149568,279.97481 127.97755,281.119367 C128.352461,281.256096 128.760454,281.348719 129.205937,281.406057 L130.571057,281.395031 C130.996692,281.395031 131.402479,281.584688 131.673739,281.913279 C131.944998,282.241871 132.055267,282.674112 131.973668,283.093121 C131.272363,286.740707 129.836671,290.218485 127.823174,293.149345 C127.584995,293.499989 127.199056,293.724931 126.777832,293.762422 C126.345581,293.806528 125.935383,293.649951 125.635454,293.350028 L124.55262,292.26722 C124.290182,292.051099 123.979226,291.854826 123.626368,291.691633 C122.285507,293.486757 120.702056,295.067966 118.90689,296.408796 C119.070087,296.746209 119.297239,297.099059 119.586142,297.467346 L120.563118,298.428862 C120.860842,298.728785 121.013012,299.145589 120.973316,299.569009 C120.935824,299.990223 120.710877,300.373948 120.364635,300.614327 C117.363136,302.689525 113.977903,304.100925 110.301562,304.80883 C110.211142,304.826473 110.120722,304.835294 110.030302,304.835294 L110.030302,304.835294 Z" id="Fill-1063" fill="#FFFFFF"></path>
                <path d="M104.502182,271.835294 C101.467473,271.835294 99,274.300586 99,277.335294 C99,280.367821 101.467473,282.835294 104.502182,282.835294 C107.532527,282.835294 110,280.367821 110,277.335294 C110,274.300586 107.532527,271.835294 104.502182,271.835294 Z M105.002096,285.835294 C100.590254,285.835294 97,282.246666 97,277.836342 C97,273.423922 100.590254,269.835294 105.002096,269.835294 C109.411842,269.835294 113,273.423922 113,277.836342 C113,282.246666 109.411842,285.835294 105.002096,285.835294 L105.002096,285.835294 Z" id="Fill-1065" fill="#FFFFFF"></path>
                <path d="M137.957932,258.423316 C138.479241,258.423316 138.960957,258.707097 139.211713,259.169067 C139.233709,259.213065 139.299698,259.334057 139.319494,259.380254 C139.634039,260.143604 139.79901,260.948752 139.818807,261.835294 C141.387132,261.621908 142.898268,261.225934 144.339016,260.651771 C143.934286,259.890621 143.703327,259.210865 143.610943,258.566307 C143.575749,258.458514 143.551553,258.344121 143.542755,258.227529 C143.540555,258.187931 143.540555,258.132935 143.540555,258.082338 C143.525158,257.530174 143.833104,257.011008 144.336816,256.764624 C146.265878,255.816485 147.97058,254.527369 149.406929,252.928073 C149.79846,252.494701 150.416552,252.340711 150.966456,252.549698 C151.848502,252.914874 152.556778,253.383443 153.148474,253.966406 C154.070113,252.743285 154.859775,251.385973 155.488864,249.940667 C154.584823,249.659086 153.883145,249.28511 153.282651,248.805541 C153.258455,248.785742 153.234259,248.763744 153.210063,248.743945 C153.185867,248.719747 153.135276,248.67135 153.11328,248.647151 C152.609568,248.279775 152.554578,247.756209 152.754743,247.166648 C153.124278,246.086518 153.368436,245.083383 153.504812,244.102247 C153.641188,243.121111 153.678581,242.091577 153.616992,240.958651 C153.586197,240.404287 153.880946,239.885121 154.36926,239.623338 C154.452846,239.579341 154.624416,239.497946 154.7146,239.469348 C155.332692,239.203165 156.133352,239.038176 157,239.016177 C156.788837,237.465278 156.401705,235.960576 155.838603,234.51527 C155.05774,234.939842 154.283475,235.181827 153.465219,235.28082 C153.397031,235.28962 153.317844,235.28742 153.245257,235.291819 C153.238658,235.291819 153.232059,235.291819 153.225461,235.291819 C152.690954,235.291819 152.191641,234.990439 151.947484,234.497671 C150.99725,232.572796 149.712675,230.872307 148.126753,229.448999 C147.713225,229.077223 147.554853,228.498661 147.717624,227.968495 C148.102557,227.009358 148.573275,226.287805 149.160572,225.689444 C147.924388,224.752305 146.578224,223.971355 145.141875,223.348796 C144.864724,224.233138 144.492989,224.934893 144.009073,225.546453 C143.965081,225.601449 143.872697,225.700443 143.819907,225.74664 C143.437173,226.107416 142.860874,226.241608 142.368161,226.078818 C141.281551,225.709242 140.280726,225.465058 139.308496,225.333067 C138.325268,225.194476 137.298048,225.159278 136.152048,225.216474 C135.547154,225.253872 135.003849,224.901895 134.768491,224.35413 C134.414352,223.531384 134.240583,222.708637 134.214188,221.835294 C132.65466,222.04648 131.136926,222.438055 129.713775,222.992419 C130.133902,223.760169 130.378059,224.534519 130.481441,225.361665 C130.48584,225.403462 130.490239,225.451859 130.492439,225.500256 C130.529832,226.070019 130.221886,226.617783 129.696178,226.875167 C127.795711,227.805706 126.099808,229.088223 124.65466,230.685319 C124.265329,231.112091 123.651636,231.266081 123.110531,231.068094 C122.283475,230.777713 121.559802,230.309143 120.880121,229.657986 C119.936486,230.887706 119.144625,232.236218 118.515535,233.688124 C119.423976,233.965306 120.125653,234.332682 120.752543,234.829849 C120.818532,234.882646 120.919714,234.98164 120.976904,235.047635 C121.313445,235.43041 121.441023,235.989174 121.278251,236.473143 C120.913115,237.542273 120.668958,238.541008 120.534781,239.528744 C120.394006,240.52088 120.356613,241.550413 120.418202,242.681139 C120.446797,243.231103 120.154248,243.75027 119.670333,244.012053 C119.62634,244.036251 119.507561,244.102247 119.461369,244.119846 C118.702502,244.436625 117.895243,244.599414 117,244.619213 C117.211163,246.20311 117.607094,247.716612 118.181193,249.144319 C119.05884,248.67135 119.841903,248.433765 120.594171,248.376569 C120.65796,248.369969 120.737146,248.372169 120.811933,248.376569 C121.339841,248.380969 121.832554,248.682349 122.072312,249.168517 C123.018147,251.080193 124.300522,252.774083 125.882046,254.20179 C126.304372,254.582366 126.453946,255.171927 126.284575,255.699893 C126.266978,255.757089 126.247182,255.820885 126.229585,255.862682 C125.965631,256.584235 125.51251,257.27939 124.850426,257.959146 C126.069013,258.898485 127.419577,259.688234 128.88672,260.323992 C129.166071,259.411052 129.533407,258.709297 130.023921,258.091137 C130.089909,258.009743 130.160297,257.934948 130.239483,257.871152 C130.617817,257.426781 131.110531,257.371784 131.667033,257.563172 C132.727248,257.921748 133.730272,258.165933 134.733297,258.304524 C135.736321,258.443115 136.765741,258.484912 137.885345,258.425516 C137.909541,258.423316 137.933737,258.423316 137.957932,258.423316 Z M138.219454,264.835294 C137.8214,264.835294 137.440939,264.668142 137.170438,264.373427 C136.882343,264.058917 136.748192,263.634439 136.80757,263.214359 L136.983506,261.949722 C136.981307,261.740782 136.963713,261.520845 136.926327,261.29651 C136.919729,261.29651 136.915331,261.29651 136.908733,261.29651 C136.024656,261.29651 135.177966,261.237127 134.342271,261.12056 C133.504378,261.006193 132.670882,260.830244 131.815395,260.588313 C131.707634,260.823646 131.615268,261.080972 131.542694,261.362491 L131.399747,262.464375 C131.342568,262.884454 131.100656,263.258347 130.737789,263.480483 C130.37712,263.704819 129.935082,263.755404 129.53043,263.616844 C126.506535,262.587539 123.856504,261.025988 121.65071,258.971777 C121.342822,258.685859 121.175683,258.276777 121.197675,257.858897 C121.217468,257.438817 121.424193,257.049529 121.75847,256.794402 L122.774499,256.022424 C122.915248,255.879465 123.053797,255.718911 123.176952,255.551759 C121.9498,254.311315 120.896385,252.923513 120.0365,251.403749 C119.814381,251.491724 119.581266,251.606091 119.337155,251.74905 L118.455278,252.424256 C118.118801,252.679383 117.687758,252.769557 117.278708,252.674985 C116.867458,252.582611 116.522184,252.312089 116.328655,251.938196 C114.951958,249.254966 114.169044,246.277021 114.001905,243.092335 C113.979913,242.667857 114.149251,242.254376 114.461537,241.966258 C114.773823,241.68254 115.200467,241.550578 115.618314,241.605562 L116.88945,241.779312 C117.098373,241.779312 117.320492,241.761717 117.542611,241.724328 C117.540412,240.824786 117.597591,239.969231 117.714148,239.135671 C117.828507,238.306509 118.004442,237.470749 118.250752,236.610795 C118.024235,236.507425 117.766929,236.417251 117.481034,236.344672 L116.372639,236.199513 C115.950393,236.14233 115.578729,235.900399 115.354411,235.537504 C115.132292,235.176807 115.081711,234.732535 115.218061,234.33005 C116.229691,231.354304 117.79112,228.704065 119.856166,226.451911 C120.142061,226.139601 120.540116,225.96805 120.975556,225.992243 C121.397802,226.014237 121.789259,226.218778 122.044366,226.557481 L122.816284,227.580188 C122.959231,227.723146 123.124171,227.861707 123.295709,227.987071 C124.542653,226.748826 125.934744,225.695329 127.44999,224.839774 C127.362022,224.619837 127.249863,224.391103 127.111314,224.173365 L126.41197,223.260627 C126.156863,222.924124 126.064497,222.490848 126.159062,222.077367 C126.255827,221.666085 126.530726,221.316385 126.908988,221.12504 C129.572215,219.787824 132.626898,218.996051 135.738761,218.835294 C136.165405,218.828899 136.576655,218.982855 136.86255,219.295166 C137.150645,219.607476 137.282597,220.034153 137.223218,220.454233 L137.047283,221.721069 C137.051681,221.912414 137.069275,222.123554 137.10886,222.341291 C138.017128,222.339092 138.868217,222.396275 139.699513,222.510643 C140.522013,222.62501 141.355508,222.800959 142.224191,223.049488 C142.329752,222.822953 142.41772,222.572225 142.490293,222.299503 L142.631042,221.206417 C142.69042,220.784138 142.932332,220.412445 143.293,220.188109 C143.655867,219.963774 144.095707,219.915388 144.500359,220.051748 C147.445083,221.050262 150.092915,222.596418 152.369083,224.648429 C152.685767,224.932148 152.857305,225.34343 152.839711,225.770107 C152.819918,226.194585 152.613194,226.588272 152.274518,226.843399 L151.25629,227.613178 C151.111143,227.74514 150.968195,227.907893 150.836243,228.097039 C152.063395,229.330885 153.114611,230.720886 153.974496,232.242849 C154.227404,232.152675 154.449523,232.042707 154.667243,231.906346 L155.573312,231.209146 C155.911988,230.95182 156.347429,230.857247 156.763077,230.958418 C157.178725,231.05519 157.526198,231.332311 157.715329,231.715001 C159.067835,234.46861 159.835354,237.437758 159.998095,240.538868 C160.020087,240.963346 159.850749,241.376827 159.538463,241.662745 C159.226177,241.950863 158.801732,242.085024 158.379486,242.023442 L157.112749,241.849692 C156.921419,241.849692 156.710296,241.869486 156.492576,241.909075 C156.494775,242.808616 156.439795,243.659772 156.323238,244.491134 C156.211079,245.318096 156.030745,246.153856 155.784435,247.020408 C156.013151,247.125977 156.26166,247.213952 156.53656,247.286531 L157.62956,247.427291 C158.051806,247.486674 158.42347,247.728604 158.647788,248.0915 C158.869907,248.452197 158.920489,248.89427 158.784139,249.298954 C157.781305,252.246108 156.189087,254.971125 154.179022,257.174893 C153.895325,257.487203 153.475279,257.632362 153.059631,257.63896 C152.637385,257.619165 152.243729,257.412425 151.988622,257.073722 L151.221103,256.057614 C151.09135,255.916854 150.933008,255.776094 150.748275,255.644132 C149.510128,256.873579 148.120236,257.924878 146.598392,258.784831 C146.68636,259.011366 146.802917,259.248898 146.950263,259.501825 L147.625417,260.379373 C147.880523,260.715877 147.97289,261.149152 147.876125,261.560434 C147.78156,261.973915 147.508859,262.321416 147.130598,262.510561 C144.403594,263.885167 141.430281,264.665943 138.294227,264.830895 C138.270036,264.833095 138.243645,264.835294 138.219454,264.835294 L138.219454,264.835294 Z" id="Fill-1067" fill="#FFFFFF"></path>
                <path d="M136.480092,231.835294 C134.681222,231.835294 132.937119,232.406049 131.462635,233.488589 C129.634276,234.834391 128.439944,236.80992 128.098706,239.055031 C127.757469,241.302248 128.30724,243.545252 129.651127,245.373354 C130.992907,247.201455 132.968715,248.395618 135.214143,248.736808 C137.46589,249.077997 139.707105,248.526197 141.535464,247.1825 C143.363824,245.838803 144.560262,243.861168 144.901499,241.616058 C145.242737,239.370947 144.690859,237.127942 143.346973,235.299841 C142.003086,233.469634 140.027278,232.275471 137.783957,231.934281 C137.347931,231.868992 136.911905,231.835294 136.480092,231.835294 Z M136.520436,251.835294 C135.93808,251.835294 135.349253,251.792154 134.762583,251.701561 C131.725703,251.239966 129.051179,249.622225 127.232933,247.14816 C125.416845,244.674096 124.670566,241.639214 125.134294,238.602176 C125.593708,235.567294 127.211364,232.89263 129.6853,231.072133 C132.161392,229.251635 135.196115,228.509631 138.235151,228.966913 C141.269874,229.426351 143.944399,231.044092 145.764801,233.520313 C147.58089,235.994378 148.327169,239.029259 147.867754,242.064141 L147.867754,242.066298 C147.404026,245.103336 145.78637,247.778001 143.312435,249.598498 C141.315169,251.06525 138.953391,251.835294 136.520436,251.835294 L136.520436,251.835294 Z" id="Fill-1069" fill="#FFFFFF"></path>
                <path d="M398,281.107981 L409.5,292.835294 L421,281.107981 L417.790748,277.837522 L410.502755,285.271801 C409.971884,285.813164 409.032485,285.813164 408.501615,285.271801 L401.209252,277.835294 L398,281.107981 Z M408.998902,295.835294 C408.634253,295.835294 408.271802,295.698996 407.995021,295.43066 L394.417368,282.269389 C394.149374,282.011701 394,281.660307 394,281.294007 C394,280.927706 394.149374,280.576313 394.417368,280.318624 L399.65644,275.239396 C400.212199,274.700593 401.112836,274.700593 401.668595,275.239396 L408.998902,282.346056 L416.329208,275.239396 C416.884967,274.700593 417.785604,274.700593 418.341363,275.239396 L423.582632,280.318624 C423.848429,280.576313 424,280.927706 424,281.294007 C424,281.660307 423.848429,282.011701 423.582632,282.269389 L410.007176,295.43066 C409.728198,295.698996 409.36355,295.835294 408.998902,295.835294 L408.998902,295.835294 Z" id="Fill-1111" fill="#FFFFFF"></path>
                <path d="M340.497883,278.835294 C338.017168,278.835294 336,280.853412 336,283.335294 C336,285.817176 338.017168,287.835294 340.497883,287.835294 C342.978598,287.835294 345,285.817176 345,283.335294 C345,280.853412 342.978598,278.835294 340.497883,278.835294 Z M340.498904,290.835294 C336.364752,290.835294 333,287.47005 333,283.335294 C333,279.198346 336.364752,275.835294 340.498904,275.835294 C344.635248,275.835294 348,279.198346 348,283.335294 C348,287.47005 344.635248,290.835294 340.498904,290.835294 L340.498904,290.835294 Z" id="Fill-1146" fill="#FFFFFF"></path>
                <path d="M321.498941,261.835294 C319.017643,261.835294 317,263.852937 317,266.334236 C317,268.817651 319.017643,270.835294 321.498941,270.835294 C323.98024,270.835294 326,268.817651 326,266.334236 C326,263.852937 323.98024,261.835294 321.498941,261.835294 Z M321.498904,273.835294 C317.364752,273.835294 314,270.470542 314,266.334198 C314,262.200046 317.364752,258.835294 321.498904,258.835294 C325.635248,258.835294 329,262.200046 329,266.334198 C329,270.470542 325.635248,273.835294 321.498904,273.835294 L321.498904,273.835294 Z" id="Fill-1147" fill="#FFFFFF"></path>
                <path d="M302.498941,280.835294 C300.017643,280.835294 298,282.852937 298,285.334236 C298,287.815534 300.017643,289.835294 302.498941,289.835294 C304.98024,289.835294 307,287.815534 307,285.334236 C307,282.852937 304.98024,280.835294 302.498941,280.835294 Z M302.498904,292.835294 C298.364752,292.835294 295,289.470542 295,285.334198 C295,281.197854 298.364752,277.835294 302.498904,277.835294 C306.635248,277.835294 310,281.197854 310,285.334198 C310,289.470542 306.635248,292.835294 302.498904,292.835294 L302.498904,292.835294 Z" id="Fill-1148" fill="#FFFFFF"></path>
                <path d="M307.520991,282.941176 C307.146279,282.941176 306.771567,282.796715 306.487147,282.512307 C305.916049,281.941233 305.916049,281.015778 306.487147,280.444705 L316.974576,269.957717 C317.545673,269.386643 318.471167,269.386643 319.042265,269.957717 C319.613363,270.526533 319.613363,271.454246 319.042265,272.025319 L308.554836,282.512307 C308.268159,282.796715 307.895704,282.941176 307.520991,282.941176" id="Fill-1149" fill="#FFFFFF"></path>
                <path d="M335.465837,281.6 C335.096795,281.6 334.729975,281.459948 334.447635,281.177621 L325.257137,271.987546 C324.69468,271.425115 324.69468,270.513666 325.257137,269.951235 C325.819593,269.388804 326.731085,269.388804 327.293541,269.951235 L336.48404,279.14131 C337.046497,279.703741 337.046497,280.61519 336.48404,281.177621 C336.203923,281.459948 335.83488,281.6 335.465837,281.6" id="Fill-1150" fill="#FFFFFF"></path>
                <path d="M336.5,157.835294 C335.671296,157.835294 335,157.275809 335,156.585133 L335,156.085455 C335,155.39478 335.671296,154.835294 336.5,154.835294 C337.328704,154.835294 338,155.39478 338,156.085455 L338,156.585133 C338,157.275809 337.328704,157.835294 336.5,157.835294 Z M336.5,166.835294 C335.671296,166.835294 335,166.275809 335,165.585133 L335,165.085455 C335,164.39478 335.671296,163.835294 336.5,163.835294 C337.328704,163.835294 338,164.39478 338,165.085455 L338,165.585133 C338,166.275809 337.328704,166.835294 336.5,166.835294 Z M336.5,175.835294 C335.671296,175.835294 335,175.275449 335,174.584329 L335,174.086259 C335,173.39514 335.671296,172.835294 336.5,172.835294 C337.328704,172.835294 338,173.39514 338,174.086259 L338,174.584329 C338,175.275449 337.328704,175.835294 336.5,175.835294 Z M336.5,184.835294 C335.671296,184.835294 335,184.275809 335,183.585133 L335,183.085455 C335,182.39478 335.671296,181.835294 336.5,181.835294 C337.328704,181.835294 338,182.39478 338,183.085455 L338,183.585133 C338,184.275809 337.328704,184.835294 336.5,184.835294 Z M336.5,193.835294 C335.671296,193.835294 335,193.276168 335,192.585937 L335,192.084651 C335,191.39442 335.671296,190.835294 336.5,190.835294 C337.328704,190.835294 338,191.39442 338,192.084651 L338,192.585937 C338,193.276168 337.328704,193.835294 336.5,193.835294 Z M336.5,201.835294 C335.671296,201.835294 335,201.275449 335,200.584329 L335,200.084329 C335,199.39514 335.671296,198.835294 336.5,198.835294 C337.328704,198.835294 338,199.39514 338,200.084329 L338,200.584329 C338,201.275449 337.328704,201.835294 336.5,201.835294 L336.5,201.835294 Z" id="Fill-1154" fill="#FFFFFF"></path>
                <polyline id="Fill-1156" fill="#FFFFFF" points="278.964706 170.329412 278.964706 187.764706 278.964706 170.329412"></polyline>
                <path d="M278.964706,190.447059 C278.223747,190.447059 277.623529,189.796043 277.623529,188.992376 L277.623529,170.442919 C277.623529,169.639251 278.223747,168.988235 278.964706,168.988235 C279.705664,168.988235 280.305882,169.639251 280.305882,170.442919 L280.305882,188.992376 C280.305882,189.796043 279.705664,190.447059 278.964706,190.447059" id="Fill-1157" fill="#FFFFFF"></path>
                <polyline id="Fill-1158" fill="#FFFFFF" points="278.964706 152.894118 278.964706 159.6 278.964706 152.894118"></polyline>
                <path d="M278.964706,160.941176 C278.223747,160.941176 277.623529,160.343987 277.623529,159.606766 L277.623529,152.887351 C277.623529,152.150131 278.223747,151.552941 278.964706,151.552941 C279.705664,151.552941 280.305882,152.150131 280.305882,152.887351 L280.305882,159.606766 C280.305882,160.343987 279.705664,160.941176 278.964706,160.941176" id="Fill-1159" fill="#FFFFFF"></path>
                <polyline id="Fill-1160" fill="#FFFFFF" points="287.011765 160.941176 287.011765 177.035294 287.011765 160.941176"></polyline>
                <path d="M287.011765,178.376471 C286.270806,178.376471 285.670588,177.73789 285.670588,176.949573 L285.670588,161.026897 C285.670588,160.238581 286.270806,159.6 287.011765,159.6 C287.752723,159.6 288.352941,160.238581 288.352941,161.026897 L288.352941,176.949573 C288.352941,177.73789 287.752723,178.376471 287.011765,178.376471" id="Fill-1161" fill="#FFFFFF"></path>
                <polyline id="Fill-1200" fill="#FFFFFF" points="166.305882 272.258824 166.305882 274.941176 166.305882 272.258824"></polyline>
                <path d="M166.305882,276.282353 C165.564924,276.282353 164.964706,275.682598 164.964706,274.942211 L164.964706,272.257789 C164.964706,271.517402 165.564924,270.917647 166.305882,270.917647 C167.046841,270.917647 167.647059,271.517402 167.647059,272.257789 L167.647059,274.942211 C167.647059,275.682598 167.046841,276.282353 166.305882,276.282353" id="Fill-1201" fill="#FFFFFF"></path>
                <polyline id="Fill-1208" fill="#FFFFFF" points="272.258824 48.2823529 272.258824 50.9647059 272.258824 48.2823529"></polyline>
                <path d="M272.258824,52.3058824 C271.517865,52.3058824 270.917647,51.7061273 270.917647,50.9657399 L270.917647,48.2813189 C270.917647,47.5409316 271.517865,46.9411765 272.258824,46.9411765 C272.999782,46.9411765 273.6,47.5409316 273.6,48.2813189 L273.6,50.9657399 C273.6,51.7061273 272.999782,52.3058824 272.258824,52.3058824" id="Fill-1209" fill="#FFFFFF"></path>
                <polyline id="Fill-1210" fill="#FFFFFF" points="272.258824 61.6941176 272.258824 64.3764706 272.258824 61.6941176"></polyline>
                <path d="M272.258824,65.7176471 C271.517865,65.7176471 270.917647,65.1181231 270.917647,64.3780211 L270.917647,61.6925672 C270.917647,60.9545325 271.517865,60.3529412 272.258824,60.3529412 C272.999782,60.3529412 273.6,60.9545325 273.6,61.6925672 L273.6,64.3780211 C273.6,65.1181231 272.999782,65.7176471 272.258824,65.7176471" id="Fill-1211" fill="#FFFFFF"></path>
                <polyline id="Fill-1212" fill="#FFFFFF" points="280.305882 56.3294118 277.623529 56.3294118 280.305882 56.3294118"></polyline>
                <path d="M280.307949,57.6705882 L277.621463,57.6705882 C276.881646,57.6705882 276.282353,57.0703704 276.282353,56.3294118 C276.282353,55.5884532 276.881646,54.9882353 277.621463,54.9882353 L280.307949,54.9882353 C281.047766,54.9882353 281.647059,55.5884532 281.647059,56.3294118 C281.647059,57.0703704 281.047766,57.6705882 280.307949,57.6705882" id="Fill-1213" fill="#FFFFFF"></path>
                <polyline id="Fill-1214" fill="#FFFFFF" points="266.894118 56.3294118 264.211765 56.3294118 266.894118 56.3294118"></polyline>
                <path d="M266.896184,57.6705882 L264.209698,57.6705882 C263.469881,57.6705882 262.870588,57.0703704 262.870588,56.3294118 C262.870588,55.5884532 263.469881,54.9882353 264.209698,54.9882353 L266.896184,54.9882353 C267.636001,54.9882353 268.235294,55.5884532 268.235294,56.3294118 C268.235294,57.0703704 267.636001,57.6705882 266.896184,57.6705882" id="Fill-1215" fill="#FFFFFF"></path>
            </g>
        </g>
    </g>
</svg>