<?xml version="1.0" encoding="UTF-8"?>
<svg width="316px" height="421px" viewBox="0 0 316 421" version="1.1" xmlns="http://www.w3.org/2000/svg" xmlns:xlink="http://www.w3.org/1999/xlink">
    <title>Group</title>
    <g id="Page-1" stroke="none" stroke-width="1" fill="none" fill-rule="evenodd">
        <g id="Home-1920" transform="translate(-1285.000000, -315.000000)">
            <g id="Group" transform="translate(1285.000000, 315.000000)">
                <polyline id="Fill-115" fill="#252525" points="66.8998993 278.150204 66.8998993 245 188 245 188 331 66.8998993 331 66.8998993 278.150204 56.196386 275.516846 50 283.30586 66.8998993 278.150204"></polyline>
                <path d="M68.0370873,327.84436 L185.844446,327.84436 L185.844446,246.15564 L68.0370873,246.15564 L68.0370873,327.84436 Z M187.422223,331 L66.4593102,331 C65.5876371,331 64.8815331,330.293877 64.8815331,329.42218 L64.8815331,278.520434 L56.3668933,276.453197 L50.8057159,283.356161 C50.2578766,284.0355 49.2668962,284.142636 48.5875755,283.594782 C47.9082548,283.049362 47.8035567,282.05592 48.3489611,281.376581 L54.5383275,273.694447 C54.9205976,273.21964 55.5463518,273.002933 56.1380182,273.151462 L64.8815331,275.272267 L64.8815331,244.575385 C64.8815331,243.706123 65.5876371,243 66.4593102,243 L187.422223,243 C188.293896,243 189,243.706123 189,244.575385 L189,329.42218 C189,330.293877 188.293896,331 187.422223,331 L187.422223,331 Z" id="Fill-116" fill="#FFFFFF"></path>
                <path d="M37.3425169,354.804082 L217.657483,354.804082 L187.727689,332.195918 L67.2723114,332.195918 L37.3425169,354.804082 Z M222.41465,358 L32.5829042,358 C31.9029595,358 31.2963902,357.558588 31.0811559,356.907568 C30.8659216,356.254082 31.0884934,355.53648 31.6339167,355.122194 L65.7950215,329.318112 C66.0689561,329.110969 66.4040367,329 66.7464549,329 L188.255991,329 C188.598409,329 188.931044,329.110969 189.207424,329.318112 L223.366083,355.122194 C223.911507,355.53648 224.134078,356.254082 223.918844,356.907568 C223.70361,357.558588 223.09704,358 222.41465,358 L222.41465,358 Z" id="Fill-118" fill="#FFFFFF"></path>
                <path d="M34.3434419,357.140354 C34.9304397,360.115937 36.90422,363.859646 38.4108478,363.859646 L216.586706,363.859646 C218.093334,363.859646 220.06956,360.115937 220.656558,357.140354 L34.3434419,357.140354 Z M216.586706,367 L38.4108478,367 C33.8004689,367 31,359.061883 31,355.570177 C31,354.702703 31.7092891,354 32.5848942,354 L222.415106,354 C223.290711,354 224,354.702703 224,355.570177 C224,359.061883 221.199531,367 216.586706,367 L216.586706,367 Z" id="Fill-120" fill="#FFFFFF"></path>
                <polygon id="Fill-123" fill="#252525" points="75 271 85 271 85 261 75 261"></polygon>
                <path d="M77.023916,268.975496 L82.976084,268.975496 L82.976084,263.02217 L77.023916,263.02217 L77.023916,268.975496 Z M84.488042,272 L75.5096247,272 C74.6766479,272 74,271.323221 74,270.487748 L74,261.512252 C74,260.676779 74.6766479,260 75.5096247,260 L84.488042,260 C85.3233521,260 86,260.676779 86,261.512252 L86,270.487748 C86,271.323221 85.3233521,272 84.488042,272 L84.488042,272 Z" id="Fill-124" fill="#FFFFFF"></path>
                <polygon id="Fill-125" fill="#252525" points="93 271 103 271 103 261 93 261"></polygon>
                <path d="M95.0233281,268.975496 L100.976672,268.975496 L100.976672,263.02217 L95.0233281,263.02217 L95.0233281,268.975496 Z M102.488336,272 L93.5116641,272 C92.6765163,272 92,271.323221 92,270.487748 L92,261.512252 C92,260.676779 92.6765163,260 93.5116641,260 L102.488336,260 C103.323484,260 104,260.676779 104,261.512252 L104,270.487748 C104,271.323221 103.323484,272 102.488336,272 L102.488336,272 Z" id="Fill-126" fill="#FFFFFF"></path>
                <polygon id="Fill-127" fill="#252525" points="75 290 85 290 85 280 75 280"></polygon>
                <path d="M77.023916,286.975496 L82.976084,286.975496 L82.976084,281.024504 L77.023916,281.024504 L77.023916,286.975496 Z M84.488042,290 L75.5096247,290 C74.6766479,290 74,289.323221 74,288.487748 L74,279.512252 C74,278.676779 74.6766479,278 75.5096247,278 L84.488042,278 C85.3233521,278 86,278.676779 86,279.512252 L86,288.487748 C86,289.323221 85.3233521,290 84.488042,290 L84.488042,290 Z" id="Fill-128" fill="#FFFFFF"></path>
                <polygon id="Fill-129" fill="#252525" points="110 271 120 271 120 261 110 261"></polygon>
                <path d="M112.023916,268.975496 L117.976084,268.975496 L117.976084,263.02217 L112.023916,263.02217 L112.023916,268.975496 Z M119.488042,272 L110.511958,272 C109.676648,272 109,271.323221 109,270.487748 L109,261.512252 C109,260.676779 109.676648,260 110.511958,260 L119.488042,260 C120.323352,260 121,260.676779 121,261.512252 L121,270.487748 C121,271.323221 120.323352,272 119.488042,272 L119.488042,272 Z" id="Fill-130" fill="#FFFFFF"></path>
                <polygon id="Fill-131" fill="#252525" points="129 271 139 271 139 261 129 261"></polygon>
                <path d="M131.023328,268.975496 L136.976672,268.975496 L136.976672,263.02217 L131.023328,263.02217 L131.023328,268.975496 Z M138.488336,272 L129.511664,272 C128.676516,272 128,271.323221 128,270.487748 L128,261.512252 C128,260.676779 128.676516,260 129.511664,260 L138.488336,260 C139.323484,260 140,260.676779 140,261.512252 L140,270.487748 C140,271.323221 139.323484,272 138.488336,272 L138.488336,272 Z" id="Fill-132" fill="#FFFFFF"></path>
                <polygon id="Fill-139" fill="#252525" points="147 302 182 302 182 262 147 262"></polygon>
                <path d="M149.09268,300.775937 L179.90732,300.775937 L179.90732,263.224063 L149.09268,263.224063 L149.09268,300.775937 Z M181.45366,304 L147.54634,304 C146.692035,304 146,303.278566 146,302.387969 L146,261.612031 C146,260.721434 146.692035,260 147.54634,260 L181.45366,260 C182.307965,260 183,260.721434 183,261.612031 L183,302.387969 C183,303.278566 182.307965,304 181.45366,304 L181.45366,304 Z" id="Fill-140" fill="#FFFFFF"></path>
                <polygon id="Fill-141" fill="#252525" points="153 281 174 281 174 269 153 269"></polygon>
                <path d="M155.132326,278.95727 L172.867674,278.95727 L172.867674,270.04273 L155.132326,270.04273 L155.132326,278.95727 Z M174.433837,282 L153.566163,282 C152.700906,282 152,281.319142 152,280.478635 L152,268.521365 C152,267.680858 152.700906,267 153.566163,267 L174.433837,267 C175.299094,267 176,267.680858 176,268.521365 L176,280.478635 C176,281.319142 175.299094,282 174.433837,282 L174.433837,282 Z" id="Fill-142" fill="#FFFFFF"></path>
                <path d="M198.476711,131.219121 C181.767773,131.219121 168.177052,145.017129 168.177052,161.974646 C168.181955,172.64792 176.161355,196.6572 198.506129,229.605999 C227.844828,188.2542 228.810691,164.696989 228.822948,162.113743 L230.411474,161.974646 L228.822948,161.974646 C228.822948,145.017129 215.210164,131.219121 198.476711,131.219121 Z M198.476711,234 C198.469357,234 198.464454,234 198.4571,234 C197.944751,233.995032 197.464271,233.736708 197.172551,233.311963 C166.56156,188.798172 165.002451,166.087967 165,161.989549 C165,143.241148 180.017453,128 198.476711,128 C216.960484,128 232,143.241148 232,161.974646 L232,162.121195 C231.987743,164.858442 230.967948,190.032665 199.758809,233.339285 C199.459734,233.754095 198.981706,234 198.476711,234 L198.476711,234 Z" id="Fill-156" fill="#FFFFFF"></path>
                <path d="M198.49874,147.265595 C190.097323,147.265595 183.263298,154.101675 183.263298,162.50252 C183.263298,170.900844 190.097323,177.734405 198.49874,177.734405 C206.897637,177.734405 213.734182,170.900844 213.734182,162.50252 C213.734182,154.101675 206.897637,147.265595 198.49874,147.265595 Z M198.49874,181 C188.2981,181 180,172.702465 180,162.50252 C180,152.300054 188.2981,144 198.49874,144 C208.69938,144 217,152.300054 217,162.50252 C217,172.702465 208.69938,181 198.49874,181 L198.49874,181 Z" id="Fill-157" fill="#FFFFFF"></path>
                <path d="M198.5,158.176471 C196.114304,158.176471 194.174396,160.117647 194.174396,162.502451 C194.174396,164.884804 196.114304,166.823529 198.5,166.823529 C200.885696,166.823529 202.825604,164.884804 202.825604,162.502451 C202.825604,160.117647 200.885696,158.176471 198.5,158.176471 Z M198.5,170 C194.365447,170 191,166.637255 191,162.502451 C191,158.365196 194.365447,155 198.5,155 C202.634553,155 206,158.365196 206,162.502451 C206,166.637255 202.634553,170 198.5,170 L198.5,170 Z" id="Fill-158" fill="#FFFFFF"></path>
                <path d="M234.486757,87.2319202 C226.013861,87.2319202 219.120453,94.3840399 219.120453,103.174564 C219.120453,104.42394 219.573111,115.800499 234.51565,138.57606 C249.369103,116.872818 249.872324,104.608479 249.879547,103.249377 L251.439774,103.174564 L249.879547,103.174564 C249.879547,94.3840399 242.9741,87.2319202 234.486757,87.2319202 Z M234.486757,143 C234.481942,143 234.474719,143 234.469903,143 C233.966682,142.992519 233.494762,142.735661 233.205831,142.306733 C220.528991,123.461347 216.004816,109.740648 216,103.182045 C216,92.6034913 224.292315,84 234.486757,84 C244.695647,84 253,92.6009975 253,103.174564 L253,103.256858 C252.961476,110.052369 248.420446,124.356608 235.746014,142.334165 C235.452268,142.753117 234.982755,143 234.486757,143 L234.486757,143 Z" id="Fill-162" fill="#FFFFFF"></path>
                <path d="M233.997423,101.340206 C232.533505,101.340206 231.340206,102.533505 231.340206,104 C231.340206,105.466495 232.533505,106.659794 233.997423,106.659794 C235.463918,106.659794 236.659794,105.466495 236.659794,104 C236.659794,102.533505 235.463918,101.340206 233.997423,101.340206 Z M233.997423,110 C230.690722,110 228,107.306701 228,104 C228,100.693299 230.690722,98 233.997423,98 C237.306701,98 240,100.693299 240,104 C240,107.306701 237.306701,110 233.997423,110 L233.997423,110 Z" id="Fill-163" fill="#FFFFFF"></path>
                <path d="M306.039795,283.503813 C306.016708,283.488422 306.001317,283.470466 305.978231,283.455075 C306.162923,282.493136 306.278356,281.500416 306.278356,280.484609 C306.278356,279.468802 306.162923,278.481212 305.978231,277.511578 C306.001317,277.498752 306.016708,277.478231 306.039795,277.465405 C306.557959,277.162715 307.160774,276.954936 307.884151,276.860025 L309,276.860025 C308.520313,274.35129 307.550679,272.032377 306.162923,269.975111 L305.377981,270.760053 C304.803383,271.242304 304.200568,271.516778 303.625971,271.662992 C303.602884,271.673253 303.587493,271.673253 303.564407,271.673253 C302.435732,270.005893 300.996672,268.566833 299.329312,267.433028 C299.331877,267.415072 299.331877,267.397116 299.337008,267.371464 C299.488353,266.801997 299.760261,266.196617 300.242512,265.624584 L301.027454,264.834512 C298.972754,263.451886 296.64871,262.482252 294.14254,262 L294.14254,263.115849 C294.052759,263.844357 293.83985,264.449737 293.53716,264.95764 C293.521769,264.985857 293.501248,265.001248 293.488422,265.024334 C292.521353,264.834512 291.531198,264.721644 290.515391,264.721644 C289.499584,264.721644 288.509429,264.834512 287.544925,265.024334 C287.532099,264.996118 287.511578,264.985857 287.496187,264.95764 C287.193497,264.449737 286.980588,263.844357 286.890807,263.115849 L286.890807,262 C284.382072,262.482252 282.029811,263.451886 280.005893,264.834512 L280.78827,265.624584 C281.273087,266.196617 281.544994,266.801997 281.696339,267.371464 C281.70147,267.391986 281.698905,267.407377 281.704035,267.420202 C280.036675,268.548877 278.602745,269.990502 277.471506,271.647601 C277.440724,271.639906 277.409942,271.645036 277.376595,271.634775 C276.804562,271.516778 276.229964,271.214088 275.655366,270.760053 L274.870424,269.975111 C273.449321,272.032377 272.482252,274.35129 272,276.860025 L273.118414,276.860025 C273.875139,276.954936 274.477953,277.162715 274.993552,277.465405 C275.014074,277.478231 275.03203,277.498752 275.052551,277.511578 C274.870424,278.481212 274.752427,279.468802 274.752427,280.484609 C274.752427,281.500416 274.870424,282.493136 275.052551,283.455075 C275.03203,283.470466 275.014074,283.488422 274.993552,283.503813 C274.477953,283.811633 273.875139,284.019412 273.118414,284.111758 L272,284.111758 C272.482252,286.617928 273.449321,288.970189 274.870424,290.991542 L275.655366,290.21173 C276.229964,289.760261 276.804562,289.457571 277.376595,289.334443 C277.404811,289.329312 277.433028,289.329312 277.45868,289.329312 C278.582224,290.986412 280.016154,292.415211 281.675818,293.543885 C281.670688,293.572102 281.673253,293.595189 281.665557,293.623405 C281.544994,294.195438 281.242304,294.772601 280.78827,295.344634 L280.005893,296.132141 C282.029811,297.550679 284.382072,298.515183 286.890807,299 L286.890807,297.881586 C286.980588,297.129992 287.193497,296.524612 287.496187,296.009013 C287.511578,295.985926 287.532099,295.9731 287.544925,295.947449 C288.509429,296.132141 289.499584,296.247573 290.515391,296.247573 C291.531198,296.247573 292.521353,296.132141 293.488422,295.947449 C293.501248,295.9731 293.521769,295.985926 293.53716,296.009013 C293.83985,296.524612 294.052759,297.129992 294.14254,297.881586 L294.14254,299 C296.64871,298.515183 298.972754,297.550679 301.027454,296.132141 L300.242512,295.344634 C299.791043,294.772601 299.488353,294.195438 299.365225,293.623405 L299.337008,293.623405 C299.329312,293.600319 299.331877,293.577232 299.326747,293.549016 C300.999237,292.415211 302.448558,290.973586 303.579798,289.295965 C303.597754,289.306226 303.61058,289.301095 303.625971,289.306226 C304.200568,289.457571 304.803383,289.726913 305.377981,290.21173 L306.162923,290.991542 C307.550679,288.970189 308.520313,286.617928 309,284.111758 L307.884151,284.111758 C307.160774,284.019412 306.557959,283.811633 306.039795,283.503813" id="Fill-169" fill="#252525"></path>
                <path d="M282.501115,296.363765 C283.342317,296.810945 284.239115,297.180774 285.179424,297.468419 C285.319625,296.837534 285.529925,296.315422 285.817577,295.824733 C285.851419,295.76672 285.897347,295.701456 285.943274,295.641027 C286.293775,295.155172 286.900504,294.911037 287.504816,295.01981 C289.295996,295.360633 290.73184,295.360633 292.52302,295.01981 C293.122497,294.913454 293.709888,295.145504 294.065223,295.614438 C294.096648,295.65553 294.130489,295.699039 294.152244,295.73288 C294.493076,296.303336 294.71788,296.864123 294.85808,297.463585 C295.791138,297.173523 296.683102,296.803693 297.533973,296.354097 C297.236651,295.892414 297.03602,295.457321 296.907906,295.029479 C296.878899,294.966632 296.854726,294.903785 296.832971,294.838521 C296.796712,294.722496 296.767705,294.560545 296.758036,294.439685 C296.646843,293.830554 296.924826,293.349534 297.437283,293.00146 C298.868293,292.029751 300.076916,290.823575 301.026894,289.414355 C301.391898,288.870488 302.046972,288.623935 302.66337,288.759298 C302.704463,288.768967 302.743139,288.776218 302.779398,288.788304 C303.349868,288.93817 303.886497,289.17022 304.379615,289.479619 C304.819554,288.638439 305.184559,287.74408 305.469794,286.81588 C304.838892,286.670849 304.316767,286.458137 303.842987,286.177743 C303.784973,286.141485 303.71729,286.095559 303.654441,286.047215 C303.173409,285.691889 302.931685,285.087592 303.045295,284.490547 C303.21692,283.598606 303.301523,282.779179 303.301523,281.986342 C303.301523,281.195923 303.21692,280.378914 303.045295,279.47972 C302.922016,278.824663 303.224171,278.162354 303.799476,277.828782 C304.328853,277.514548 304.879986,277.28975 305.467376,277.149553 C305.182141,276.228605 304.819554,275.339081 304.374781,274.490648 C303.850238,274.821803 303.318444,275.046601 302.752808,275.191632 C302.11949,275.348749 301.379812,275.097362 301.014808,274.560747 C300.062413,273.153944 298.858624,271.950186 297.437283,270.983311 C296.948999,270.64974 296.687936,270.069615 296.767705,269.482239 C296.774957,269.416975 296.796712,269.296115 296.813633,269.230851 C296.963502,268.655561 297.195558,268.116529 297.507383,267.623423 C296.656512,267.181077 295.766965,266.816082 294.845994,266.533272 C294.700959,267.159323 294.490659,267.681435 294.207841,268.157621 C294.164331,268.227719 294.09423,268.326824 294.041051,268.389671 C293.705054,268.969795 293.170842,269.08582 292.513351,268.955292 C290.751178,268.609634 289.276658,268.609634 287.514485,268.955292 C286.890835,269.083403 286.257516,268.807844 285.91185,268.290566 C285.887678,268.259142 285.865922,268.225302 285.846584,268.196296 C285.537177,267.674183 285.31479,267.123065 285.17459,266.535689 C284.248784,266.820917 283.354403,267.185912 282.515618,267.623423 C282.839529,268.135866 283.066751,268.662813 283.219037,269.228434 C283.231123,269.281612 283.24321,269.342042 283.252879,269.402472 C283.359238,270.001934 283.107844,270.620733 282.588136,270.973642 C281.183715,271.923597 279.982344,273.124938 279.017862,274.541409 C278.672196,275.046601 278.067884,275.295571 277.473242,275.206135 C277.376552,275.194049 277.267776,275.172295 277.185589,275.148123 C276.726312,275.05627 276.189684,274.829054 275.643386,274.48098 C275.191361,275.331829 274.821522,276.223771 274.531452,277.154387 C275.169605,277.297001 275.691731,277.504879 276.177597,277.790107 C276.24528,277.828782 276.339553,277.896464 276.402401,277.947224 C276.936613,278.292882 277.100986,278.851252 276.982541,279.477303 C276.810916,280.378914 276.72873,281.200757 276.72873,281.986342 C276.72873,282.776762 276.810916,283.596188 276.980123,284.492964 C277.100986,285.119016 276.827837,285.754736 276.293625,286.100393 C275.713486,286.45572 275.145433,286.687769 274.531452,286.832801 C274.821522,287.773086 275.191361,288.665028 275.643386,289.508626 C276.223525,289.136379 276.764988,288.909163 277.301617,288.795556 C277.920432,288.660193 278.650441,288.918832 279.005776,289.440944 C279.95092,290.838078 281.149874,292.032168 282.566381,292.996625 C283.074002,293.3447 283.332648,293.953831 283.226289,294.560545 C283.09334,295.218019 282.854033,295.802978 282.501115,296.363765 Z M293.431905,301 C293.071735,301 292.718817,300.876652 292.435999,300.642185 C292.073412,300.344871 291.865529,299.902526 291.865529,299.433592 L291.865529,298.379699 C291.860694,298.35311 291.85586,298.324103 291.848608,298.29268 C290.598892,298.444963 289.443448,298.442545 288.196148,298.295097 C288.179228,298.382116 288.167141,298.471552 288.155055,298.563405 L288.167141,299.433592 C288.167141,299.902526 287.956841,300.344871 287.596671,300.642185 C287.234084,300.939499 286.757886,301.057941 286.301027,300.973339 C283.668645,300.460896 281.282823,299.465015 279.211242,298.014703 C278.834152,297.748813 278.592427,297.33064 278.551334,296.871374 C278.51024,296.409692 278.674613,295.955261 278.998524,295.628941 L279.738202,294.884447 C279.750288,294.867527 279.762374,294.84819 279.776878,294.831269 C278.812396,294.060187 277.942187,293.192417 277.178338,292.235212 C277.113072,292.281138 277.047806,292.331899 276.980123,292.38266 L276.373394,292.999042 C276.044649,293.325362 275.602293,293.48248 275.130929,293.448639 C274.671653,293.407547 274.253469,293.165828 273.987572,292.78633 C272.529972,290.709967 271.534066,288.326622 271.028862,285.701557 C270.939424,285.242292 271.060286,284.768524 271.357607,284.408363 C271.654929,284.048202 272.097285,283.837907 272.566231,283.837907 L273.62015,283.837907 C273.649157,283.833073 273.678164,283.828238 273.707171,283.820987 C273.632236,283.192518 273.595978,282.585805 273.595978,281.986342 C273.595978,281.394132 273.632236,280.792252 273.707171,280.168618 C273.615316,280.151698 273.52346,280.137195 273.426771,280.125109 L272.566231,280.137195 C272.097285,280.137195 271.654929,279.929317 271.357607,279.569156 C271.060286,279.208996 270.939424,278.735227 271.028862,278.273545 C271.524397,275.694407 272.517886,273.313479 273.98032,271.193606 C274.246217,270.811691 274.664401,270.567555 275.126095,270.524046 C275.585372,270.478119 276.047066,270.647322 276.375812,270.97606 L277.117906,271.713301 C277.137244,271.727805 277.159,271.742308 277.180755,271.759228 C277.949439,270.792354 278.819648,269.922167 279.779295,269.155919 C279.740619,269.100323 279.697109,269.047145 279.653598,268.996384 L278.998524,268.343744 C278.672196,268.015007 278.507823,267.555741 278.551334,267.091642 C278.594844,266.629959 278.841403,266.209369 279.225746,265.948313 C281.294909,264.531842 283.74358,263.523875 286.303444,263.030769 C286.760304,262.936499 287.236501,263.062192 287.596671,263.361923 C287.956841,263.659237 288.167141,264.101582 288.167141,264.568099 L288.167141,265.619575 C288.169559,265.638913 288.171976,265.65825 288.17681,265.680005 C289.42411,265.530139 290.594057,265.530139 291.836522,265.680005 C291.853443,265.597821 291.865529,265.513219 291.877615,265.428618 L291.865529,264.568099 C291.865529,264.101582 292.073412,263.659237 292.433582,263.361923 C292.793752,263.062192 293.265115,262.94375 293.726809,263.030769 C296.279421,263.521458 298.657992,264.500418 300.797256,265.943478 C301.184015,266.202117 301.432992,266.622707 301.478919,267.089224 C301.524847,267.555741 301.358057,268.015007 301.029311,268.346161 L300.289634,269.090655 C300.270296,269.109992 300.253375,269.134164 300.236454,269.158336 C301.200936,269.929418 302.071145,270.797188 302.837412,271.759228 C302.897843,271.715719 302.955857,271.672209 303.013871,271.623866 L303.652024,270.978477 C303.983187,270.647322 304.440047,270.487788 304.908992,270.524046 C305.373104,270.569972 305.793705,270.818943 306.054767,271.20811 C307.500281,273.344902 308.481683,275.720996 308.972384,278.275962 C309.059405,278.735227 308.938543,279.208996 308.641221,279.569156 C308.3439,279.929317 307.901544,280.137195 307.435015,280.137195 L306.381096,280.137195 C306.361758,280.142029 306.340003,280.144447 306.320665,280.149281 C306.395599,280.780167 306.434275,281.38688 306.434275,281.986342 C306.434275,282.583387 306.395599,283.185267 306.320665,283.808901 C306.405268,283.825821 306.494706,283.840324 306.584144,283.85241 L307.435015,283.837907 C307.901544,283.837907 308.3439,284.048202 308.641221,284.408363 C308.938543,284.768524 309.059405,285.242292 308.972384,285.701557 C308.479266,288.261358 307.468857,290.70755 306.049933,292.774244 C305.786453,293.158577 305.365852,293.40513 304.904158,293.446222 C304.452133,293.496983 303.983187,293.325362 303.654441,292.999042 L302.914764,292.264218 C302.895426,292.247297 302.873671,292.230377 302.854333,292.215874 C302.090483,293.17308 301.220274,294.04085 300.255792,294.811932 C300.30172,294.879613 300.352482,294.947294 300.408079,295.017393 L301.029311,295.626524 C301.358057,295.955261 301.52243,296.412109 301.478919,296.873792 C301.437826,297.337891 301.191267,297.758482 300.809342,298.021955 C298.699086,299.474684 296.318097,300.468147 293.729226,300.973339 C293.630119,300.99026 293.531012,301 293.431905,301 L293.431905,301 Z" id="Fill-170" fill="#FFFFFF"></path>
                <path d="M314,207.001234 C314,227.429925 297.433499,244 276.996297,244 C256.566501,244 240,227.429925 240,207.001234 C240,186.5602 256.566501,170 276.996297,170 C297.433499,170 314,186.5602 314,207.001234" id="Fill-173" fill="#252525"></path>
                <path d="M277.497538,171.191097 C258.029641,171.191097 242.190893,187.030858 242.190893,206.5 C242.190893,225.969142 258.029641,241.808903 277.497538,241.808903 C296.970359,241.808903 312.809107,225.969142 312.809107,206.5 C312.809107,187.030858 296.970359,171.191097 277.497538,171.191097 Z M277.497538,245 C256.271695,245 239,227.7272 239,206.5 C239,185.270338 256.271695,168 277.497538,168 C298.728305,168 316,185.270338 316,206.5 C316,227.7272 298.728305,245 277.497538,245 L277.497538,245 Z" id="Fill-174" fill="#FFFFFF"></path>
                <path d="M303,207 C303,220.800805 291.805714,232 277.997546,232 C264.191832,232 253,220.800805 253,207 C253,193.189378 264.191832,182 277.997546,182 C291.805714,182 303,193.189378 303,207" id="Fill-175" fill="#252525"></path>
                <path d="M277.496331,184.110209 C264.634652,184.110209 254.170167,194.376777 254.170167,207 C254.170167,219.620823 264.634652,229.889791 277.496331,229.889791 C290.362902,229.889791 300.829833,219.620823 300.829833,207 C300.829833,194.376777 290.362902,184.110209 277.496331,184.110209 Z M277.496331,233 C262.885679,233 251,221.334318 251,207 C251,192.663282 262.885679,181 277.496331,181 C292.111875,181 304,192.663282 304,207 C304,221.334318 292.111875,233 277.496331,233 L277.496331,233 Z" id="Fill-176" fill="#FFFFFF"></path>
                <path d="M282,208.002675 C282,210.760835 279.761434,213 276.998663,213 C274.238566,213 272,210.760835 272,208.002675 C272,205.239165 274.238566,203 276.998663,203 C279.761434,203 282,205.239165 282,208.002675" id="Fill-178" fill="#252525"></path>
                <path d="M276.998808,204.090006 C275.394836,204.090006 274.088779,205.396583 274.088779,207.003576 C274.088779,208.605802 275.394836,209.909994 276.998808,209.909994 C278.605164,209.909994 279.911221,208.605802 279.911221,207.003576 C279.911221,205.396583 278.605164,204.090006 276.998808,204.090006 Z M276.998808,213 C273.693148,213 271,210.31055 271,207.003576 C271,203.694218 273.693148,201 276.998808,201 C280.306852,201 283,203.694218 283,207.003576 C283,210.31055 280.306852,213 276.998808,213 L276.998808,213 Z" id="Fill-179" fill="#FFFFFF"></path>
                <path d="M212.126206,250.874397 L230.876206,250.874397 L230.876206,232.125603 L212.126206,232.125603 L212.126206,250.874397 Z M232.439309,254 L210.563103,254 C209.699537,254 209,253.300598 209,252.437199 L209,230.562801 C209,229.699402 209.699537,229 210.563103,229 L232.439309,229 C233.300463,229 234,229.699402 234,230.562801 L234,252.437199 C234,253.300598 233.300463,254 232.439309,254 L232.439309,254 Z" id="Fill-286" fill="#FFFFFF"></path>
                <path d="M239.997687,269.002313 L246.002313,269.002313 L246.002313,262.997687 L239.997687,262.997687 L239.997687,269.002313 Z M247.501157,272 L238.498843,272 C237.670779,272 237,271.329221 237,270.501157 L237,261.498843 C237,260.670779 237.670779,260 238.498843,260 L247.501157,260 C248.329221,260 249,260.670779 249,261.498843 L249,270.501157 C249,271.329221 248.329221,272 247.501157,272 L247.501157,272 Z" id="Fill-287" fill="#FFFFFF"></path>
                <path d="M218.042674,292.957746 L228.959674,292.957746 L228.959674,282.042254 L218.042674,282.042254 L218.042674,292.957746 Z M230.481011,296 L216.521337,296 C215.680845,296 215,295.319249 215,294.478873 L215,280.521127 C215,279.680751 215.680845,279 216.521337,279 L230.481011,279 C231.319155,279 232,279.680751 232,280.521127 L232,294.478873 C232,295.319249 231.319155,296 230.481011,296 L230.481011,296 Z" id="Fill-288" fill="#FFFFFF"></path>
                <path d="M233.425654,338.696614 L233.425654,338.696614 C233.855712,338.696614 234.268269,338.869339 234.57331,339.172232 L240.474112,345.084914 L243.086968,342.469015 L237.183665,336.56134 C236.878624,336.258447 236.7086,335.84541 236.7086,335.414851 C236.7086,334.984291 236.878624,334.571255 237.183665,334.268361 L241.244217,330.198073 L219.528764,321.529311 L228.214945,343.24252 L232.280498,339.172232 C232.58554,338.869339 232.995595,338.696614 233.425654,338.696614 Z M240.474112,349 L240.474112,349 C240.044054,349 239.631498,348.829779 239.328957,348.526885 L233.425654,342.614204 L228.76752,347.275259 C228.384968,347.66076 227.829893,347.823472 227.29732,347.718335 C226.764748,347.608192 226.322188,347.237711 226.11966,346.732054 L215.115664,319.223816 C214.875631,318.623036 215.01565,317.934641 215.475713,317.474043 C215.933275,317.013445 216.618368,316.878269 217.22095,317.113575 L244.729691,328.097845 C245.23476,328.300608 245.60481,328.743684 245.714825,329.276877 C245.82484,329.810069 245.659818,330.365791 245.272265,330.751292 L240.619132,335.412348 L246.524935,341.320023 C246.829977,341.625419 247,342.038456 247,342.469015 C247,342.899575 246.829977,343.310108 246.524935,343.615505 L241.619268,348.526885 C241.316727,348.829779 240.904171,349 240.474112,349 L240.474112,349 Z" id="Fill-289" fill="#FFFFFF"></path>
                <path d="M78.6878472,49.8131137 L88.7370063,63.1598783 L108.312153,47.1930563 L98.265361,33.8413622 L78.6878472,49.8131137 Z M88.4766041,67 C88.0220838,67 87.5699308,66.790494 87.2692846,66.3887354 L75.326291,50.5254341 C75.075358,50.1926893 74.9617279,49.7687477 75.011441,49.347271 C75.0611542,48.928259 75.2671087,48.5437538 75.5890606,48.2824875 L97.5812133,30.3413797 C97.8984305,30.0801133 98.3103395,29.9568745 98.7104121,30.0135644 C99.1152192,30.0628599 99.4821496,30.2797602 99.7330827,30.6125051 L111.673709,46.4807359 C111.924642,46.8134808 112.038272,47.2374223 111.988559,47.6588991 C111.941213,48.0779111 111.732891,48.4624162 111.410939,48.7236825 L89.421154,66.6598608 C89.1394461,66.8890851 88.8080251,67 88.4766041,67 L88.4766041,67 Z" id="Fill-312" fill="#FFFFFF"></path>
                <path d="M56.7804348,13.0318624 L73.9398591,34.3239125 L86.2191247,24.9661697 L69.0621271,3.67411966 L56.7804348,13.0318624 Z M73.6729186,38 C73.6098235,38 73.5467285,37.995281 73.4836334,37.9882025 C73.0710889,37.9386532 72.6925187,37.731018 72.4352851,37.4124867 L53.3369016,13.7137554 C53.0772412,13.3952241 52.9607581,12.991751 53.0117195,12.588278 C53.0626808,12.184805 53.2762333,11.8190838 53.6038421,11.5689778 L68.3608015,0.326001413 C68.6884103,0.0758953283 69.108235,-0.0397197485 69.5207795,0.0121890615 C69.933324,0.0593788887 70.3094675,0.267014129 70.5691279,0.585545463 L89.6650847,24.2842767 C90.2013925,24.9472938 90.0800559,25.9099663 89.3981441,26.4290544 L74.6436115,37.6743902 C74.3645373,37.8843849 74.022368,38 73.6729186,38 L73.6729186,38 Z" id="Fill-313" fill="#FFFFFF"></path>
                <path d="M99.7804877,71.0307652 L116.937685,92.3234035 L129.219521,82.9714445 L112.059897,61.6764464 L99.7804877,71.0307652 Z M116.670742,96 C116.204804,96 115.741293,95.7994155 115.430667,95.4147651 L96.3344876,71.7127526 C96.077251,71.3918174 95.9607665,70.9859287 96.0117284,70.5847596 C96.0602637,70.1835905 96.2738186,69.8154589 96.603858,69.5653182 L111.358563,58.3255048 C112.038056,57.803985 113.030601,57.9219759 113.564488,58.5874446 L132.663094,82.2894571 C132.922758,82.6080326 133.039242,83.0139213 132.98828,83.4150903 C132.937318,83.8162594 132.723764,84.184391 132.396151,84.4345317 L117.639019,95.6743451 C117.350235,95.8938082 117.010488,96 116.670742,96 L116.670742,96 Z" id="Fill-317" fill="#FFFFFF"></path>
                <path d="M260.501234,330.197922 C257.024932,330.197922 254.197507,333.025714 254.197507,336.502468 C254.197507,339.976753 257.024932,342.802078 260.501234,342.802078 C263.975068,342.802078 266.802493,339.976753 266.802493,336.502468 C266.802493,333.025714 263.975068,330.197922 260.501234,330.197922 Z M260.501234,346 C255.260875,346 251,341.738571 251,336.502468 C251,331.261429 255.260875,327 260.501234,327 C265.736658,327 270,331.261429 270,336.502468 C270,341.738571 265.736658,346 260.501234,346 L260.501234,346 Z" id="Fill-395" fill="#FFFFFF"></path>
                <path d="M261.866232,342.753012 C262.792789,342.753012 263.545455,343.460776 263.545455,344.334499 L263.545455,419.418513 C263.545455,420.292236 262.792789,421 261.866232,421 C260.937079,421 260.181818,420.292236 260.181818,419.418513 L260.181818,344.334499 C260.181818,343.460776 260.937079,342.753012 261.866232,342.753012 Z M261.445594,313.305221 C263.066757,313.305221 264.386364,314.627958 264.386364,316.252414 C264.386364,317.874456 263.066757,319.194779 261.445594,319.194779 C259.822019,319.194779 258.5,317.874456 258.5,316.252414 C258.5,314.627958 259.822019,313.305221 261.445594,313.305221 Z M261.445594,299.002008 C263.066757,299.002008 264.386364,300.324745 264.386364,301.946787 C264.386364,303.571243 263.066757,304.891566 261.445594,304.891566 C259.822019,304.891566 258.5,303.571243 258.5,301.946787 C258.5,300.324745 259.822019,299.002008 261.445594,299.002008 Z M261.445594,285.540161 C263.066757,285.540161 264.386364,286.862897 264.386364,288.487354 C264.386364,290.109396 263.066757,291.429719 261.445594,291.429719 C259.822019,291.429719 258.5,290.109396 258.5,288.487354 C258.5,286.862897 259.822019,285.540161 261.445594,285.540161 Z M278.533549,103.86846 L292.059848,107.837352 C292.751187,108.041258 293.215337,108.682107 293.193351,109.398206 L292.905089,117.950136 L299.894207,126.009292 L306.233515,128.011944 C306.763623,128.179439 307.1667,128.611526 307.293731,129.150421 L309.753724,139.537508 C309.890526,140.120098 309.685323,140.726962 309.221173,141.108073 L299.056295,149.477943 L299.342113,159.401386 C299.366542,160.270416 298.677646,160.993798 297.805533,161.018072 L297.759118,161.018072 L297.759118,161.018072 C296.906549,161.018072 296.202995,160.345667 296.178566,159.491202 L295.870762,148.800683 C295.856104,148.317619 296.066193,147.853975 296.442399,147.54326 L306.446047,139.309327 L304.418445,130.740405 L298.509086,128.873691 C298.230597,128.783875 297.981422,128.621236 297.788433,128.400337 L290.103091,119.537693 C289.844144,119.239116 289.707342,118.85315 289.722,118.459902 L289.988275,110.509981 L278.575078,107.160091 L266.436341,120.062023 L266.138308,135.345291 C266.133422,135.687562 266.013721,136.017696 265.801189,136.287144 L255.655853,149.11868 C255.392021,149.453669 255.001158,149.667285 254.573652,149.710979 L242.583932,150.93199 C241.728919,151.016951 240.937422,150.393094 240.849478,149.52892 C240.759091,148.664745 241.394243,147.892814 242.26147,147.802998 L253.581837,146.649956 L262.984533,134.757846 L263.282566,119.3969 C263.289895,119.010935 263.441354,118.637106 263.710072,118.355521 L276.928568,104.302975 C277.338974,103.866033 277.961912,103.703393 278.533549,103.86846 Z M65.424196,72.2625341 C66.069696,72.8597435 66.1043205,73.8656988 65.5008646,74.5045171 C46.1037148,95.0421585 31.1632352,118.710254 21.0998663,144.850406 C20.8550215,145.484329 20.2466192,145.873494 19.6035925,145.873494 C19.4131576,145.873494 19.2202496,145.839228 19.0322879,145.768248 C18.2062459,145.457405 17.7907516,144.542011 18.1048455,143.724519 C28.3190784,117.195202 43.4771978,93.1771027 63.1612364,72.338409 C63.7622191,71.6946956 64.7786961,71.662877 65.424196,72.2625341 Z M52.5491363,115.817074 C53.3029976,116.277532 53.5436439,117.270627 53.0869071,118.032248 C51.598829,120.526185 50.1353067,123.099769 48.7380848,125.683309 C48.4458715,126.218435 47.9031896,126.522088 47.340863,126.522088 C47.0805721,126.522088 46.8202813,126.457375 46.5771794,126.322972 C45.8061291,125.894871 45.523738,124.914221 45.9460968,124.132687 C47.3678743,121.509324 48.8534968,118.893428 50.3661307,116.362157 C50.8179563,115.600535 51.7952749,115.356617 52.5491363,115.817074 Z M68.6971136,94.0867888 C69.3967512,94.6688861 69.498148,95.710534 68.9201865,96.4151781 C65.3890447,100.7324 61.9947885,105.243654 58.8337448,109.826394 C58.514345,110.288498 58.0022914,110.536145 57.4826331,110.536145 C57.1606984,110.536145 56.8336939,110.441681 56.5472481,110.242543 C55.8019819,109.719166 55.6169329,108.690283 56.1340563,107.939684 C59.3483333,103.282905 62.7983577,98.6976124 66.3852677,94.3114579 C66.9632292,93.6068138 68.000011,93.5046915 68.6971136,94.0867888 Z M100.698963,54.7787064 L112.797,70.461 L118.925318,65.4481086 C119.595626,64.8934317 120.577149,65.0208574 121.101426,65.725447 C121.630491,66.427538 121.510793,67.4444457 120.838091,67.996624 L114.742,72.982 L118.98,78.476 L125.652591,73.0205791 C126.325293,72.465909 127.302028,72.5933332 127.828699,73.2954156 C128.357764,73.9999965 128.238066,75.0168917 127.565363,75.5690633 L120.926,80.998 L126.143279,87.7607541 C126.677619,88.4538926 126.558607,89.4603002 125.87368,90.0029709 C125.587079,90.2323727 125.244616,90.3433735 124.904581,90.3433735 C124.438247,90.3433735 123.974343,90.1312386 123.663454,89.7291689 L118.474,83.003 L113.007702,87.4744822 C112.722821,87.706844 112.385273,87.8192771 112.052513,87.8192771 C111.590479,87.8192771 111.135627,87.6044049 110.8292,87.1971471 C110.302529,86.4950647 110.419833,85.4781695 111.094929,84.925998 L116.528,80.481 L112.29,74.987 L106.280429,79.9021888 C105.995548,80.1345534 105.658,80.246988 105.32524,80.246988 C104.863206,80.246988 104.408354,80.0346117 104.101927,79.6273489 C103.575256,78.9252579 103.69256,77.9058517 104.367657,77.3561719 L110.346,72.466 L98.2215671,56.7495878 C97.6847979,56.0539826 97.8062389,55.0500417 98.4887372,54.5049043 C99.1736644,53.9597669 100.162194,54.0831011 100.698963,54.7787064 Z M80.5586462,80.7083841 C81.2244121,81.3363329 81.2399552,82.3661691 80.5923231,83.0091887 C79.1804851,84.418306 77.7867807,85.8475176 76.4138006,87.2943118 C76.0822129,87.6434514 75.631461,87.8192771 75.1781185,87.8192771 C74.7714055,87.8192771 74.3646925,87.6761048 74.0408765,87.3897601 C73.3595675,86.7793938 73.3155285,85.7495576 73.9450269,85.0889554 C75.3387312,83.6220668 76.7505693,82.1727608 78.1857221,80.7410374 C78.8307637,80.095506 79.8928804,80.0804352 80.5586462,80.7083841 Z M79.7660885,52.2834368 C80.2893013,53.0116976 80.1727675,54.0627691 79.5021039,54.6334983 L74.6814117,58.7319023 L78.7981449,64.446942 L83.6212153,60.3433731 C84.2918789,59.7674789 85.2622007,59.9017681 85.7854135,60.624864 C86.3110045,61.3531248 86.1920925,62.4041963 85.5238071,62.9749255 L79.4878344,68.1114885 C79.2143369,68.3439122 78.879005,68.4678715 78.5365385,68.4678715 C78.4747043,68.4678715 78.41287,68.465289 78.3510358,68.4575415 C77.9443568,68.4033094 77.5757296,68.1760507 77.3236362,67.8274152 L71.3043112,59.480823 C70.7810984,58.7525622 70.8976322,57.7014907 71.5682958,57.1307615 L77.6018903,51.996781 C78.2677974,51.4260517 79.2404975,51.555176 79.7660885,52.2834368 Z M150.753298,35.9145521 C151.071706,36.8085532 150.67795,37.8237292 149.868561,38.1791754 C145.86294,39.9348643 141.862179,41.8575053 137.978087,43.9013211 C137.759334,44.0144176 137.528427,44.0682731 137.304812,44.0682731 C136.714178,44.0682731 136.150279,43.699363 135.880483,43.0719466 C135.506171,42.2021804 135.841594,41.1600767 136.626676,40.7480822 C140.573963,38.6719531 144.64035,36.7169989 148.709167,34.9343822 C149.518556,34.5843216 150.43246,35.0178582 150.753298,35.9145521 Z M109.661281,21.9710677 L123.610172,39.7056385 C123.972808,40.1665679 124.055912,40.7844624 123.826746,41.3201372 C123.59758,41.8583034 123.093919,42.2345215 122.509672,42.2993007 L106.946548,44.0583071 C106.881072,44.0657816 106.820633,44.0682731 106.757675,44.0682731 C105.939226,44.0682731 105.234101,43.4603446 105.138405,42.6381461 C105.037673,41.7511685 105.679841,40.9513936 106.573839,40.8492417 L119.250986,39.4191148 L108.883125,26.239025 L104.408097,38.1160549 C104.093309,38.9507108 103.151463,39.3792506 102.310349,39.0653203 C101.466717,38.7538815 101.038605,37.8245481 101.353393,36.9898922 L106.845816,22.3996075 C107.052317,21.8514753 107.543386,21.4553251 108.127633,21.3681222 C108.709361,21.2859024 109.298645,21.5101383 109.661281,21.9710677 Z M62.8580541,6.81788503 L67.975,13.451 L74.3544272,8.23440431 C75.0296082,7.68219415 76.0064658,7.80712857 76.5332027,8.50926005 C77.0623339,9.21389022 76.942621,10.2308565 76.2698343,10.7805679 L69.921,15.973 L73.833,21.045 L80.2438217,15.8047832 C80.9188792,15.254908 81.8907705,15.3798796 82.419805,16.0822203 C82.9488394,16.7870604 82.8291483,17.8043297 82.1540908,18.3567044 L75.78,23.569 L88.3023698,39.8027056 C88.8367101,40.4959025 88.717698,41.5023946 88.0327708,42.0475779 C87.7461701,42.274532 87.4037065,42.3855422 87.0636717,42.3855422 C86.5973383,42.3855422 86.1334338,42.1758563 85.8249736,41.7737528 L73.328,25.574 L67.5972656,30.2615039 C67.3147947,30.4939512 66.9772659,30.6064257 66.642131,30.6064257 C66.1825174,30.6064257 65.7276914,30.3914745 65.4212823,29.9840669 C64.8922479,29.2792268 65.0119389,28.2619575 65.6846026,27.7095828 L71.382,23.05 L67.47,17.979 L61.7127408,22.6893175 C61.427824,22.9216956 61.0902335,23.0341365 60.7574316,23.0341365 C60.2953396,23.0341365 59.8404304,22.821748 59.5339653,22.4144618 C59.0072284,21.7098316 59.1245471,20.6928654 59.7973338,20.1406552 L65.524,15.456 L60.380658,8.7889322 C59.8438888,8.09573538 59.9653298,7.08924321 60.6478281,6.54652685 C61.3303265,6.00134359 62.3237138,6.12715511 62.8580541,6.81788503 Z M192.050689,24.4831523 C192.178461,25.4151757 191.59264,26.284011 190.739222,26.4261841 C180.787505,28.0664399 170.884004,30.578164 161.305958,33.8902697 C161.149257,33.9455592 160.990145,33.9718876 160.833444,33.9718876 C160.170479,33.9718876 159.555729,33.5058759 159.345991,32.7818464 C159.085626,31.881417 159.541264,30.9230653 160.363342,30.6387192 C170.098088,27.2713239 180.160701,24.7201074 190.27153,23.0508904 C191.124948,22.9218815 191.922917,23.5511289 192.050689,24.4831523 Z M224.121217,2 C224.995957,2 225.704545,2.72173435 225.704545,3.61270295 C225.704545,4.50367156 224.995957,5.22540591 224.121217,5.22540591 C191.926874,5.22540591 160.968895,12.2959138 132.102474,26.2428078 C131.882567,26.3498236 131.652887,26.3995984 131.42565,26.3995984 C130.831902,26.3995984 130.265031,26.0586411 129.993813,25.4787649 C129.619971,24.6724134 129.954718,23.7117601 130.746383,23.3284943 C160.037957,9.1750349 191.455296,2 224.121217,2 Z M208.882256,22.9800035 C208.946016,23.9438023 208.25996,24.7780148 207.349469,24.8482074 C204.811826,25.0344879 202.289485,25.2666635 199.782447,25.5474341 C199.721237,25.5555332 199.662578,25.5582329 199.606469,25.5582329 C198.76994,25.5582329 198.055829,24.8914029 197.964015,23.9923972 C197.8671,23.0312981 198.525102,22.1700885 199.433042,22.0674992 C201.980887,21.784029 204.541484,21.5464539 207.117383,21.3574737 C208.048277,21.2764822 208.815946,22.0162046 208.882256,22.9800035 Z M256.957584,4.54411897 C273.570168,7.17212222 289.882789,11.7816946 305.446723,18.2485219 C306.25394,18.5841704 306.644136,19.5239861 306.314908,20.3494328 C306.06372,20.9734903 305.473549,21.3514056 304.851674,21.3514056 C304.651699,21.3514056 304.449285,21.3141113 304.254187,21.2320639 C288.917055,14.8597155 272.843429,10.3147865 256.474717,7.72656378 C255.611409,7.5898181 255.021238,6.76685776 255.155367,5.88919916 C255.287058,5.00656798 256.10647,4.40488701 256.957584,4.54411897 Z M174.499533,288.905622 C175.378719,288.905622 176.090909,289.658697 176.090909,290.588353 C176.090909,291.51801 175.378719,292.271084 174.499533,292.271084 L153.295921,292.271084 C152.416735,292.271084 151.704545,291.51801 151.704545,290.588353 C151.704545,289.658697 152.416735,288.905622 153.295921,288.905622 L174.499533,288.905622 Z M192.163642,344.435743 C193.037608,344.435743 193.75,345.188817 193.75,346.118474 C193.75,347.048131 193.037608,347.801205 192.163642,347.801205 L59.9499945,347.801205 C59.0735806,347.801205 58.3636364,347.048131 58.3636364,346.118474 C58.3636364,345.188817 59.0735806,344.435743 59.9499945,344.435743 L192.163642,344.435743 Z M111.414799,336.863454 C112.30313,336.863454 113.022727,337.616528 113.022727,338.546185 C113.022727,339.475842 112.30313,340.228916 111.414799,340.228916 L69.2215648,340.228916 C68.333234,340.228916 67.6136364,339.475842 67.6136364,338.546185 C67.6136364,337.616528 68.333234,336.863454 69.2215648,336.863454 L111.414799,336.863454 Z M99.1389211,89.9946517 C99.7334068,90.6275545 99.7069317,91.629447 99.0811573,92.2305824 C92.5280644,98.5457128 86.5082605,105.261635 81.0435793,112.326824 L81.267224,112.232004 C81.7549084,112.023176 82.3157454,112.077226 82.7546614,112.374498 L91.715862,118.396113 C92.1547779,118.693385 92.4205659,119.189659 92.4205659,119.720327 L92.4205659,128.026765 L99.4480979,131.670198 L108.384914,125.668238 C108.750678,125.422558 109.201786,125.339027 109.630948,125.447126 L115.873308,126.965427 L120.896457,120.634257 L121.125669,115.138397 C121.147615,114.573333 121.469486,114.062319 121.964486,113.796985 L132.491153,108.195483 C132.876424,107.991569 133.327532,107.957174 133.73231,108.094755 L141.376763,110.686677 C142.020506,110.905333 142.454545,111.512162 142.454545,112.195152 L142.454545,123.729823 C142.454545,124.208899 142.239964,124.66095 141.871763,124.963136 L135.919575,129.852166 L138.179992,139.414028 C138.292159,139.890647 138.179992,140.396747 137.870312,140.782465 L133.122705,146.70335 L135.197802,155.985137 C135.295339,156.417534 135.207555,156.869585 134.958836,157.235648 L128.984703,166.01379 C128.872535,166.178396 128.731107,166.32089 128.567733,166.431446 L120.10397,172.202467 C119.877197,172.357245 119.613847,172.448147 119.340744,172.470258 L96.9389617,174.226869 C96.3366715,174.266178 95.790465,173.986103 95.478347,173.487373 L91.7670688,167.546833 L88.4532534,167.880958 L85.1345612,172.340048 C84.6907684,172.93705 83.8934044,173.143421 83.2179616,172.836321 L70.9868372,167.252017 L63.7934925,174.04998 C63.496005,174.330055 63.1082959,174.47992 62.7108331,174.47992 C62.5474589,174.47992 62.3792078,174.452895 62.2158335,174.398845 L50.9322053,170.648629 C49.9187041,173.990756 48.9998012,177.367237 48.1768322,180.774918 L52.0721639,183.160347 L58.3561793,184.469584 C59.089722,184.622328 59.6154275,185.262399 59.6154275,186.006725 L59.6154275,192.162563 L63.2635797,200.056776 C63.4763071,200.512584 63.4543008,201.043553 63.2073414,201.479965 L58.3781856,210.031222 C57.9869628,210.729481 57.1311631,211.017998 56.3853947,210.714934 L53.0820076,209.349933 L43.1518347,216.730219 C43.0393841,219.404499 42.9828815,222.090144 42.9828815,224.785844 C42.9828815,227.473899 43.0390632,230.152048 43.1512681,232.819578 L49.856064,222.810855 C50.2198357,222.26776 50.8673492,222.007372 51.5003118,222.153685 L59.95679,224.117754 L71.8448474,206.927192 C72.0267332,206.666804 72.2789482,206.465933 72.5699655,206.351859 L85.0667341,201.506163 C85.5153858,201.337531 86.0101152,201.377209 86.4223897,201.622718 L93.7487507,206.031953 C94.1367738,206.265063 94.4083899,206.656884 94.49327,207.108223 C94.5805752,207.559563 94.4714437,208.028261 94.1974024,208.392804 L84.9842792,220.680634 L91.2217503,229.853728 C91.3939356,230.109156 91.4909413,230.406743 91.503067,230.716728 L91.9347427,243.493096 C91.9638445,244.378414 91.2848041,245.12238 90.4190275,245.154618 L90.3632492,245.154618 L90.3632492,245.154618 C89.519299,245.154618 88.8232826,244.47265 88.7941809,243.60469 L88.377056,231.301981 L81.7491367,221.553553 C81.3586884,220.9807 81.3756645,220.211936 81.7903641,219.658921 L90.6227397,207.879468 L85.4790086,204.784571 L74.1341836,209.183887 L61.9138815,226.848108 C61.5452595,227.381283 60.9001711,227.631751 60.2841845,227.487918 L51.8446823,225.528809 L43.4452449,238.067875 C44.9968787,260.223671 50.4477217,281.606215 59.7055012,301.799608 C60.0689318,302.591348 59.7295694,303.534593 58.9497582,303.903582 C58.7379576,304.003772 58.511716,304.050201 58.2926949,304.050201 C57.7054297,304.050201 57.1422326,303.712978 56.8774819,303.136279 C47.8484158,283.44151 42.3780829,262.633553 40.5502417,241.088836 C40.258759,241.081611 39.9652727,240.990535 39.7068351,240.80986 C38.9914176,240.306443 38.8071066,239.30705 39.2969857,238.575484 L40.2566736,237.141871 C39.994838,233.04791 39.8636364,228.928384 39.8636364,224.785844 C39.8636364,222.550493 39.9018293,220.321939 39.9779094,218.100901 C39.7335991,217.998016 39.5116452,217.830388 39.3403084,217.602975 C38.8146029,216.90714 38.9564211,215.922788 39.6557318,215.401517 L40.1056558,215.066007 C40.6633716,203.899859 42.18122,192.93329 44.6199854,182.258855 C44.0671631,181.76092 43.9336075,180.927501 44.3406242,180.272752 C44.5559533,179.927498 44.8850244,179.693963 45.2504313,179.589839 C46.0651726,176.250548 46.9706666,172.940489 47.9656051,169.662932 L47.6755235,169.566322 C46.8464601,169.29116 46.3977904,168.391972 46.6708937,167.55666 C46.943997,166.718892 47.8388978,166.264384 48.6655228,166.544459 L48.9157495,166.627046 C54.3608137,149.739835 62.2000684,133.750188 72.2637861,119.058679 C71.852627,118.918782 71.5008322,118.606314 71.3184625,118.170087 C70.9819603,117.3618 71.3574773,116.428217 72.1621565,116.086722 L75.3010459,114.757091 C81.7046336,105.955628 88.929343,97.6516458 96.9366762,89.9360043 C97.5600439,89.3348688 98.5516558,89.3617489 99.1389211,89.9946517 Z M140.641785,187.961894 L156.019361,190.375902 C156.455398,190.444385 156.840565,190.693857 157.08523,191.063173 L159.902514,195.328654 L170.808287,192.814368 C171.653715,192.628487 172.494298,193.154335 172.688092,194.00792 C172.879464,194.861506 172.351374,195.7102 171.505947,195.905864 L159.543995,198.662285 C158.919008,198.809033 158.250418,198.54244 157.889476,197.997026 L154.856596,193.398915 L141.353979,191.280849 L137.364239,200.4893 L144.507981,213.60859 C144.718732,213.995027 144.759913,214.454838 144.621835,214.873071 L141.74399,223.589914 L145.922679,232.67852 C146.164922,233.204368 146.104361,233.818265 145.765221,234.285413 L142.008035,239.460734 C141.700386,239.883858 141.223168,240.106426 140.741104,240.106426 C140.418921,240.106426 140.094316,240.006148 139.813314,239.8007 C139.113232,239.28219 138.963042,238.291639 139.476597,237.584802 L142.686315,233.165235 L138.633592,224.355451 C138.464022,223.98858 138.439797,223.570348 138.568186,223.186357 L141.426652,214.528212 L134.239306,201.333102 C134.004331,200.900195 133.982529,200.38413 134.176323,199.934102 L138.963042,188.891299 C139.248888,188.233378 139.934436,187.846941 140.641785,187.961894 Z M43.3677907,212.64252 L51.9058942,206.297472 C52.3533552,205.960465 52.9475248,205.892578 53.4634498,206.103511 L56.3022599,207.276975 L60.0482177,200.641084 L56.5907866,193.159037 C56.4954261,192.952954 56.4465232,192.729899 56.4465232,192.504419 L56.4465232,187.282018 L51.1503452,186.178865 C50.9694047,186.140073 50.7982448,186.072187 50.6442008,185.977631 L47.4266871,184.009033 C45.3488069,193.350375 43.9868259,202.916147 43.3677907,212.64252 Z M194.951135,165.705019 C195.593309,166.345179 195.590781,167.382593 194.951135,168.022752 L187.295608,175.684428 C186.977049,176.003243 186.55736,176.162651 186.137671,176.162651 C185.717982,176.162651 185.298294,176.003243 184.979735,175.684428 C184.340088,175.044269 184.340088,174.004325 184.979735,173.364165 L192.635262,165.705019 C193.274908,165.06486 194.311489,165.06486 194.951135,165.705019 Z M133.368985,111.327902 L124.24441,116.184994 L124.034706,121.290222 C124.020076,121.626803 123.898155,121.953558 123.68845,122.218892 L117.711878,129.744067 C117.329046,130.228057 116.709687,130.446712 116.107397,130.296847 L109.562672,128.704841 L100.428344,134.839468 C99.9504128,135.158852 99.3383689,135.193247 98.8287387,134.93037 L90.1162572,130.414773 C89.5919965,130.142069 89.2603711,129.594202 89.2603711,128.9972 L89.2603711,120.572837 L81.7085784,115.49709 L77.2781722,117.372007 C66.2032636,132.756874 57.6675476,149.669718 51.8816858,167.613391 L62.3158088,171.07971 L69.5969367,164.200673 C70.0626753,163.763363 70.7454334,163.65035 71.3306547,163.913227 L83.3667053,169.409087 L86.34158,165.411875 C86.607368,165.055639 87.0072692,164.827157 87.4486236,164.782934 L92.4254428,164.281747 C93.0179793,164.212957 93.5983237,164.505316 93.9201954,165.01633 L97.6436657,170.976524 L118.679932,169.328012 L126.548719,163.96482 L131.962016,156.007248 L129.872288,146.651758 C129.767436,146.177595 129.882042,145.681322 130.184406,145.302975 L134.924699,139.38946 L132.615513,129.61877 C132.474085,129.026682 132.683789,128.402655 133.154404,128.016937 L139.294351,122.975586 L139.294351,113.34002 L133.368985,111.327902 Z M211.770071,149.718058 C212.409976,150.358125 212.409976,151.395389 211.770071,152.035456 L204.116503,159.696024 C203.795285,160.017322 203.377956,160.176707 202.958097,160.176707 C202.538239,160.176707 202.11838,160.019852 201.797163,159.698554 C201.159787,159.058487 201.157258,158.018693 201.797163,157.381156 L209.450731,149.718058 C210.095695,149.080521 211.132695,149.077991 211.770071,149.718058 Z M191.996165,138.534122 C192.260425,139.336925 191.774689,140.184199 190.911439,140.427614 C183.826748,142.435793 178.216881,147.54284 175.906491,154.086976 C175.679982,154.723602 175.043241,155.128514 174.358681,155.128514 C174.190058,155.128514 174.018918,155.105109 173.850295,155.053617 C172.994595,154.791477 172.528994,153.937182 172.808354,153.139059 C175.44844,145.65871 181.861155,139.821416 189.960102,137.527692 C190.823352,137.279595 191.734421,137.733659 191.996165,138.534122 Z M231.520307,94.8603592 C231.779318,95.7159924 231.303231,96.6216625 230.459597,96.8843569 C228.096433,97.6148975 226.226622,99.4712711 225.456991,101.84803 C225.237448,102.531035 224.610889,102.963855 223.939928,102.963855 C223.774655,102.963855 223.606914,102.936335 223.439174,102.883796 C222.60294,102.603589 222.146588,101.687911 222.420399,100.837282 C223.513177,97.4572808 226.169887,94.8203296 229.527158,93.7820613 C230.37326,93.5143633 231.263763,94.0047261 231.520307,94.8603592 Z M224.425832,38.1787149 C255.413312,38.1787149 286.102176,45.7531518 313.170939,60.0882629 C313.939507,60.4963374 314.225884,61.434193 313.807333,62.1859094 C313.391229,62.9352393 312.4244,63.2144482 311.655832,62.8063736 C292.141371,52.471523 270.710694,45.7101041 248.652501,42.8404658 L238.575746,59.5845543 C238.323305,60.0085781 237.882146,60.2880484 237.384616,60.3410513 L230.855459,61.0565915 L220.392631,68.4023225 C220.257833,68.4986915 220.105878,68.5733775 219.944119,68.6239713 L208.486233,72.1414417 L204.827062,88.690417 C204.697165,89.2710405 204.246202,89.7287935 203.66044,89.8733471 L188.234571,93.6606508 C188.104674,93.69438 187.977228,93.7088353 187.849782,93.7088353 C187.259119,93.7088353 186.702768,93.3835898 186.428269,92.8463323 L181.435816,83.0311445 L171.541594,82.3372873 C170.801427,82.2842843 170.198509,81.7373899 170.085769,81.0170313 L168.541711,71.1608866 C168.480439,70.7754104 168.568671,70.3827065 168.789251,70.0574609 L182.349997,50.063292 L181.890337,46.1460826 C166.024562,49.8305973 150.693339,55.5663454 136.395444,63.2287666 C136.153125,63.3576323 135.891225,63.4196787 135.631772,63.4196787 C135.073704,63.4196787 134.530321,63.1309242 134.241496,62.617848 C133.820497,61.868518 134.099532,60.928276 134.868099,60.517815 C162.142467,45.903495 193.110365,38.1787149 224.425832,38.1787149 Z M224.425832,41.2691042 C211.132703,41.2691042 197.903927,42.6850246 185.004183,45.4507663 L185.57291,50.2728947 C185.614575,50.6390971 185.523892,51.010118 185.315567,51.3184989 L171.774428,71.2837571 L173.029281,79.3112991 L182.565674,79.981064 C183.124476,80.0196116 183.619555,80.3472664 183.871996,80.8387485 L188.700239,90.3311001 L201.932567,87.0786446 L205.577032,70.5923092 C205.699577,70.0430056 206.111325,69.6021172 206.655422,69.4334713 L218.752989,65.7184444 L229.345714,58.2787536 C229.566293,58.1245632 229.823636,58.0257849 230.093234,57.9968742 L236.244955,57.3247 L245.213722,42.4252202 C238.325817,41.6576802 231.383551,41.2691042 224.425832,41.2691042 Z M121.523753,283.016064 C122.402115,283.016064 123.113636,283.769138 123.113636,284.698795 C123.113636,285.628452 122.402115,286.381526 121.523753,286.381526 L96.1126105,286.381526 C95.2367026,286.381526 94.5227273,285.628452 94.5227273,284.698795 C94.5227273,283.769138 95.2367026,283.016064 96.1126105,283.016064 L121.523753,283.016064 Z M121.523753,291.429719 C122.402115,291.429719 123.113636,292.18539 123.113636,293.11245 C123.113636,294.042107 122.402115,294.795181 121.523753,294.795181 L96.1126105,294.795181 C95.2367026,294.795181 94.5227273,294.042107 94.5227273,293.11245 C94.5227273,292.18539 95.2367026,291.429719 96.1126105,291.429719 L121.523753,291.429719 Z M108.056679,300.684739 C108.941962,300.684739 109.659091,301.437813 109.659091,302.36747 C109.659091,303.297127 108.941962,304.050201 108.056679,304.050201 L96.1251392,304.050201 C95.2423289,304.050201 94.5227273,303.297127 94.5227273,302.36747 C94.5227273,301.437813 95.2423289,300.684739 96.1251392,300.684739 L108.056679,300.684739 Z M187.963405,252.726908 C188.837439,252.726908 189.545455,253.479982 189.545455,254.409639 C189.545455,255.339295 188.837439,256.092369 187.963405,256.092369 L66.6729584,256.092369 C65.798925,256.092369 65.0909091,255.339295 65.0909091,254.409639 C65.0909091,253.479982 65.798925,252.726908 66.6729584,252.726908 L187.963405,252.726908 Z" id="Combined-Shape" fill="#FFFFFF"></path>
                <path d="M9.49876671,152.2 C6.02336752,152.2 3.19421005,155.02716 3.19421005,158.501235 C3.19421005,161.975309 6.02336752,164.8 9.49876671,164.8 C12.9766325,164.8 15.8033234,161.975309 15.8033234,158.501235 C15.8033234,155.02716 12.9766325,152.2 9.49876671,152.2 Z M9.49876671,168 C4.26223549,168 0,163.738272 0,158.501235 C0,153.261728 4.26223549,149 9.49876671,149 C14.7377645,149 19,153.261728 19,158.501235 C19,163.738272 14.7377645,168 9.49876671,168 L9.49876671,168 Z" id="Fill-983" fill="#FFFFFF"></path>
            </g>
        </g>
    </g>
</svg>