<?xml version="1.0" encoding="UTF-8"?>
<svg width="378px" height="237px" viewBox="0 0 378 237" version="1.1" xmlns="http://www.w3.org/2000/svg" xmlns:xlink="http://www.w3.org/1999/xlink">
    <title>Group 15</title>
    <g id="Page-1" stroke="none" stroke-width="1" fill="none" fill-rule="evenodd">
        <g id="Home-1920" transform="translate(-798.000000, -1309.000000)">
            <g id="Group-15" transform="translate(798.000000, 1309.000000)">
                <polyline id="Fill-1256" fill="#FFFFFF" points="64 35.5 70 35.5 64 35.5"></polyline>
                <path d="M69.7137177,37 L63.2862823,37 C62.5765408,37 62,36.3281853 62,35.5011583 C62,34.6718147 62.5765408,34 63.2862823,34 L69.7137177,34 C70.4234592,34 71,34.6718147 71,35.5011583 C71,36.3281853 70.4234592,37 69.7137177,37" id="Fill-1257" fill="#FFFFFF"></path>
                <polyline id="Fill-1258" fill="#FFFFFF" points="50 35.5 56 35.5 50 35.5"></polyline>
                <path d="M55.7227332,37 L49.2772668,37 C48.5716163,37 48,36.3281853 48,35.5011583 C48,34.6718147 48.5716163,34 49.2772668,34 L55.7227332,34 C56.4283837,34 57,34.6718147 57,35.5011583 C57,36.3281853 56.4283837,37 55.7227332,37" id="Fill-1259" fill="#FFFFFF"></path>
                <path d="M153.711718,179 L1.28828169,179 C0.577436925,179 0,178.418138 0,177.701846 L0,35.3001605 C0,34.581862 0.577436925,34 1.28828169,34 L40.3489029,34 C41.0617389,34 41.6391758,34.581862 41.6391758,35.3001605 C41.6391758,36.0164526 41.0617389,36.5983146 40.3489029,36.5983146 L2.57855454,36.5983146 L2.57855454,176.401685 L152.423437,176.401685 L152.423437,168.516453 C152.423437,167.800161 153.000874,167.218299 153.711718,167.218299 C154.422563,167.218299 155,167.800161 155,168.516453 L155,177.701846 C155,178.418138 154.422563,179 153.711718,179" id="Fill-1261" fill="#FFFFFF"></path>
                <path d="M22.5626649,158.290417 L44.4373351,158.290417 L44.4373351,148.709583 L22.5626649,148.709583 L22.5626649,158.290417 Z M45.719657,161 L21.280343,161 C20.5738786,161 20,160.393221 20,159.644162 L20,147.353745 C20,146.606779 20.5738786,146 21.280343,146 L45.719657,146 C46.4261214,146 47,146.606779 47,147.353745 L47,159.644162 C47,160.393221 46.4261214,161 45.719657,161 L45.719657,161 Z" id="Fill-1263" fill="#FFFFFF"></path>
                <path d="M23.5781946,138.408334 L94.4218054,138.408334 L94.4218054,115.591666 L23.5781946,115.591666 L23.5781946,138.408334 Z M95.7099073,141 L22.2881018,141 C21.5773563,141 21,140.419627 21,139.705168 L21,114.294832 C21,113.580373 21.5773563,113 22.2881018,113 L95.7099073,113 C96.4206528,113 97,113.580373 97,114.294832 L97,139.705168 C97,140.419627 96.4206528,141 95.7099073,141 L95.7099073,141 Z" id="Fill-1265" fill="#FFFFFF"></path>
                <path d="M53.5781946,107.408334 L124.421805,107.408334 L124.421805,84.5916661 L53.5781946,84.5916661 L53.5781946,107.408334 Z M125.711898,110 L52.2900927,110 C51.5773563,110 51,109.419627 51,108.703166 L51,83.2948324 C51,82.5803731 51.5773563,82 52.2900927,82 L125.711898,82 C126.422644,82 127,82.5803731 127,83.2948324 L127,108.703166 C127,109.419627 126.422644,110 125.711898,110 L125.711898,110 Z" id="Fill-1267" fill="#FFFFFF"></path>
                <path d="M23.5781946,76.4324016 L94.4218054,76.4324016 L94.4218054,53.8061849 L85.30953,53.8061849 C84.6007754,53.8061849 84.0234191,53.2347256 84.0214282,52.5283384 L83.9776288,43.5457125 L67.090952,53.6236354 C66.8898727,53.7446736 66.660921,53.8061849 66.4279876,53.8061849 L23.5781946,53.8061849 L23.5781946,76.4324016 Z M95.7099073,79 L22.2881018,79 C21.5773563,79 21,78.4245722 21,77.7162008 L21,52.5223857 C21,51.81203 21.5773563,51.2366023 22.2881018,51.2366023 L66.0716194,51.2366023 L84.5948027,40.1824364 C84.9929795,39.9463126 85.4887096,39.9383756 85.8908681,40.1645783 C86.2950176,40.3907809 86.5458689,40.8173912 86.5478598,41.2797176 L86.5936501,51.2366023 L95.7099073,51.2366023 C96.4206528,51.2366023 97,51.81203 97,52.5223857 L97,77.7162008 C97,78.4245722 96.4206528,79 95.7099073,79 L95.7099073,79 Z" id="Fill-1269" fill="#FFFFFF"></path>
                <path d="M106.536277,138.408334 L123.463723,138.408334 L123.463723,115.591666 L106.536277,115.591666 L106.536277,138.408334 Z M124.732841,141 L105.267159,141 C104.567969,141 104,140.419627 104,139.705168 L104,114.294832 C104,113.580373 104.567969,113 105.267159,113 L124.732841,113 C125.432031,113 126,113.580373 126,114.294832 L126,139.705168 C126,140.419627 125.432031,141 124.732841,141 L124.732841,141 Z" id="Fill-1271" fill="#FFFFFF"></path>
                <path d="M114.876976,130.389113 L118.123024,130.389113 L118.123024,120.610887 L114.876976,120.610887 L114.876976,130.389113 Z M119.561512,133 L113.438488,133 C112.644763,133 112,132.415323 112,131.693548 L112,119.306452 C112,118.584677 112.644763,118 113.438488,118 L119.561512,118 C120.355237,118 121,118.584677 121,119.306452 L121,131.693548 C121,132.415323 120.355237,133 119.561512,133 L119.561512,133 Z" id="Fill-1273" fill="#FFFFFF"></path>
                <path d="M59.5624771,158.290417 L81.4375229,158.290417 L81.4375229,148.709583 L59.5624771,148.709583 L59.5624771,158.290417 Z M82.7177721,161 L58.2822279,161 C57.5738366,161 57,160.393221 57,159.644162 L57,147.353745 C57,146.606779 57.5738366,146 58.2822279,146 L82.7177721,146 C83.4261634,146 84,146.606779 84,147.353745 L84,159.644162 C84,160.393221 83.4261634,161 82.7177721,161 L82.7177721,161 Z" id="Fill-1275" fill="#FFFFFF"></path>
                <path d="M96.5626649,158.290417 L118.437335,158.290417 L118.437335,148.709583 L96.5626649,148.709583 L96.5626649,158.290417 Z M119.719657,161 L95.280343,161 C94.5738786,161 94,160.393221 94,159.644162 L94,147.353745 C94,146.606779 94.5738786,146 95.280343,146 L119.719657,146 C120.426121,146 121,146.606779 121,147.353745 L121,159.644162 C121,160.393221 120.426121,161 119.719657,161 L119.719657,161 Z" id="Fill-1277" fill="#FFFFFF"></path>
                <path d="M308.570277,50.1965761 L328.644616,50.1965761 C329.114644,50.1965761 329.54699,50.4510234 329.773079,50.8632676 L337.003966,64.0570525 L344.266586,50.8612951 C344.492675,50.4510234 344.925021,50.1965761 345.395048,50.1965761 L365.429723,50.1965761 L365.429723,17.5563082 L308.570277,17.5563082 L308.570277,50.1965761 Z M337,68 L337,68 C336.527989,68 336.097627,67.7435802 335.871537,67.3333085 L327.88107,52.7528843 L307.285139,52.7528843 C306.575139,52.7528843 306,52.1808709 306,51.4747302 L306,16.2781541 C306,15.5720134 306.575139,15 307.285139,15 L366.714861,15 C367.424861,15 368,15.5720134 368,16.2781541 L368,51.4747302 C368,52.1808709 367.424861,52.7528843 366.714861,52.7528843 L346.154629,52.7528843 L338.128463,67.335281 C337.902373,67.7455527 337.470028,68 337,68 L337,68 Z" id="Fill-950" fill="#FFFFFF"></path>
                <path d="M324.499086,36 C323.120658,36 322,34.878932 322,33.4981712 C322,32.121068 323.120658,31 324.499086,31 C325.879342,31 327,32.121068 327,33.4981712 C327,34.878932 325.879342,36 324.499086,36" id="Fill-952" fill="#FFFFFF"></path>
                <path d="M337.499086,36 C336.120658,36 335,34.878932 335,33.4981712 C335,32.121068 336.120658,31 337.499086,31 C338.879342,31 340,32.121068 340,33.4981712 C340,34.878932 338.879342,36 337.499086,36" id="Fill-952" fill="#FFFFFF"></path>
                <path d="M351.499086,36 C350.120658,36 349,34.878932 349,33.4981712 C349,32.121068 350.120658,31 351.499086,31 C352.879342,31 354,32.121068 354,33.4981712 C354,34.878932 352.879342,36 351.499086,36" id="Fill-952" fill="#FFFFFF"></path>
                <path d="M282.549926,66.5361588 L282.549926,128.147294 C282.549926,134.500119 286.412199,137.394899 290.000984,137.394899 C293.587801,137.394899 297.450074,134.500119 297.450074,128.147294 L297.450074,66.5361588 L289.999016,29.7348358 L282.549926,66.5361588 Z M290.000984,140 C285.030989,140 280,135.928399 280,128.147294 L280,66.4013775 C280,66.3148761 280.009838,66.226363 280.027545,66.1378499 L288.751599,23.0400286 C288.873586,22.4345187 289.394983,22 289.999016,22 C290.60305,22 291.124447,22.4345187 291.246434,23.0400286 L299.974422,66.1378499 C299.99213,66.226363 300,66.3148761 300,66.4013775 L300,128.147294 C300,135.928399 294.970979,140 290.000984,140 L290.000984,140 Z" id="Fill-958" fill="#FFFFFF"></path>
                <polyline id="Fill-959" fill="#FFFFFF" points="282 118.5 299 118.5 282 118.5"></polyline>
                <path d="M298.725037,120 L281.274963,120 C280.570585,120 280,119.328704 280,118.5 C280,117.671296 280.570585,117 281.274963,117 L298.725037,117 C299.429415,117 300,117.671296 300,118.5 C300,119.328704 299.429415,120 298.725037,120" id="Fill-960" fill="#FFFFFF"></path>
                <polyline id="Fill-961" fill="#FFFFFF" points="282 109.5 299 109.5 282 109.5"></polyline>
                <path d="M298.725037,111 L281.274963,111 C280.570585,111 280,110.328704 280,109.5 C280,108.671296 280.570585,108 281.274963,108 L298.725037,108 C299.429415,108 300,108.671296 300,109.5 C300,110.328704 299.429415,111 298.725037,111" id="Fill-962" fill="#FFFFFF"></path>
                <polyline id="Fill-963" fill="#FFFFFF" points="285 44.5 294 44.5 285 44.5"></polyline>
                <path d="M293.711264,46 L285.288736,46 C284.576749,46 284,45.3287037 284,44.5 C284,43.6712963 284.576749,43 285.288736,43 L293.711264,43 C294.423251,43 295,43.6712963 295,44.5 C295,45.3287037 294.423251,46 293.711264,46" id="Fill-964" fill="#FFFFFF"></path>
                <polyline id="Fill-965" fill="#FFFFFF" points="282 67.5 299 67.5 282 67.5"></polyline>
                <path d="M298.725037,69 L281.274963,69 C280.570585,69 280,68.3287037 280,67.5 C280,66.6712963 280.570585,66 281.274963,66 L298.725037,66 C299.429415,66 300,66.6712963 300,67.5 C300,68.3287037 299.429415,69 298.725037,69" id="Fill-966" fill="#FFFFFF"></path>
                <polyline id="Fill-967" fill="#FFFFFF" points="287.5 75 287.5 108 287.5 75"></polyline>
                <path d="M287.5,109 C286.671296,109 286,108.405332 286,107.671224 L286,74.3287765 C286,73.5946685 286.671296,73 287.5,73 C288.328704,73 289,73.5946685 289,74.3287765 L289,107.671224 C289,108.405332 288.328704,109 287.5,109" id="Fill-968" fill="#FFFFFF"></path>
                <path d="M250.34516,179 L215.755128,179 C205.412168,179 197,170.651314 197,160.390381 C197,150.125473 205.412168,141.776787 215.755128,141.776787 C218.406964,141.778774 220.99671,142.32939 223.38216,143.384903 C222.751247,140.625861 222.432787,137.795258 222.432787,134.936827 C222.432787,114.017405 239.579588,97 260.658077,97 C264.930256,97.0019878 269.124323,97.6957238 273.124108,99.0633181 C273.80309,99.2958887 274.161609,100.02938 273.929273,100.701251 C273.694934,101.373121 272.957868,101.73291 272.278886,101.500339 C268.549491,100.224183 264.639836,99.5781538 260.658077,99.576166 C241.01166,99.576166 225.026538,115.43867 225.026538,134.936827 C225.026538,138.570494 225.579338,142.154465 226.670917,145.585378 C226.835155,146.106177 226.652891,146.674682 226.212254,147.002667 C225.769613,147.330651 225.170747,147.346553 224.712084,147.04441 C222.058245,145.285223 218.959763,144.35494 215.753125,144.352953 C206.844239,144.352953 199.595755,151.546737 199.595755,160.390381 C199.595755,169.232037 206.844239,176.423834 215.755128,176.423834 L250.34516,176.423834 C251.062197,176.423834 251.643037,177.000291 251.643037,177.711917 C251.643037,178.423543 251.062197,179 250.34516,179" id="Fill-1036" fill="#FFFFFF"></path>
                <path d="M322.848831,108 C322.418997,108 322.008881,107.774107 321.770304,107.387445 C320.088433,104.648243 317.677029,102.501246 314.790442,101.180487 C313.015901,100.36646 311.136859,99.8983945 309.208524,99.7905359 C308.504623,99.7518696 307.964374,99.1311739 308.001836,98.4026195 C308.041271,97.6761003 308.628841,97.1164566 309.346544,97.157158 C311.586409,97.2833322 313.767123,97.8266953 315.827563,98.7689318 C318.215307,99.8637983 320.325039,101.445046 322.046344,103.414992 C322.586593,100.572002 323.438373,97.7920992 324.585909,95.1180199 C328.661439,85.6325681 336.069162,78.3531301 345.446627,74.6208155 C354.824091,70.8905359 365.04742,71.1489895 374.239543,75.3534399 C374.884293,75.6485248 375.176106,76.4279558 374.890208,77.093423 C374.606281,77.7588902 373.853087,78.0641504 373.204394,77.7649954 C364.637303,73.8434195 355.108017,73.6012464 346.367416,77.0812126 C337.624844,80.5611788 330.719907,87.3460954 326.922389,96.1884656 C325.46135,99.584994 324.518871,103.164679 324.118614,106.829836 C324.059462,107.385409 323.663148,107.841265 323.136701,107.967439 C323.040087,107.989825 322.945445,108 322.848831,108" id="Fill-1037" fill="#FFFFFF"></path>
                <path d="M320.373414,172.87514 C322.006363,173.84168 323.789399,174.582093 325.702511,175.084373 C325.8546,173.955743 326.150772,173.083256 326.61304,172.294816 C326.655065,172.224777 326.735111,172.116717 326.789143,172.054682 C327.07731,171.610435 327.515565,171.502374 328.033866,171.600429 C330.523313,172.072693 332.53048,172.070691 335.001916,171.598428 C335.512213,171.502374 336.036517,171.718495 336.324685,172.152737 C336.909025,173.115274 337.2112,174.031786 337.343277,175.082372 C339.234376,174.578091 341.015411,173.837677 342.668372,172.865135 C342.034003,172.040675 341.637773,171.286254 341.429652,170.549843 C341.379623,170.457791 341.343602,170.359737 341.319588,170.25768 C341.301577,170.18564 341.285568,170.065573 341.281566,169.993532 C341.157494,169.46924 341.397633,169.091029 341.843893,168.790861 C343.819041,167.456116 345.498016,165.779181 346.830791,163.808081 C347.128964,163.367835 347.659273,163.149713 348.18758,163.26978 C349.260203,163.545935 350.140715,163.992184 350.903158,164.610529 C351.845706,162.977617 352.584135,161.176612 353.084426,159.293562 C351.985787,159.143478 351.107277,158.841309 350.334828,158.387056 C350.324822,158.381053 350.314816,158.375049 350.30481,158.369046 C350.262786,158.343031 350.204752,158.301008 350.154723,158.260986 C349.746486,157.970824 349.540366,157.46254 349.636422,156.962261 C349.87456,155.72357 349.990628,154.584934 349.990628,153.480318 C349.990628,152.375702 349.87456,151.237066 349.636422,150.000376 C349.538365,149.486089 349.756491,148.965799 350.190744,148.675637 C350.260785,148.615603 350.300808,148.59159 350.382855,148.547565 C351.145299,148.099315 352.067835,147.789142 353.082424,147.657068 C352.584135,145.786024 351.85371,144.009033 350.895153,142.348106 C350.074676,143.004472 349.222181,143.43071 348.287638,143.674846 C348.209592,143.692856 348.091524,143.712868 348.013478,143.718871 C347.509185,143.810922 347.100948,143.580794 346.812781,143.154556 C345.482007,141.18946 343.809035,139.518527 341.843893,138.187785 C341.407639,137.89362 341.193515,137.359322 341.303579,136.843034 C341.577738,135.754427 342.023997,134.871934 342.64836,134.101504 C340.985394,133.14297 339.20636,132.412562 337.333271,131.916285 C337.185185,133.008895 336.883009,133.889386 336.424743,134.66782 C336.388722,134.729855 336.312678,134.833913 336.266651,134.889944 C335.976483,135.326188 335.510212,135.460263 334.999915,135.364209 C332.534482,134.887943 330.503302,134.887943 328.03987,135.364209 C327.531574,135.464265 327.029282,135.254148 326.739114,134.847921 C326.703093,134.801895 326.66307,134.749866 326.641057,134.713846 C326.138765,133.857368 325.830586,132.932852 325.694507,131.920287 C323.815415,132.418565 322.016369,133.156977 320.38342,134.101504 C321.035799,134.911957 321.462047,135.766433 321.712192,136.706958 C321.734205,136.789004 321.752215,136.901067 321.756218,136.985113 C321.872285,137.505404 321.634147,137.871608 321.19189,138.169775 C319.238755,139.490512 317.569785,141.159443 316.233008,143.12654 C315.930832,143.570788 315.388517,143.784908 314.86021,143.658837 C313.901653,143.46673 313.013136,143.026485 312.128622,142.340102 C311.158058,143.993024 310.417628,145.776019 309.915336,147.665073 C311.039989,147.813156 311.912497,148.109321 312.704957,148.575581 C312.770996,148.613602 312.879058,148.691646 312.937092,148.741674 C313.371344,149.031836 313.499419,149.486089 313.401362,149.998375 C313.165225,151.237066 313.049157,152.375702 313.049157,153.480318 C313.049157,154.582933 313.163223,155.72357 313.399361,156.966263 C313.499419,157.484552 313.271286,158.012847 312.827028,158.297006 C311.88448,158.869325 310.969949,159.171494 309.917337,159.305568 C310.42163,161.218636 311.16206,163.001631 312.128622,164.634542 C313.069169,163.908137 313.925667,163.491904 314.770157,163.311804 C314.834195,163.297796 314.952263,163.281787 315.020303,163.277785 C315.538604,163.16172 315.914823,163.395851 316.216998,163.840099 C317.541768,165.793189 319.204735,167.456116 321.159871,168.784858 C321.60613,169.085025 321.818254,169.63133 321.694182,170.153622 C321.50207,171.106153 321.059813,171.99665 320.373414,172.87514 Z M336.064534,178 C335.76636,178 335.474191,177.895942 335.240055,177.703835 C334.941881,177.457697 334.76778,177.089492 334.76778,176.703276 L334.76778,175.300494 C334.723754,174.978314 334.641707,174.640125 334.521637,174.311942 C332.442429,174.624116 330.599357,174.624116 328.510143,174.311942 C328.404081,174.632121 328.312028,175.02434 328.259998,175.456581 L328.270004,176.703276 C328.270004,177.089492 328.097903,177.457697 327.79973,177.703835 C327.499556,177.949972 327.103325,178.050028 326.729108,177.975987 C323.339138,177.323623 320.265351,176.040907 317.591797,174.163859 C317.277615,173.945738 317.077498,173.597543 317.04548,173.21533 C317.01146,172.835118 317.147539,172.458908 317.419697,172.188757 L318.40427,171.200206 C318.602385,170.940061 318.780488,170.655902 318.916567,170.367741 C317.281617,169.149061 315.846783,167.712259 314.628075,166.079348 C314.345911,166.223429 314.019721,166.431545 313.685527,166.697693 L312.811019,167.580186 C312.542863,167.852338 312.172648,167.990415 311.784422,167.954394 C311.4022,167.920376 311.055999,167.720264 310.835871,167.40809 C308.95878,164.736599 307.676034,161.660883 307.023655,158.270991 C306.949612,157.890779 307.051671,157.49856 307.297814,157.200394 C307.543958,156.902227 307.91017,156.730131 308.296395,156.730131 L309.69921,156.730131 C310.021397,156.686107 310.359594,156.60206 310.687785,156.481993 C310.531694,155.441412 310.45565,154.450859 310.45565,153.480318 C310.45565,152.505774 310.533695,151.515221 310.689786,150.47264 C310.363596,150.364579 309.975371,150.274529 309.547122,150.224501 L308.296395,150.232506 C307.91017,150.232506 307.543958,150.06041 307.297814,149.762243 C307.051671,149.464077 306.949612,149.069857 307.023655,148.691646 C307.666029,145.353783 308.946773,142.282069 310.829867,139.558549 C311.049995,139.242373 311.396196,139.04026 311.78042,139.006241 C312.150635,138.972222 312.540862,139.108298 312.81302,139.38045 L313.799593,140.367001 C314.063747,140.569113 314.353915,140.749214 314.646085,140.88529 C315.866795,139.250378 317.299628,137.813576 318.924572,136.600899 C318.768481,136.266713 318.570366,135.964544 318.330227,135.680385 L317.419697,134.77388 C317.147539,134.501728 317.009459,134.123517 317.04548,133.739302 C317.081501,133.355088 317.285619,133.006894 317.603804,132.788772 C320.265351,130.963754 323.421185,129.661027 326.729108,129.024672 C327.103325,128.948629 327.499556,129.050686 327.79973,129.298824 C328.097903,129.544962 328.270004,129.911166 328.270004,130.297382 L328.270004,131.698163 C328.31603,132.004334 328.398078,132.330516 328.518148,132.650695 C330.589352,132.340522 332.448432,132.338521 334.515633,132.650695 C334.643708,132.306503 334.729758,131.938297 334.777786,131.540075 L334.76778,130.297382 C334.76778,129.911166 334.941881,129.544962 335.240055,129.298824 C335.538228,129.052687 335.932457,128.95063 336.310677,129.024672 C339.610595,129.661027 342.678378,130.925732 345.429977,132.78477 C345.750163,133.00089 345.956283,133.349085 345.994305,133.7353 C346.032327,134.119514 345.894247,134.501728 345.620087,134.775881 L344.633514,135.76043 C344.4374,135.998563 344.255294,136.290726 344.105207,136.614907 C345.734154,137.831586 347.166986,139.264385 348.385695,140.895295 C348.715887,140.739208 349.030069,140.539097 349.32424,140.290958 L350.224764,139.382451 C350.496922,139.106297 350.885147,138.970221 351.265368,139.006241 C351.649592,139.044262 351.999795,139.250378 352.215921,139.570556 C354.075001,142.32009 355.339736,145.389803 355.976106,148.691646 C356.050149,149.069857 355.950091,149.464077 355.703948,149.762243 C355.457805,150.06041 355.089591,150.232506 354.703367,150.232506 L353.302552,150.232506 C352.996374,150.274529 352.670185,150.356575 352.349999,150.478643 C352.50609,151.519224 352.584135,152.507775 352.584135,153.480318 C352.584135,154.452861 352.50609,155.441412 352.349999,156.479992 C352.690197,156.604061 353.060412,156.688108 353.464647,156.740137 L354.703367,156.730131 C355.089591,156.730131 355.457805,156.902227 355.703948,157.200394 C355.950091,157.49856 356.050149,157.890779 355.976106,158.270991 C355.339736,161.580838 354.036979,164.736599 352.209917,167.396083 C351.993792,167.714261 351.643588,167.918374 351.261366,167.952393 C350.869138,167.992416 350.496922,167.850336 350.224764,167.578185 L349.242193,166.595636 C349.004054,166.399527 348.72189,166.221427 348.401704,166.073345 C347.184997,167.702254 345.748162,169.137054 344.119215,170.353733 C344.267301,170.659904 344.473421,170.980083 344.735573,171.314269 L345.622089,172.186756 C345.892246,172.458908 346.030326,172.837119 345.994305,173.221333 C345.960285,173.603547 345.756166,173.951741 345.441984,174.169863 C342.718401,176.052914 339.646616,177.333628 336.310677,177.975987 C336.228629,177.991996 336.146581,178 336.064534,178 L336.064534,178 Z" id="Fill-1063" fill="#FFFFFF"></path>
                <path d="M331.501965,148.546836 C328.768797,148.546836 326.546502,150.767457 326.546502,153.500983 C326.546502,156.232543 328.768797,158.455129 331.501965,158.455129 C334.231203,158.455129 336.453498,156.232543 336.453498,153.500983 C336.453498,150.767457 334.231203,148.546836 331.501965,148.546836 Z M331.501965,161 C327.365863,161 324,157.635661 324,153.500983 C324,149.364339 327.365863,146 331.501965,146 C335.636102,146 339,149.364339 339,153.500983 C339,157.635661 335.636102,161 331.501965,161 L331.501965,161 Z" id="Fill-1065" fill="#FFFFFF"></path>
                <path d="M357.874467,128.140332 C358.350354,128.140332 358.790098,128.399379 359.019006,128.821082 C359.039085,128.861244 359.099324,128.97169 359.117396,129.013861 C359.404534,129.710675 359.555131,130.445644 359.573203,131.254912 C361.00488,131.060126 362.38435,130.698666 363.699565,130.174549 C363.3301,129.479742 363.119264,128.859236 363.034929,128.27086 C363.002802,128.172462 362.980714,128.06804 362.972682,127.96161 C362.970674,127.925465 362.970674,127.875262 362.970674,127.829075 C362.956619,127.325039 363.237733,126.851125 363.697557,126.626217 C365.458539,125.760721 367.014709,124.583968 368.325909,123.124071 C368.683326,122.728473 369.247563,122.587906 369.749553,122.778676 C370.554746,123.112023 371.20131,123.53975 371.741452,124.0719 C372.582788,122.95539 373.303646,121.716386 373.877923,120.397057 C373.052651,120.140019 372.412111,119.79864 371.863937,119.360871 C371.84185,119.342798 371.819762,119.322717 371.797674,119.304644 C371.775587,119.282555 371.729404,119.238377 371.709324,119.216287 C371.249501,118.880933 371.199302,118.403003 371.382026,117.864829 C371.719364,116.878846 371.942248,115.963148 372.066741,115.06753 C372.191235,114.171913 372.22537,113.232117 372.169147,112.19794 C372.141036,111.691896 372.410103,111.217982 372.85587,110.979017 C372.932173,110.938854 373.088794,110.864554 373.17112,110.838449 C373.735358,110.595467 374.466256,110.444859 375.257393,110.424778 C375.064628,109.00906 374.711227,107.635512 374.197189,106.316183 C373.484362,106.703748 372.77756,106.924641 372.030598,107.015006 C371.968351,107.023038 371.896065,107.02103 371.829802,107.025046 C371.823778,107.025046 371.817754,107.025046 371.81173,107.025046 C371.323795,107.025046 370.867988,106.749935 370.645104,106.300118 C369.777665,104.543021 368.605015,102.990751 367.157275,101.691504 C366.779778,101.352133 366.635205,100.824 366.783794,100.340045 C367.135187,99.4645086 367.564891,98.8058482 368.101017,98.259642 C366.972542,97.4041868 365.74367,96.6913074 364.432471,96.123012 C364.179467,96.9302726 363.840122,97.57086 363.39837,98.1291148 C363.358211,98.1793176 363.273877,98.2696826 363.225686,98.3118529 C362.8763,98.6411831 362.350214,98.7636779 361.900431,98.6150777 C360.908498,98.277715 359.994875,98.0548147 359.107356,97.9343281 C358.209797,97.8078171 357.272079,97.7756873 356.225931,97.8278982 C355.673741,97.8620361 355.177775,97.5407383 354.962923,97.0407187 C354.639641,96.2896852 354.481012,95.5386518 354.456916,94.7414317 C353.033271,94.9342104 351.647778,95.2916541 350.348627,95.7976981 C350.732147,96.4985288 350.955031,97.2053838 351.049405,97.9604335 C351.053421,97.9985876 351.057437,98.0427661 351.059445,98.0869445 C351.09358,98.6070452 350.812466,99.1070649 350.332563,99.3420138 C348.597684,100.191445 347.049545,101.362173 345.730314,102.820062 C345.374905,103.209635 344.814684,103.350203 344.320725,103.169473 C343.565732,102.904403 342.905112,102.476675 342.284652,101.882274 C341.423236,103.004808 340.70037,104.23578 340.126093,105.561133 C340.955381,105.814155 341.595921,106.14951 342.16819,106.603343 C342.228429,106.651538 342.320795,106.741903 342.373002,106.802146 C342.68022,107.151557 342.796682,107.661617 342.648093,108.103402 C342.314771,109.079344 342.091888,109.991026 341.969402,110.892668 C341.840892,111.798326 341.806757,112.738122 341.86298,113.770291 C341.889083,114.272318 341.622025,114.746233 341.180273,114.985198 C341.140114,115.007287 341.031684,115.06753 340.989517,115.083595 C340.29677,115.372763 339.559848,115.521363 338.742607,115.539436 C338.935372,116.985276 339.296805,118.366857 339.820883,119.670121 C340.62206,119.238377 341.336894,119.021501 342.023617,118.96929 C342.081848,118.963266 342.154134,118.965274 342.222405,118.96929 C342.704316,118.973306 343.154099,119.248417 343.372967,119.69221 C344.236391,121.437258 345.407033,122.983504 346.850757,124.286768 C347.236286,124.634171 347.372827,125.172344 347.218214,125.654291 C347.20215,125.706502 347.184079,125.764737 347.168015,125.802891 C346.92706,126.461552 346.51342,127.096115 345.909023,127.716621 C347.021434,128.574084 348.254322,129.294996 349.593633,129.87534 C349.848644,129.041974 350.183974,128.401387 350.631749,127.837108 C350.691988,127.762808 350.756243,127.694532 350.828529,127.636297 C351.173899,127.230658 351.623682,127.180455 352.131697,127.355161 C353.099534,127.682483 354.015165,127.905383 354.930795,128.031894 C355.846426,128.158405 356.786152,128.196559 357.808205,128.14234 C357.830292,128.140332 357.85238,128.140332 357.874467,128.140332 Z M358.113415,134 C357.749974,134 357.402596,133.847384 357.155617,133.578297 C356.892574,133.291137 356.770088,132.903571 356.824303,132.520022 L356.98494,131.365358 C356.982932,131.174588 356.966869,130.973777 356.932733,130.76895 C356.926709,130.76895 356.922693,130.76895 356.91667,130.76895 C356.109469,130.76895 355.336404,130.714731 354.573378,130.608301 C353.808345,130.503879 353.047327,130.34323 352.26623,130.122338 C352.16784,130.337206 352.083506,130.572155 352.017243,130.829193 L351.886725,131.835256 C351.834518,132.218806 351.613642,132.560184 351.282329,132.763004 C350.953023,132.967831 350.549423,133.014018 350.179958,132.887507 C347.41901,131.947711 344.999416,130.521952 342.985431,128.646376 C342.704316,128.385322 342.551711,128.011813 342.57179,127.630272 C342.589862,127.246723 342.778611,126.891287 343.083821,126.658347 L344.011499,125.9535 C344.140009,125.822972 344.26651,125.67638 344.378956,125.523764 C343.258513,124.391189 342.2967,123.124071 341.511587,121.736467 C341.308783,121.816791 341.095939,121.921213 340.873055,122.05174 L340.067862,122.66823 C339.760644,122.901171 339.367083,122.983504 338.993603,122.897155 C338.618114,122.812814 338.302864,122.565816 338.126163,122.224438 C336.869179,119.774542 336.154345,117.05556 336.001739,114.147816 C335.98166,113.76025 336.136273,113.382725 336.421403,113.119663 C336.706534,112.860616 337.096079,112.74013 337.477591,112.790333 L338.638193,112.948973 C338.82895,112.948973 339.031754,112.932908 339.234558,112.898771 C339.23255,112.077453 339.284757,111.296298 339.391179,110.535224 C339.495593,109.778166 339.65623,109.015084 339.881122,108.229913 C339.674302,108.135531 339.43937,108.053199 339.178335,107.986931 L338.166322,107.854396 C337.780794,107.802185 337.441448,107.581293 337.236636,107.249955 C337.033832,106.920624 336.987649,106.514986 337.112142,106.147502 C338.035805,103.430528 339.461458,101.010754 341.346934,98.9544484 C341.607969,98.6692967 341.97141,98.512664 342.368986,98.5347532 C342.754515,98.5548344 343.111932,98.7415887 343.344856,99.0508377 L344.04965,99.9846093 C344.180168,100.115137 344.330765,100.241648 344.487386,100.35611 C345.6259,99.2255434 346.89694,98.2636583 348.280426,97.4825031 C348.200107,97.281692 348.097701,97.0728485 347.9712,96.8740455 L347.332668,96.0406795 C347.099744,95.7334385 347.01541,95.3378407 347.101752,94.9603158 C347.190103,94.5847991 347.441098,94.2655095 347.786467,94.0908038 C350.218109,92.8698724 353.007168,92.1469524 355.848434,92.0001746 C356.237978,91.994336 356.613467,92.1349038 356.874502,92.4200555 C357.137545,92.7052073 357.258023,93.0947808 357.203808,93.47833 L357.043171,94.6350019 C357.047187,94.8097075 357.063251,95.0024862 357.099394,95.2012891 C357.928682,95.199281 358.705764,95.2514919 359.464773,95.3559137 C360.215751,95.4603354 360.976768,95.6209843 361.769913,95.8479008 C361.866295,95.6410654 361.946614,95.4121408 362.012877,95.163135 L362.141386,94.1651039 C362.195601,93.7795466 362.416477,93.4401759 362.745783,93.2353486 C363.077096,93.0305212 363.478689,92.9863428 363.848154,93.1108457 C366.536815,94.022528 368.954401,95.43423 371.032641,97.3077975 C371.321788,97.5668438 371.478409,97.9423605 371.462345,98.331934 C371.444273,98.7194994 371.255525,99.0789513 370.946299,99.3118922 L370.016612,100.014731 C369.884087,100.135218 369.753569,100.283818 369.633092,100.456515 C370.753534,101.583066 371.71334,102.852192 372.498453,104.241804 C372.729369,104.159472 372.932173,104.059066 373.130961,103.934563 L373.958241,103.297992 C374.267467,103.063043 374.665044,102.976695 375.044549,103.069068 C375.424053,103.157425 375.741311,103.410447 375.913996,103.759858 C377.148893,106.274013 377.849671,108.984962 377.998261,111.816399 C378.01834,112.203964 377.863727,112.581489 377.578597,112.842543 C377.293466,113.105606 376.905929,113.228101 376.520401,113.171874 L375.363815,113.013233 C375.189122,113.013233 374.996358,113.031306 374.797569,113.067452 C374.799577,113.888769 374.749378,114.665908 374.642956,115.424974 C374.54055,116.180024 374.375897,116.943106 374.151006,117.734302 C374.359834,117.830691 374.586733,117.911015 374.837729,117.977283 L375.835686,118.105802 C376.221214,118.160021 376.56056,118.380913 376.765372,118.712252 C376.968176,119.041582 377.014359,119.445212 376.889866,119.814705 C375.974235,122.505573 374.520471,124.993623 372.685194,127.00575 C372.426167,127.290901 372.042646,127.423437 371.663141,127.429461 C371.277612,127.411388 370.918187,127.222626 370.685264,126.913377 L369.984485,125.985629 C369.866015,125.85711 369.721442,125.728591 369.552773,125.608105 C368.422291,126.730639 367.153259,127.690516 365.763749,128.475687 C365.844068,128.682522 365.95049,128.899398 366.085023,129.130331 L366.701467,129.931567 C366.934391,130.238808 367.018725,130.634406 366.930375,131.009923 C366.844033,131.387448 366.595045,131.704729 366.249676,131.877427 C363.759803,133.132496 361.045039,133.845375 358.181686,133.995984 C358.159598,133.997992 358.135502,134 358.113415,134 L358.113415,134 Z" id="Fill-1067" fill="#FFFFFF"></path>
                <path d="M356.982135,105.428992 C355.380421,105.428992 353.827471,105.937291 352.514591,106.901371 C350.886619,108.099906 349.823186,109.859257 349.519348,111.858691 C349.21551,113.86 349.705027,115.857558 350.901624,117.485615 C352.096345,119.113671 353.855604,120.17716 355.854934,120.481014 C357.859889,120.784868 359.855467,120.29345 361.483439,119.09679 C363.111411,117.900131 364.176719,116.138904 364.480557,114.139471 C364.784395,112.140037 364.293003,110.142479 363.096406,108.514422 C361.89981,106.88449 360.14055,105.821001 358.143096,105.517147 C357.754859,105.459003 357.366622,105.428992 356.982135,105.428992 Z M357.01777,123 C356.511374,123 355.99935,122.962487 355.489203,122.88371 C352.848438,122.482323 350.522764,121.075592 348.941681,118.924231 C347.362474,116.772871 346.713536,114.133844 347.116777,111.492941 C347.516268,108.853913 348.922926,106.528118 351.074174,104.945077 C353.227297,103.362036 355.866187,102.716815 358.508827,103.114451 C361.147717,103.513963 363.47339,104.920694 365.056349,107.07393 C366.635556,109.22529 367.284494,111.864318 366.885004,114.503345 L366.885004,114.505221 C366.481762,117.146124 365.075104,119.471919 362.923856,121.05496 C361.187103,122.330396 359.133383,123 357.01777,123 L357.01777,123 Z" id="Fill-1069" fill="#FFFFFF"></path>
                <path d="M143.628136,155.68284 C147.871713,157.942288 180.903018,157.94834 185.371864,155.656614 L185.371864,85.9869254 C183.754394,84.9540347 176.604646,83.6145046 164.501015,83.6145046 C152.395354,83.6145046 145.247636,84.9540347 143.628136,85.9869254 L143.628136,155.68284 Z M164.501015,160 C156.64299,160 143.173539,159.620735 141.259769,157.074821 C141.091325,156.848876 141,156.574515 141,156.292084 L141,85.4180286 C141,85.1295455 141.095384,84.8471144 141.276005,84.6171348 C143.893994,81.26024 159.713545,81 164.501015,81 C169.288484,81 185.108036,81.26024 187.726024,84.6171348 C187.904616,84.8471144 188,85.1295455 188,85.4180286 L188,156.292084 C188,156.574515 187.908675,156.848876 187.740231,157.074821 C185.826461,159.620735 172.35701,160 164.501015,160 L164.501015,160 Z" id="Fill-1442" fill="#FFFFFF"></path>
                <path d="M143.628136,142.437489 L185.371864,142.437489 L185.371864,92.5625112 L143.628136,92.5625112 L143.628136,142.437489 Z M186.686947,145 L142.315083,145 C141.58854,145 141,144.426156 141,143.717755 L141,91.2802662 C141,90.5738442 141.58854,90 142.315083,90 L186.686947,90 C187.41146,90 188,90.5738442 188,91.2802662 L188,143.717755 C188,144.426156 187.41146,145 186.686947,145 L186.686947,145 Z" id="Fill-1444" fill="#FFFFFF"></path>
                <path d="M163.501087,149.813179 C162.57305,149.813179 161.814538,150.571325 161.814538,151.501086 C161.814538,152.428675 162.57305,153.186821 163.501087,153.186821 C164.429123,153.186821 165.185462,152.428675 165.185462,151.501086 C165.185462,150.571325 164.429123,149.813179 163.501087,149.813179 Z M163.501087,156 C161.019078,156 159,153.981897 159,151.501086 C159,149.018103 161.019078,147 163.501087,147 C165.983096,147 168,149.018103 168,151.501086 C168,153.981897 165.983096,156 163.501087,156 L163.501087,156 Z" id="Fill-1446" fill="#FFFFFF"></path>
                <path d="M149.793356,101.206644 L154.206644,101.206644 L154.206644,96.7933563 L149.793356,96.7933563 L149.793356,101.206644 Z M155.602243,104 L148.3956,104 C147.625539,104 147,103.374461 147,102.6044 L147,95.3977567 C147,94.6255393 147.625539,94 148.3956,94 L155.602243,94 C156.374461,94 157,94.6255393 157,95.3977567 L157,102.6044 C157,103.374461 156.374461,104 155.602243,104 L155.602243,104 Z" id="Fill-1448" fill="#FFFFFF"></path>
                <path d="M161.792152,101.206644 L166.207848,101.206644 L166.207848,96.7933563 L161.792152,96.7933563 L161.792152,101.206644 Z M167.602846,104 L160.397154,104 C159.62527,104 159,103.374461 159,102.6044 L159,95.3977567 C159,94.6255393 159.62527,94 160.397154,94 L167.602846,94 C168.37473,94 169,94.6255393 169,95.3977567 L169,102.6044 C169,103.374461 168.37473,104 167.602846,104 L167.602846,104 Z" id="Fill-1450" fill="#FFFFFF"></path>
                <path d="M174.79155,101.206644 L179.20845,101.206644 L179.20845,96.7933563 L174.79155,96.7933563 L174.79155,101.206644 Z M180.605303,104 L173.396853,104 C172.625135,104 172,103.374461 172,102.6044 L172,95.3977567 C172,94.6255393 172.625135,94 173.396853,94 L180.605303,94 C181.374865,94 182,94.6255393 182,95.3977567 L182,102.6044 C182,103.374461 181.374865,104 180.605303,104 L180.605303,104 Z" id="Fill-1452" fill="#FFFFFF"></path>
                <path d="M149.793356,115.208198 L154.206644,115.208198 L154.206644,110.793959 L149.793356,110.793959 L149.793356,115.208198 Z M155.602243,118 L148.3956,118 C147.625539,118 147,117.374326 147,116.604099 L147,109.395901 C147,108.625674 147.625539,108 148.3956,108 L155.602243,108 C156.374461,108 157,108.625674 157,109.395901 L157,116.604099 C157,117.374326 156.374461,118 155.602243,118 L155.602243,118 Z" id="Fill-1454" fill="#FFFFFF"></path>
                <path d="M161.792152,115.208198 L166.207848,115.208198 L166.207848,110.793959 L161.792152,110.793959 L161.792152,115.208198 Z M167.602846,118 L160.397154,118 C159.62527,118 159,117.374326 159,116.604099 L159,109.395901 C159,108.625674 159.62527,108 160.397154,108 L167.602846,108 C168.37473,108 169,108.625674 169,109.395901 L169,116.604099 C169,117.374326 168.37473,118 167.602846,118 L167.602846,118 Z" id="Fill-1456" fill="#FFFFFF"></path>
                <path d="M174.79155,115.208198 L179.20845,115.208198 L179.20845,110.793959 L174.79155,110.793959 L174.79155,115.208198 Z M180.605303,118 L173.396853,118 C172.625135,118 172,117.374326 172,116.604099 L172,109.395901 C172,108.625674 172.625135,108 173.396853,108 L180.605303,108 C181.374865,108 182,108.625674 182,109.395901 L182,116.604099 C182,117.374326 181.374865,118 180.605303,118 L180.605303,118 Z" id="Fill-1458" fill="#FFFFFF"></path>
                <path d="M149.793356,127.206644 L154.206644,127.206644 L154.206644,122.793356 L149.793356,122.793356 L149.793356,127.206644 Z M155.602243,130 L148.3956,130 C147.625539,130 147,129.374461 147,128.602243 L147,121.397757 C147,120.625539 147.625539,120 148.3956,120 L155.602243,120 C156.374461,120 157,120.625539 157,121.397757 L157,128.602243 C157,129.374461 156.374461,130 155.602243,130 L155.602243,130 Z" id="Fill-1460" fill="#FFFFFF"></path>
                <path d="M161.792152,127.206644 L166.207848,127.206644 L166.207848,122.793356 L161.792152,122.793356 L161.792152,127.206644 Z M167.602846,130 L160.397154,130 C159.62527,130 159,129.374461 159,128.602243 L159,121.397757 C159,120.625539 159.62527,120 160.397154,120 L167.602846,120 C168.37473,120 169,120.625539 169,121.397757 L169,128.602243 C169,129.374461 168.37473,130 167.602846,130 L167.602846,130 Z" id="Fill-1462" fill="#FFFFFF"></path>
                <path d="M157.711651,62.4163157 L162.286253,62.4163157 L162.286253,40.5836843 L157.711651,40.5836843 L157.711651,62.4163157 Z M163.644174,65 L156.355826,65 C155.607712,65 155,64.4194192 155,63.7071603 L155,39.2928397 C155,38.5785857 155.607712,38 156.355826,38 L163.644174,38 C164.392288,38 165,38.5785857 165,39.2928397 L165,63.7071603 C165,64.4194192 164.392288,65 163.644174,65 L163.644174,65 Z" id="Fill-1575" fill="#FFFFFF"></path>
                <path d="M171.713178,62.3655063 L176.286822,62.3655063 L176.286822,31.6344937 L171.713178,31.6344937 L171.713178,62.3655063 Z M177.642363,65 L170.357637,65 C169.607584,65 169,64.4080018 169,63.681736 L169,30.318264 C169,29.5899638 169.607584,29 170.357637,29 L177.642363,29 C178.392416,29 179,29.5899638 179,30.318264 L179,63.681736 C179,64.4080018 178.392416,65 177.642363,65 L177.642363,65 Z" id="Fill-1577" fill="#FFFFFF"></path>
                <path d="M184.713747,62.4192249 L189.286253,62.4192249 L189.286253,20.5787822 L184.713747,20.5787822 L184.713747,62.4192249 Z M190.644174,65 L183.355826,65 C182.607712,65 182,64.4200729 182,63.708616 L182,19.2893911 C182,18.5759413 182.607712,18 183.355826,18 L190.644174,18 C191.392288,18 192,18.5759413 192,19.2893911 L192,63.708616 C192,64.4200729 191.392288,65 190.644174,65 L190.644174,65 Z" id="Fill-1579" fill="#FFFFFF"></path>
                <path d="M266.000533,35.763506 C264.914336,35.763506 263.828138,36.1775382 263.000152,37.0056027 C261.350583,38.6553292 261.350583,41.3422705 263.000152,42.9941312 C264.60064,44.5926372 267.389757,44.5926372 268.990245,42.9941312 C269.792623,42.1916769 270.234357,41.1267176 270.234357,39.9955986 C270.234357,38.8644795 269.794756,37.8016545 268.994513,37.0013344 C268.168661,36.1775382 267.084597,35.763506 266.000533,35.763506 Z M265.994132,47 C264.124762,47 262.368493,46.2701081 261.045423,44.9490464 C258.318192,42.2194213 258.318192,37.7781784 261.045423,35.0485534 C263.776922,32.3189283 268.219877,32.3167941 270.949242,35.044285 L270.949242,35.0464192 C272.272312,36.3674809 273,38.1260509 273,39.9977328 C273,41.8672805 272.268044,43.6258505 270.944974,44.9490464 C269.621904,46.2701081 267.865635,47 265.994132,47 L265.994132,47 Z" id="Fill-565" fill="#FFFFFF"></path>
                <path d="M236.001205,35.7658539 C234.916873,35.7658539 233.830407,36.1777441 233.002217,37.0036588 C232.20391,37.8018295 231.764201,38.8646343 231.766328,39.9957319 C231.766328,41.1268294 232.208179,42.1917684 233.008621,42.9942074 C233.806928,43.7923781 234.869914,44.2341464 236.001205,44.2341464 L236.003339,44.2341464 C237.136765,44.2341464 238.197617,43.7923781 238.993789,42.9942074 C240.645901,41.3423782 240.648035,38.655488 239.000193,37.0036588 C238.172003,36.1777441 237.085537,35.7658539 236.001205,35.7658539 Z M236.001205,47 C234.131373,47 232.372537,46.270122 231.053409,44.9490854 C229.730012,43.6259147 229.000005,41.8673782 229.000005,39.997866 C228.997875,38.1283539 229.725743,36.3698173 231.047005,35.0487808 C233.77491,32.3192076 238.221096,32.3149394 240.955405,35.0487808 C243.68331,37.780488 243.681175,42.2216464 240.951136,44.9490854 C239.634142,46.270122 237.875306,46.9978659 236.003339,47 L236.001205,47 L236.001205,47 Z" id="Fill-566" fill="#FFFFFF"></path>
                <path d="M236.001205,2.71081873 C234.86778,2.71081873 233.804793,3.1545826 233.002217,3.96064643 C232.20391,4.76242269 231.764201,5.82788473 231.766328,6.96409173 C231.766328,8.10244252 232.208179,9.17219213 233.008621,9.97611218 C233.806928,10.7800322 234.869914,11.2216523 236.001205,11.2216523 L236.003339,11.2216523 C237.136765,11.2216523 238.197617,10.7800322 238.993789,9.97825597 C240.645901,8.3168212 240.648035,5.61993741 239.000193,3.96064643 C238.197617,3.1545826 237.132496,2.71081873 236.001205,2.71081873 Z M236.001205,14 C234.131373,14 232.372537,13.2689687 231.053409,11.9398209 C229.730012,10.6106731 229.000005,8.84419275 229.000005,6.96623552 C228.997875,5.08827829 229.725743,3.32179797 231.047005,1.99693772 C233.691664,-0.66350169 238.306477,-0.667789264 240.955405,1.99693772 C243.68331,4.73884104 243.681175,9.20006136 240.951136,11.9419647 C239.634142,13.2668249 237.875306,14 236.003339,14 L236.001205,14 L236.001205,14 Z" id="Fill-567" fill="#FFFFFF"></path>
                <path d="M211,74.7122974 C209.868902,74.7122974 208.806098,75.1540274 208.005793,75.9560032 C207.205488,76.7601234 206.765854,77.8301392 206.765854,78.9666291 C206.765854,80.1031189 207.205488,81.1709904 208.005793,81.9751106 C209.606402,83.5812066 212.393598,83.5833509 213.994207,81.9751106 C214.794512,81.1709904 215.234146,80.1031189 215.234146,78.9666291 C215.234146,77.8301392 214.794512,76.7601234 213.994207,75.9560032 C213.193902,75.1540274 212.131098,74.7122974 211,74.7122974 Z M211,86 C209.128354,86 207.371951,85.2687867 206.050915,83.9393081 C204.727744,82.6119738 204,80.8450537 204,78.9666291 C204,77.0860601 204.727744,75.3212844 206.050915,73.9918057 C208.692988,71.337137 213.304878,71.3349927 215.949085,73.9918057 C217.272256,75.3212844 218,77.0882044 218,78.9666291 C218,80.8450537 217.272256,82.6119738 215.949085,83.9393081 C214.628049,85.2687867 212.869512,86 211,86 L211,86 Z" id="Fill-568" fill="#FFFFFF"></path>
                <path d="M215.213953,76 C214.998118,76 214.780407,75.938381 214.581463,75.8111676 C214.009032,75.4414536 213.828857,74.6483575 214.177946,74.0401183 L231.74689,43.6162354 C232.09598,43.0119716 232.844832,42.8171761 233.417263,43.1888778 C233.991571,43.5605795 234.171746,44.3536756 233.82078,44.959927 L216.253713,75.38381 C216.024741,75.7813519 215.624977,76 215.213953,76" id="Fill-569" fill="#FFFFFF"></path>
                <path d="M260.684143,41 L241.313827,41 C240.588887,41 240,40.3281853 240,39.5011583 C240,38.6718147 240.588887,38 241.313827,38 L260.684143,38 C261.411113,38 262,38.6718147 262,39.5011583 C262,40.3281853 261.411113,41 260.684143,41" id="Fill-570" fill="#FFFFFF"></path>
                <path d="M235.498842,35 C234.671815,35 234,34.4461685 234,33.7624731 L234,12.2375269 C234,11.5538315 234.671815,11 235.498842,11 C236.328185,11 237,11.5538315 237,12.2375269 L237,33.7624731 C237,34.4461685 236.328185,35 235.498842,35" id="Fill-571" fill="#FFFFFF"></path>
                <path d="M208.761194,39.2370946 L217.238806,39.2370946 L217.238806,30.7629054 L208.761194,30.7629054 L208.761194,39.2370946 Z M218.620469,42 L207.379531,42 C206.618337,42 206,41.3817573 206,40.6185473 L206,29.3814527 C206,28.6182427 206.618337,28 207.379531,28 L218.620469,28 C219.381663,28 220,28.6182427 220,29.3814527 L220,40.6185473 C220,41.3817573 219.381663,42 218.620469,42 L218.620469,42 Z" id="Fill-616" fill="#FFFFFF"></path>
                <path d="M231.584559,83.4139887 L245.417437,83.4139887 L245.417437,69.5860113 L231.584559,69.5860113 L231.584559,83.4139887 Z M246.708718,86 L230.291282,86 C229.578782,86 229,85.4213401 229,84.7069943 L229,68.2930057 C229,67.5786599 229.578782,67 230.291282,67 L246.708718,67 C247.421218,67 248,67.5786599 248,68.2930057 L248,84.7069943 C248,85.4213401 247.421218,86 246.708718,86 L246.708718,86 Z" id="Fill-618" fill="#FFFFFF"></path>
                <path d="M249.621457,60.3770009 L255.378543,60.3770009 L255.378543,54.6229991 L249.621457,54.6229991 L249.621457,60.3770009 Z M256.690283,63 L248.309717,63 C247.587045,63 247,62.4130635 247,61.6885005 L247,53.3114995 C247,52.5869365 247.587045,52 248.309717,52 L256.690283,52 C257.412955,52 258,52.5869365 258,53.3114995 L258,61.6885005 C258,62.4130635 257.412955,63 256.690283,63 L256.690283,63 Z" id="Fill-620" fill="#FFFFFF"></path>
                <path d="M30.8152174,68.1843454 L39.1847826,68.1843454 L39.1847826,59.8156546 L30.8152174,59.8156546 L30.8152174,68.1843454 Z M40.5913043,71 L29.4065217,71 C28.6304348,71 28,70.3694673 28,69.5932598 L28,58.4067402 C28,57.6305327 28.6304348,57 29.4065217,57 L40.5913043,57 C41.3673913,57 42,57.6305327 42,58.4067402 L42,69.5932598 C42,70.3694673 41.3673913,71 40.5913043,71 L40.5913043,71 Z" id="Fill-1581" fill="#FFFFFF"></path>
                <path d="M109.815217,100.184783 L118.186957,100.184783 L118.186957,91.8152174 L109.815217,91.8152174 L109.815217,100.184783 Z M119.593478,103 L108.406522,103 C107.630435,103 107,102.369565 107,101.593478 L107,90.4065217 C107,89.6304348 107.630435,89 108.406522,89 L119.593478,89 C120.369565,89 121,89.6304348 121,90.4065217 L121,101.593478 C121,102.369565 120.369565,103 119.593478,103 L119.593478,103 Z" id="Fill-1583" fill="#FFFFFF"></path>
                <path d="M30.8152174,130.184345 L39.1847826,130.184345 L39.1847826,121.81348 L30.8152174,121.81348 L30.8152174,130.184345 Z M40.5913043,133 L29.4065217,133 C28.6304348,133 28,132.369467 28,131.59326 L28,120.40674 C28,119.628358 28.6304348,119 29.4065217,119 L40.5913043,119 C41.3673913,119 42,119.628358 42,120.40674 L42,131.59326 C42,132.369467 41.3673913,133 40.5913043,133 L40.5913043,133 Z" id="Fill-1585" fill="#FFFFFF"></path>
                <polyline id="Fill-1586" fill="#FFFFFF" points="62 91.5 96 91.5 62 91.5"></polyline>
                <path d="M96.7140632,93 L62.2879244,93 C61.5763859,93 61,92.3281853 61,91.5011583 C61,90.6718147 61.5763859,90 62.2879244,90 L96.7140632,90 C97.4256016,90 98,90.6718147 98,91.5011583 C98,92.3281853 97.4256016,93 96.7140632,93" id="Fill-1587" fill="#FFFFFF"></path>
                <polyline id="Fill-1588" fill="#FFFFFF" points="62 99.5 72 99.5 62 99.5"></polyline>
                <path d="M72.6814838,101 L62.3185162,101 C61.5900767,101 61,100.328185 61,99.4988417 C61,98.6718147 61.5900767,98 62.3185162,98 L72.6814838,98 C73.4099233,98 74,98.6718147 74,99.4988417 C74,100.328185 73.4099233,101 72.6814838,101" id="Fill-1589" fill="#FFFFFF"></path>
                <polyline id="Fill-1590" fill="#FFFFFF" points="48 59.5 82 59.5 48 59.5"></polyline>
                <path d="M82.7139941,61 L48.2879936,61 C47.5764169,61 47,60.3281853 47,59.4988417 C47,58.6718147 47.5764169,58 48.2879936,58 L82.7139941,58 C83.4235831,58 84,58.6718147 84,59.4988417 C84,60.3281853 83.4235831,61 82.7139941,61" id="Fill-1591" fill="#FFFFFF"></path>
                <polyline id="Fill-1592" fill="#FFFFFF" points="47 67.5 57 67.5 47 67.5"></polyline>
                <path d="M57.6812774,69 L47.3187226,69 C46.5901691,69 46,68.3281853 46,67.5011583 C46,66.6718147 46.5901691,66 47.3187226,66 L57.6812774,66 C58.4098309,66 59,66.6718147 59,67.5011583 C59,68.3281853 58.4098309,69 57.6812774,69" id="Fill-1593" fill="#FFFFFF"></path>
                <polyline id="Fill-1594" fill="#FFFFFF" points="66 67.5 71 67.5 66 67.5"></polyline>
                <path d="M71.652785,69 L66.3492972,69 C65.6038522,69 65,68.3281853 65,67.5011583 C65,66.6718147 65.6038522,66 66.3492972,66 L71.652785,66 C72.3961478,66 73,66.6718147 73,67.5011583 C73,68.3281853 72.3961478,69 71.652785,69" id="Fill-1595" fill="#FFFFFF"></path>
                <polyline id="Fill-1596" fill="#FFFFFF" points="48 122.5 82 122.5 48 122.5"></polyline>
                <path d="M82.7139941,124 L48.2879936,124 C47.5764169,124 47,123.328185 47,122.501158 C47,121.671815 47.5764169,121 48.2879936,121 L82.7139941,121 C83.4235831,121 84,121.671815 84,122.501158 C84,123.328185 83.4235831,124 82.7139941,124" id="Fill-1597" fill="#FFFFFF"></path>
                <polyline id="Fill-1598" fill="#FFFFFF" points="48 129.5 54 129.5 48 129.5"></polyline>
                <path d="M53.6905779,131 L47.3114459,131 C46.5869125,131 46,130.328185 46,129.501158 C46,128.674131 46.5869125,128 47.3114459,128 L53.6905779,128 C54.4130875,128 55,128.674131 55,129.501158 C55,130.328185 54.4130875,131 53.6905779,131" id="Fill-1599" fill="#FFFFFF"></path>
                <polyline id="Fill-1600" fill="#FFFFFF" points="60 129.5 63 129.5 60 129.5"></polyline>
                <path d="M62.7407552,131 L60.2592448,131 C59.564422,131 59,130.328185 59,129.501158 C59,128.674131 59.564422,128 60.2592448,128 L62.7407552,128 C63.435578,128 64,128.674131 64,129.501158 C64,130.328185 63.435578,131 62.7407552,131" id="Fill-1601" fill="#FFFFFF"></path>
                <polyline id="Fill-1602" fill="#FFFFFF" points="67 129.5 70 129.5 67 129.5"></polyline>
                <path d="M69.7407552,131 L67.2611911,131 C66.564422,131 66,130.328185 66,129.501158 C66,128.674131 66.564422,128 67.2611911,128 L69.7407552,128 C70.435578,128 71,128.674131 71,129.501158 C71,130.328185 70.435578,131 69.7407552,131" id="Fill-1603" fill="#FFFFFF"></path>
                <path d="M115.943819,64.6987381 C116.994684,65.2907657 118.126996,65.7596198 119.334796,66.1033137 C119.465906,65.3503658 119.688395,64.7503915 120.014183,64.1961106 C120.040008,64.1524039 120.079738,64.0967771 120.115495,64.0490971 C120.40354,63.6418297 120.902154,63.4272694 121.412688,63.5226295 C123.268091,63.8802301 124.755988,63.8802301 126.617351,63.5226295 C127.133844,63.423296 127.644378,63.6438164 127.930435,64.0749238 C128.341644,64.7523782 128.580025,65.3940726 128.705175,66.0973537 C129.899069,65.7536598 131.029395,65.2848057 132.092179,64.6907914 C131.700836,64.1384972 131.446563,63.6239497 131.299561,63.1193355 C131.263803,63.0438421 131.232019,62.9623886 131.210168,62.8769618 C131.194276,62.809415 131.178383,62.7041215 131.172424,62.6326014 C131.071112,62.1240139 131.299561,61.7147599 131.730634,61.4247061 C133.208599,60.4254112 134.464075,59.1718224 135.455345,57.7036734 C135.741403,57.278526 136.263855,57.079859 136.734659,57.1533658 C136.792268,57.1613125 136.84789,57.1712459 136.897553,57.1851525 C137.57694,57.3679262 138.176867,57.6480466 138.721171,58.0394206 C139.295274,56.9864856 139.76409,55.8501104 140.103784,54.6620818 C139.362815,54.5269882 138.760902,54.3005078 138.22057,53.9826407 C138.168921,53.9508539 138.09542,53.8992005 138.04973,53.8634405 C137.57694,53.5872934 137.449803,53.1243993 137.555089,52.5860117 C137.729902,51.6701569 137.817308,50.8178755 137.817308,49.9834741 C137.817308,49.1550328 137.729902,48.3047381 137.555089,47.3849099 C137.459736,46.8942024 137.656401,46.3935616 138.059663,46.0995345 C138.09542,46.0737078 138.190773,46.0021877 138.22653,45.9803343 C138.790699,45.6525338 139.418437,45.4240667 140.099811,45.2949332 C139.762104,44.1188246 139.29726,42.9923828 138.715212,41.9275277 C138.133164,42.3427417 137.533237,42.6188888 136.885634,42.7857691 C136.371127,42.9089426 135.743389,42.7102756 135.443426,42.2672482 C134.45017,40.8050592 133.200653,39.5554438 131.728647,38.5561489 C131.307507,38.2680817 131.09495,37.7634676 131.184343,37.2608401 C131.382994,36.4701455 131.675012,35.8344111 132.068341,35.2801302 C131.001584,34.6960492 129.871258,34.2331552 128.693256,33.8974079 C128.558173,34.6344625 128.333697,35.2344368 128.017842,35.7728243 C127.976125,35.8403711 127.904611,35.9397046 127.854948,35.997318 C127.562931,36.4165054 127.119938,36.5456389 126.613378,36.4443188 C124.77784,36.0887049 123.250212,36.0887049 121.416661,36.4443188 C120.888249,36.5555723 120.383674,36.3231319 120.099603,35.8999712 C120.059873,35.8443445 120.018156,35.7827577 119.992331,35.7311043 C119.680449,35.2046367 119.452,34.5808224 119.32685,33.8993946 C118.142888,34.2391152 117.006603,34.7039959 115.953752,35.2801302 C116.368933,35.8602378 116.647044,36.4582255 116.815898,37.1058798 C116.83179,37.1654799 116.843709,37.2350134 116.851655,37.2985868 C116.919197,37.7813476 116.70664,38.2660951 116.297418,38.5442288 C114.841305,39.5296171 113.593775,40.7752592 112.590586,42.2453949 C112.304528,42.6685556 111.803927,42.8910626 111.291407,42.7877558 C110.568316,42.6447155 109.926673,42.3546617 109.304894,41.9175943 C108.710927,42.9824494 108.24211,44.1128646 107.898443,45.3028799 C108.655305,45.4379734 109.255231,45.6584938 109.805495,45.982321 C109.873037,46.024041 109.972362,46.0975478 110.031958,46.1492012 C110.375624,46.4511751 110.562357,46.9339358 110.476937,47.3809366 C110.29815,48.3146714 110.210744,49.1649661 110.210744,49.9834741 C110.210744,50.8039688 110.29815,51.6582369 110.47495,52.5919717 C110.568316,53.0886392 110.361719,53.59524 109.946538,53.8872805 C109.257218,54.3084545 108.611601,54.5488416 107.90043,54.6759885 C108.244096,55.8818971 108.7149,57.0142989 109.304894,58.0652473 C109.964416,57.6003666 110.568316,57.3281928 111.166256,57.2010459 C111.241744,57.1851525 111.368881,57.1692592 111.444368,57.1672725 C111.93305,57.0937657 112.300555,57.3162728 112.578667,57.7275134 C113.56795,59.1877158 114.80952,60.4293845 116.275567,61.4227194 C116.712599,61.7207199 116.925156,62.2591075 116.803979,62.7756417 C116.670883,63.4491227 116.388798,64.0729371 115.943819,64.6987381 Z M127.485457,69 C127.189466,69 126.899435,68.8985583 126.667013,68.707838 C126.371023,68.4634776 126.200183,68.0979303 126.200183,67.714503 L126.200183,66.6417013 C126.178331,66.5066077 126.146547,66.3635675 126.10483,66.2165539 C124.662622,66.4132342 123.371389,66.4112476 121.933154,66.2185406 C121.885478,66.3993276 121.845748,66.5900479 121.823896,66.7966615 L121.829856,67.714503 C121.829856,68.0979303 121.661002,68.4634776 121.363025,68.707838 C121.067035,68.9521984 120.677678,69.0495452 120.300241,68.9760384 C117.664139,68.4674509 115.280324,67.4721293 113.214351,66.0178869 C112.900482,65.7993532 112.703817,65.4556593 112.670046,65.0762054 C112.638262,64.6987381 112.773345,64.3272308 113.041524,64.0570437 L113.792426,63.3021092 C113.8699,63.1968157 113.947374,63.0835755 114.014915,62.9623886 C112.896509,62.1001739 111.903253,61.1068389 111.041106,59.9923171 C110.896091,60.0797306 110.741143,60.1850241 110.586195,60.3081976 L109.940578,60.9598254 C109.672399,61.2260391 109.31284,61.3670927 108.919511,61.329346 C108.54406,61.2955726 108.198407,61.0969056 107.981877,60.7849984 C106.52775,58.716875 105.532507,56.3328712 105.02396,53.7005335 C104.950459,53.3230663 105.047798,52.933679 105.292139,52.6376651 C105.53648,52.3396647 105.901998,52.1707977 106.285395,52.1707977 L107.358112,52.1707977 C107.493195,52.1489443 107.636224,52.1171576 107.783226,52.0754376 C107.6839,51.350303 107.63821,50.6609286 107.63821,49.9834741 C107.63821,49.3080064 107.6839,48.6206186 107.783226,47.9034308 C107.604439,47.8557507 107.411748,47.818004 107.20515,47.7921772 L106.285395,47.8001239 C105.901998,47.8001239 105.53648,47.6292703 105.292139,47.3332565 C105.047798,47.0372427 104.950459,46.6458687 105.02396,46.2703881 C105.524561,43.6817572 106.517817,41.29974 107.975917,39.1879099 C108.192447,38.8740161 108.5381,38.6713757 108.917524,38.6376023 C109.300921,38.5978689 109.676372,38.7389225 109.946538,39.0091096 L110.699426,39.7640442 C110.806698,39.8454976 110.923902,39.9209911 111.049052,39.9925112 C111.911199,38.8700427 112.908428,37.8727344 114.020875,37.014493 C113.935455,36.8635061 113.834143,36.7224525 113.718925,36.587359 L113.041524,35.9099046 C112.771358,35.6397175 112.636276,35.2642368 112.670046,34.8827962 C112.70779,34.5013556 112.908428,34.1576617 113.224283,33.9411147 C115.292243,32.524619 117.73764,31.5153907 120.302227,31.0226966 C120.677678,30.9511765 121.069021,31.05051 121.365012,31.2948704 C121.661002,31.5392308 121.829856,31.9027914 121.829856,32.2882053 L121.829856,33.3570337 C121.849721,33.4782206 121.881505,33.6133142 121.923222,33.752381 C123.351524,33.5557007 124.666595,33.5537141 126.098871,33.752381 C126.146547,33.5775541 126.184291,33.3927938 126.210116,33.1961135 L126.200183,32.2882053 C126.200183,31.9027914 126.371023,31.5392308 126.665027,31.2948704 C126.963004,31.05051 127.35832,30.9511765 127.727811,31.0226966 C130.286439,31.5134041 132.668268,32.494819 134.799796,33.9351547 C135.117638,34.1517017 135.322249,34.4973823 135.359992,34.8788229 C135.397736,35.2622502 135.260667,35.6417041 134.990501,35.9118912 L134.237613,36.6668258 C134.154179,36.7701326 134.072732,36.8873462 133.997245,37.0224397 C135.117638,37.8846544 136.11288,38.8799761 136.975027,39.9944979 C137.133948,39.9070844 137.276977,39.8057642 137.414046,39.6885507 L138.083501,39.0091096 C138.355653,38.7389225 138.737064,38.6038289 139.118474,38.639589 C139.499884,38.6753491 139.847524,38.8819627 140.062067,39.1998299 C141.502289,41.3335134 142.483626,43.7135439 142.976281,46.2703881 C143.049782,46.6478554 142.950457,47.0372427 142.706116,47.3332565 C142.461774,47.6292703 142.098243,47.8001239 141.712859,47.8001239 L140.642129,47.8001239 C140.520952,47.8199906 140.383882,47.8517773 140.244827,47.8934974 C140.344152,48.6086986 140.389842,49.3000597 140.389842,49.9834741 C140.389842,50.6668886 140.344152,51.3542764 140.246813,52.0694775 C140.421626,52.1171576 140.606372,52.1549044 140.803037,52.1787444 L141.712859,52.1707977 C142.098243,52.1707977 142.461774,52.3396647 142.706116,52.6376651 C142.950457,52.9316923 143.049782,53.3230663 142.976281,53.7005335 C142.48164,56.267311 141.470505,58.7129017 140.056108,60.7730784 C139.841564,61.0909456 139.495911,61.2915992 139.116487,61.329346 C138.731104,61.3432527 138.361613,61.2300125 138.08946,60.9598254 L137.336572,60.2128375 C137.23526,60.1293973 137.120042,60.0499305 136.986946,59.9764238 C136.130759,61.0909456 135.135516,62.0862672 134.015123,62.9484819 C134.10253,63.0974822 134.209801,63.2524424 134.334952,63.411376 L134.990501,64.0550571 C135.260667,64.3272308 135.397736,64.7007248 135.361979,65.0801787 C135.328208,65.4616194 135.125584,65.8072999 134.813701,66.0218603 C132.707998,67.4780893 130.32617,68.4753976 127.729798,68.9760384 C127.648351,68.9919318 127.566904,69 127.485457,69 L127.485457,69 Z" id="Fill-1607" fill="#FFFFFF"></path>
                <g id="Group-3" transform="translate(264.000000, 188.000000) scale(1, -1) rotate(-180.000000) translate(-264.000000, -188.000000) translate(228.000000, 160.000000)">
                    <path d="M20,10.4993345 C20,15.7541156 15.7489496,20 10.4973389,20 C5.25105042,20 1,15.7541156 1,10.4993345 C1,5.24588441 5.25105042,1 10.4973389,1 C15.7489496,1 20,5.24588441 20,10.4993345" id="Fill-1278" fill="#252525"></path>
                    <path d="M10.4973035,1.74797688 C5.67199538,1.74797688 1.74595532,5.67418112 1.74595532,10.5 C1.74595532,15.3271676 5.67199538,19.2533719 10.4973035,19.2533719 C15.3253082,19.2533719 19.2540447,15.3271676 19.2540447,10.5 C19.2540447,5.67418112 15.3253082,1.74797688 10.4973035,1.74797688 Z M10.4973035,21 C4.70936055,21 5.12694657e-14,16.2901734 5.12694657e-14,10.5 C5.12694657e-14,4.70982659 4.70936055,0 10.4973035,0 C16.2892912,0 21,4.70982659 21,10.5 C21,16.2901734 16.2892912,21 10.4973035,21 L10.4973035,21 Z" id="Fill-1279" fill="#FFFFFF"></path>
                    <path d="M71,49.5007719 C71,52.5390877 68.5375439,55 65.4992281,55 C62.4624561,55 60,52.5390877 60,49.5007719 C60,46.4624561 62.4624561,44 65.4992281,44 C68.5375439,44 71,46.4624561 71,49.5007719" id="Fill-1569" fill="#252525"></path>
                    <path d="M65.9992875,45.8458249 C63.7092982,45.8458249 61.8453865,47.708754 61.8453865,50.0007127 C61.8453865,52.2898206 63.7092982,54.1541751 65.9992875,54.1541751 C68.2907018,54.1541751 70.1546135,52.2898206 70.1546135,50.0007127 C70.1546135,47.708754 68.2907018,45.8458249 65.9992875,45.8458249 Z M65.9992875,56 C62.6918418,56 60,53.3089441 60,50.0007127 C60,46.6924813 62.6918418,44 65.9992875,44 C69.3081582,44 72,46.6924813 72,50.0007127 C72,53.3089441 69.3081582,56 65.9992875,56 L65.9992875,56 Z" id="Fill-1570" fill="#FFFFFF"></path>
                    <path d="M14,10.9992845 C14,12.6577629 12.6574427,14 11,14 C9.34255725,14 8,12.6577629 8,10.9992845 C8,9.34223706 9.34255725,8 11,8 C12.6574427,8 14,9.34223706 14,10.9992845" id="Fill-1571" fill="#252525"></path>
                    <path d="M11,8.88921283 C9.83673469,8.88921283 8.8877551,9.83673469 8.8877551,11 C8.8877551,12.164723 9.83673469,13.1122449 11,13.1122449 C12.1632653,13.1122449 13.1122449,12.164723 13.1122449,11 C13.1122449,9.83673469 12.1632653,8.88921283 11,8.88921283 Z M11,15 C8.79446064,15 7,13.2055394 7,11 C7,8.79446064 8.79446064,7 11,7 C13.2055394,7 15,8.79446064 15,11 C15,13.2055394 13.2055394,15 11,15 L11,15 Z" id="Fill-1572" fill="#FFFFFF"></path>
                    <path d="M61.1156323,51 L45.6111768,51 C25.9746603,51 10,35.0054023 10,15.344378 L10,13.88684 C10,13.3968883 10.3963936,13 10.8857346,13 C11.3737087,13 11.7701023,13.3968883 11.7701023,13.88684 L11.7701023,15.344378 C11.7701023,34.0268674 26.9519754,49.2276885 45.6111768,49.2276885 L61.1156323,49.2276885 C61.6036064,49.2276885 62,49.6245768 62,50.1145286 C62,50.6031117 61.6036064,51 61.1156323,51" id="Fill-1573" fill="#FFFFFF"></path>
                </g>
                <g id="Group-9" transform="translate(195.000000, 190.000000)" fill="#FFFFFF">
                    <path d="M2.10761899,24.8907522 L24.8907522,24.8907522 L24.8907522,2.10924775 L2.10761899,2.10924775 L2.10761899,24.8907522 Z M25.9445617,27 L1.0538095,27 C0.472341196,27 0,26.5276588 0,25.9445617 L0,1.0538095 C0,0.472341196 0.472341196,0 1.0538095,0 L25.9445617,0 C26.5276588,0 27,0.472341196 27,1.0538095 L27,25.9445617 C27,26.5276588 26.5276588,27 25.9445617,27 L25.9445617,27 Z" id="Fill-1737"></path>
                    <path d="M18.9491504,10 L8.05084958,10 C7.47101449,10 7,9.55212355 7,8.9992278 C7,8.44787645 7.47101449,8 8.05084958,8 L18.9491504,8 C19.5306097,8 20,8.44787645 20,8.9992278 C20,9.55212355 19.5306097,10 18.9491504,10" id="Fill-1739"></path>
                    <path d="M18.9491504,15 L8.05084958,15 C7.47101449,15 7,14.5521236 7,14.0007722 C7,13.4478764 7.47101449,13 8.05084958,13 L18.9491504,13 C19.5306097,13 20,13.4478764 20,14.0007722 C20,14.5521236 19.5306097,15 18.9491504,15" id="Fill-1741"></path>
                    <path d="M13.8868817,20 L8.11311828,20 C7.49892473,20 7,19.5521236 7,18.9992278 C7,18.4478764 7.49892473,18 8.11311828,18 L13.8868817,18 C14.5010753,18 15,18.4478764 15,18.9992278 C15,19.5521236 14.5010753,20 13.8868817,20" id="Fill-1743"></path>
                </g>
                <g id="Group-11" transform="translate(165.000000, 173.000000)" fill="#FFFFFF">
                    <path d="M2.10761899,21.1092478 L21.107619,21.1092478 L21.107619,2.10924775 L2.10761899,2.10924775 L2.10761899,21.1092478 Z M22.100923,23 L0.89768957,23 C0.402364722,23 0,22.5976353 0,22.100923 L0,0.89768957 C0,0.402364722 0.402364722,0 0.89768957,0 L22.100923,0 C22.5976353,0 23,0.402364722 23,0.89768957 L23,22.100923 C23,22.5976353 22.5976353,23 22.100923,23 L22.100923,23 Z" id="Fill-1737"></path>
                    <path d="M16.1916542,10 L7.80834583,10 C7.36231884,10 7,9.55212355 7,8.9992278 C7,8.44787645 7.36231884,8 7.80834583,8 L16.1916542,8 C16.6389305,8 17,8.44787645 17,8.9992278 C17,9.55212355 16.6389305,10 16.1916542,10" id="Fill-1739"></path>
                    <path d="M13.8868817,15 L8.11311828,15 C7.49892473,15 7,14.5521236 7,13.9992278 C7,13.4478764 7.49892473,13 8.11311828,13 L13.8868817,13 C14.5010753,13 15,13.4478764 15,13.9992278 C15,14.5521236 14.5010753,15 13.8868817,15" id="Fill-1743"></path>
                </g>
                <polyline id="Fill-1738" fill="#FFFFFF" points="169 236 180 236 169 236"></polyline>
            </g>
        </g>
    </g>
</svg>